<svg width="53" height="44" viewBox="0 0 53 44" fill="currentColor" xmlns="http://www.w3.org/2000/svg">
<path d="M52.1136 12.2684H52.1591V12.1775C52.1894 12.1775 52.2045 12.1699 52.2045 12.1547C52.2045 12.1396 52.2045 12.132 52.2045 12.132V12.041C52.2045 12.041 52.2197 12.041 52.25 12.041V11.9501V11.8591V11.7682V11.7227C52.25 11.6924 52.25 11.6772 52.25 11.6772H52.2045V11.6318V11.5863L52.1591 11.5408V11.4953L52.1136 11.4499V11.4044C52.1136 11.4044 52.106 11.4044 52.0908 11.4044C52.0757 11.4044 52.0681 11.3968 52.0681 11.3817C52.0681 11.3665 52.0529 11.3589 52.0226 11.3589V11.3134H51.9772V11.268H51.9317V11.2225C51.9317 11.2225 51.9241 11.2225 51.9089 11.2225C51.8938 11.2225 51.8862 11.2225 51.8862 11.2225L45.4288 7.17527H45.3834C45.3834 7.17527 45.3834 7.16769 45.3834 7.15253C45.3834 7.13737 45.3834 7.1298 45.3834 7.1298H45.3379H45.2924L45.2469 7.08432H45.156H45.0196C45.0196 7.054 45.0044 7.03885 44.9741 7.03885V7.08432H44.9286H44.8831H44.8377H44.7922C44.7619 7.08432 44.7467 7.09948 44.7467 7.1298H44.7012H44.6558L33.0598 13.3598L26.1476 4.90154L26.0567 4.81059C26.0567 4.81059 26.0491 4.81059 26.0339 4.81059C26.0188 4.81059 26.0112 4.79544 26.0112 4.76512H25.9657V4.71965H25.8748C25.8748 4.68933 25.8672 4.67417 25.852 4.67417C25.8369 4.67417 25.8293 4.67417 25.8293 4.67417H25.7838H25.7384C25.7384 4.64386 25.7308 4.6287 25.7156 4.6287C25.7005 4.6287 25.6929 4.6287 25.6929 4.6287L3.0011 0.581463H2.8192H2.68278C2.68278 0.611782 2.6752 0.626938 2.66004 0.626938C2.64488 0.626938 2.6373 0.626938 2.6373 0.626938H2.59183C2.56151 0.626938 2.54635 0.642097 2.54635 0.672413H2.50088C2.50088 0.672413 2.50088 0.679993 2.50088 0.695152C2.50088 0.710308 2.50088 0.717888 2.50088 0.717888H2.40993V0.763363H2.36446V0.808838C2.33414 0.808838 2.31898 0.823994 2.31898 0.854313H2.27351V0.899788H2.22803V0.990734C2.19772 0.990734 2.18256 0.998314 2.18256 1.01347C2.18256 1.02863 2.18256 1.03621 2.18256 1.03621V1.08168L2.13708 1.12716V1.17263V1.21811V1.40001V1.58191H2.18256V1.67285H2.22803C2.22803 1.67285 2.22803 1.68043 2.22803 1.69559C2.22803 1.71075 2.22803 1.72591 2.22803 1.74107C2.22803 1.75622 2.24319 1.7638 2.27351 1.7638V1.80928L7.13928 7.85739H1.18212C1.18212 7.85739 1.17454 7.85739 1.15938 7.85739C1.14422 7.85739 1.13664 7.85739 1.13664 7.85739V7.90286H1.00022L0.954745 7.94834H0.909271L0.863796 7.99381H0.818322C0.818322 8.02413 0.810743 8.03928 0.795584 8.03928C0.780426 8.03928 0.772847 8.04686 0.772847 8.06202C0.772847 8.07718 0.772847 8.08476 0.772847 8.08476H0.727373V8.13023H0.681898V8.17571H0.636424V8.22118C0.606107 8.22118 0.590949 8.22118 0.590949 8.22118V8.31213H0.545475V8.44855H0.5V8.63046V8.76688C0.5 8.79719 0.515158 8.81235 0.545475 8.81235V8.85783V8.9033C0.545475 8.93362 0.560633 8.94878 0.590949 8.94878V8.99425C0.590949 8.99425 0.590949 9.00183 0.590949 9.01699C0.590949 9.03215 0.606107 9.03972 0.636424 9.03972V9.0852H0.681898V9.13067L0.727373 9.17615H0.772847C0.772847 9.17615 0.772847 9.19131 0.772847 9.22162H0.818322V9.2671L18.2805 21.9545L15.0973 42.5544V42.8273V42.8728C15.1276 42.8728 15.1428 42.8728 15.1428 42.8728V42.9637C15.1428 42.9637 15.1428 42.9713 15.1428 42.9864C15.1428 43.0016 15.158 43.0092 15.1883 43.0092V43.0547L15.2337 43.1001V43.1456H15.2792V43.1911C15.3095 43.1911 15.3247 43.2062 15.3247 43.2366H15.3702V43.282H15.4611C15.4611 43.3123 15.4687 43.3275 15.4839 43.3275C15.499 43.3275 15.5066 43.3275 15.5066 43.3275C15.5066 43.3275 15.5142 43.3351 15.5293 43.3502C15.5445 43.3654 15.5596 43.373 15.5748 43.373C15.59 43.373 15.6051 43.373 15.6203 43.373C15.6354 43.373 15.643 43.3881 15.643 43.4185H15.734H15.8249L16.1432 43.373C16.1432 43.373 16.1508 43.3654 16.166 43.3502C16.1811 43.3351 16.2039 43.3275 16.2342 43.3275V43.282C16.2645 43.282 16.2872 43.2745 16.3024 43.2593C16.3176 43.2441 16.3251 43.2366 16.3251 43.2366L16.4161 43.1911V43.1456L16.4616 43.1001C16.4616 43.1001 16.4691 43.0926 16.4843 43.0774C16.4995 43.0622 16.507 43.0471 16.507 43.0319C16.507 43.0168 16.507 43.0092 16.507 43.0092L22.0549 31.9134L40.4721 23.9099L40.5176 23.8644H40.563C40.563 23.8341 40.5706 23.8189 40.5858 23.8189C40.6009 23.8189 40.6085 23.8189 40.6085 23.8189H40.654C40.654 23.8189 40.654 23.8114 40.654 23.7962C40.654 23.781 40.654 23.7735 40.654 23.7735C40.654 23.7735 40.6616 23.7735 40.6767 23.7735C40.6919 23.7735 40.6995 23.7659 40.6995 23.7507C40.6995 23.7356 40.6995 23.728 40.6995 23.728H40.7449V23.6825V23.637H40.7904V23.5916C40.8207 23.5916 40.8359 23.584 40.8359 23.5688C40.8359 23.5537 40.8359 23.5461 40.8359 23.5461V23.5006L40.8814 23.4551V23.4097L44.292 12.6322H51.4769H51.6588C51.6588 12.6019 51.674 12.5867 51.7043 12.5867H51.7953L51.8407 12.5413L51.9317 12.4958L51.9772 12.4503C52.0075 12.4503 52.0226 12.4352 52.0226 12.4048L52.0681 12.3594C52.0681 12.3594 52.0757 12.3518 52.0908 12.3366C52.106 12.3215 52.1136 12.2987 52.1136 12.2684ZM43.7463 9.35805L39.8355 21.6362L34.0147 14.5421L43.7463 9.35805ZM4.72913 2.44592L24.5105 5.99293L18.8717 20.09L4.72913 2.44592ZM38.4257 22.3183L20.1905 20.9086L25.7838 6.85695L38.4257 22.3183ZM22.0549 30.2763L20.0995 22.4092L37.0615 23.728L22.0549 30.2763ZM20.6907 31.2313L17.3256 38.007L19.281 25.456L20.6907 31.2313ZM14.9609 17.6344L3.59227 9.40352H8.36709L14.9609 17.6344ZM45.4288 8.99425L48.8394 11.1316H44.7467L45.4288 8.99425Z" fill="currentColor"/>
</svg>
