<svg width="39" height="38" viewBox="0 0 39 38" fill="currentColor" xmlns="http://www.w3.org/2000/svg">
<path d="M31.4981 0.40731C30.7251 0.58189 30.0021 0.931049 29.3289 1.45479C28.6557 1.97853 28.1445 2.58956 27.7955 3.28788C26.9727 4.95886 26.9727 6.64231 27.7955 8.33823C28.2443 9.23607 28.9237 9.96556 29.8338 10.5267C30.7438 11.0879 31.6975 11.3684 32.6949 11.3684C33.9914 11.3684 35.1508 10.9445 36.1731 10.0965C37.1953 9.24854 37.8436 8.19482 38.1179 6.93535C38.3921 5.67588 38.2301 4.485 37.6317 3.3627C37.0831 2.26534 36.2479 1.42985 35.1259 0.856228C33.9789 0.282608 32.7697 0.132969 31.4981 0.40731ZM33.7795 2.39004C34.328 2.58956 34.808 2.89507 35.2194 3.30658C35.6308 3.71809 35.9362 4.19819 36.1357 4.74687C36.385 5.47013 36.3663 6.21833 36.0796 6.99147C35.7928 7.76461 35.3253 8.36317 34.6771 8.78715C34.0787 9.21113 33.4179 9.42312 32.6949 9.42312C31.6975 9.42312 30.8498 9.07396 30.1517 8.37564C29.4535 7.67732 29.1045 6.82936 29.1045 5.83176C29.1045 5.05862 29.3351 4.35406 29.7964 3.71809C30.2576 3.08212 30.8747 2.62697 31.6477 2.35263C31.897 2.27781 32.2523 2.2404 32.7136 2.2404C33.1748 2.2404 33.5301 2.29028 33.7795 2.39004ZM2.81228 2.80155C2.01441 3.02601 1.41601 3.53728 1.01708 4.33536L0.830078 4.74687V35.6849L1.01708 36.0964C1.31628 36.695 1.76508 37.1439 2.36348 37.4432L2.84968 37.7051H33.7795L34.2657 37.4432C34.8641 37.1439 35.3129 36.695 35.6121 36.0964L35.7991 35.6849L35.8739 14.2864L35.5747 14.0245C35.4749 13.9248 35.3814 13.8562 35.2942 13.8188C35.2069 13.7814 35.0822 13.7627 34.9202 13.7627C34.7581 13.7627 34.6334 13.7814 34.5462 13.8188C34.4589 13.8562 34.3654 13.9248 34.2657 14.0245L34.0039 14.2864L33.9665 24.7612V35.2734L33.6673 35.5727L33.3681 35.8346H3.26108L2.70008 35.2734V5.15838L2.96188 4.8591L3.26108 4.55982H13.7705L24.2425 4.52241L24.5043 4.26054C24.7037 4.08596 24.8035 3.87397 24.8035 3.62457C24.8035 3.37517 24.7037 3.15071 24.5043 2.95119L24.2425 2.68932H13.7331C6.75174 2.68932 3.11148 2.72673 2.81228 2.80155ZM22.5221 19.0749L19.4179 22.1425L17.4357 20.1598L15.4161 18.1771H14.5559L7.41248 25.3224V25.7339C7.41248 25.8835 7.43118 26.002 7.46858 26.0893C7.50598 26.1766 7.58078 26.2763 7.69298 26.3886C7.80518 26.5008 7.90491 26.5756 7.99218 26.613C8.07944 26.6504 8.21034 26.6691 8.38488 26.6691H8.79628L11.9005 23.5641L15.0047 20.4965L16.9869 22.4792L19.0065 24.4619H19.8667L27.0101 17.3166V16.9051C27.0101 16.7555 26.9914 16.637 26.954 16.5497C26.9166 16.4624 26.8418 16.3627 26.7296 16.2504C26.6174 16.1382 26.5176 16.0634 26.4304 16.026C26.3431 15.9886 26.2122 15.9699 26.0377 15.9699H25.6263L22.5221 19.0749Z" fill="currentColor"/>
</svg>
