<svg width="40" height="40" viewBox="0 0 40 40" fill="none" xmlns="http://www.w3.org/2000/svg">
<path d="M30.2229 0.807289C30.3017 0.781013 30.3674 0.781013 30.4199 0.807289L38.1029 1.75313C38.3918 1.80568 38.6282 1.95018 38.8121 2.18664C38.996 2.4231 39.0748 2.68583 39.0485 2.97484L38.1423 10.6598C38.0898 10.9488 37.9453 11.1918 37.7089 11.3889C37.4725 11.5859 37.2033 11.6713 36.9012 11.645C36.5991 11.6188 36.3496 11.4743 36.1526 11.2115C35.9556 10.9488 35.8834 10.6729 35.9359 10.3839L36.5269 5.33944L20.9639 17.5565V35.4487L24.5493 31.8624C24.8382 31.6259 25.1206 31.5142 25.3964 31.5274C25.6722 31.5405 25.9152 31.6522 26.1253 31.8624C26.3354 32.0726 26.4405 32.3287 26.4405 32.6309C26.4405 32.933 26.3354 33.1892 26.1253 33.3994L20.6487 38.8773C20.4386 39.0875 20.1759 39.1926 19.8607 39.1926C19.5455 39.1926 19.2828 39.0875 19.0727 38.8773L13.5961 33.3994C13.386 33.1892 13.2809 32.933 13.2809 32.6309C13.2809 32.3287 13.386 32.066 13.5961 31.8427C13.8062 31.6193 14.0689 31.5077 14.3841 31.5077C14.6993 31.5077 14.962 31.6259 15.1721 31.8624L18.7575 35.4093V17.5565C16.2359 15.5598 12.4272 12.5777 7.33149 8.61047L3.19449 5.37885L3.78549 10.3839C3.83803 10.6729 3.77236 10.9488 3.58849 11.2115C3.40463 11.4743 3.16166 11.6188 2.85959 11.645C2.55753 11.6713 2.28173 11.5859 2.03219 11.3889C1.78266 11.1918 1.64476 10.9488 1.61849 10.6598L0.672894 2.97484C0.646627 2.68583 0.725427 2.4231 0.909294 2.18664C1.09316 1.95018 1.32956 1.80568 1.61849 1.75313L9.30149 0.807289C9.61669 0.781013 9.89249 0.859837 10.1289 1.04375C10.3653 1.22766 10.4966 1.47069 10.5229 1.77283C10.5492 2.07498 10.4704 2.34428 10.2865 2.58074C10.1026 2.8172 9.86623 2.9617 9.57729 3.01425L4.53409 3.6054C11.3634 8.91261 16.4592 12.9062 19.8213 15.586L35.1873 3.6054L30.1441 3.01425C29.8552 2.9617 29.6188 2.8172 29.4349 2.58074C29.251 2.34428 29.1722 2.06841 29.1985 1.75313C29.2248 1.49039 29.3364 1.26707 29.5334 1.08316C29.7304 0.899246 29.9602 0.807289 30.2229 0.807289Z" fill="#909090"/>
</svg>
