<?xml version="1.0" standalone="no"?>
<!DOCTYPE svg PUBLIC "-//W3C//DTD SVG 1.1//EN" "http://www.w3.org/Graphics/SVG/1.1/DTD/svg11.dtd" >
<svg xmlns="http://www.w3.org/2000/svg" xmlns:xlink="http://www.w3.org/1999/xlink" version="1.1">
<metadata>
Created by FontForge 20201107 at Tue Mar 16 11:56:20 2021
 By 
Copyright 2019-2021 Indian Type Foundry. All rights reserved.
</metadata>
<defs>
<font id="ChillaxVariable-Bold" horiz-adv-x="708" >
  <font-face 
    font-family="Chillax Variable"
    font-weight="700"
    font-stretch="normal"
    units-per-em="1000"
    panose-1="0 0 0 0 0 0 0 0 0 0"
    ascent="800"
    descent="-200"
    x-height="500"
    cap-height="675"
    bbox="-233 -327 1629 980"
    underline-thickness="110"
    underline-position="-115"
    unicode-range="U+0020-FB02"
  />
<missing-glyph horiz-adv-x="553" 
d="M175 108h203v487h-203v-487zM60 0v720h433v-720h-433z" />
    <glyph glyph-name="fi" unicode="fi" horiz-adv-x="667" 
d="M435 500h180v-500h-180v500zM285 0h-180v503q0 67 26 121t79 86t134 32q26 0 51.5 -4.5t44.5 -12.5v-173q-18 10 -39 15t-40 5q-35 0 -55.5 -19.5t-20.5 -55.5v-497zM540 350h-520v150h520v-150z" />
    <glyph glyph-name="fl" unicode="fl" horiz-adv-x="725" 
d="M285 0h-180v493q0 67 30.5 123.5t87.5 91t136 34.5q34 0 77.5 -4.5t88.5 -20.5t83 -51l-82 -132q-27 26 -60.5 40t-74.5 14q-58 0 -82 -23.5t-24 -67.5v-497zM399 350h-379v150h379v-150zM655 0h-180v730h180v-730z" />
    <glyph glyph-name=".notdef" horiz-adv-x="553" 
d="M175 108h203v487h-203v-487zM60 0v720h433v-720h-433z" />
    <glyph glyph-name=".null" horiz-adv-x="0" 
 />
    <glyph glyph-name="nonmarkingreturn" horiz-adv-x="333" 
 />
    <glyph glyph-name="space" unicode=" " horiz-adv-x="280" 
 />
    <glyph glyph-name="exclam" unicode="!" horiz-adv-x="386" 
d="M104 675h185v-438h-185v438zM193 -12q-42 0 -72.5 30.5t-30.5 72.5t30.5 72.5t72.5 30.5t72.5 -30.5t30.5 -72.5t-30.5 -72.5t-72.5 -30.5z" />
    <glyph glyph-name="quotedbl" unicode="&#x22;" horiz-adv-x="595" 
d="M245 714v-347h-175v347h175zM525 714v-347h-175v347h175z" />
    <glyph glyph-name="numbersign" unicode="#" horiz-adv-x="907" 
d="M117 0l203 675h165l-203 -675h-165zM431 0l203 675h165l-203 -675h-165zM867 569v-155h-767v155h767zM807 256v-155h-767v155h767z" />
    <glyph glyph-name="dollar" unicode="$" horiz-adv-x="620" 
d="M404 785v-248h-175v248h175zM391 137v-248h-175v248h175zM311 -16q-96 0 -167.5 39t-106.5 114l154 77q14 -31 43.5 -45.5t76.5 -14.5q25 0 44 5t30.5 15.5t11.5 26.5q0 20 -12.5 30t-35 15.5t-53.5 9.5q-38 6 -81 17.5t-81.5 35t-62.5 63t-24 99.5q0 62 34 111.5
t93 78.5t134 29q89 0 159.5 -39t104.5 -114l-154 -77q-14 25 -42.5 42.5t-75.5 17.5q-22 0 -37 -4.5t-23 -14t-8 -23.5q0 -19 14 -30.5t38.5 -18t57.5 -11.5q38 -6 79.5 -17.5t78 -35t59.5 -62.5t23 -100q0 -62 -36.5 -111.5t-98 -78.5t-136.5 -29z" />
    <glyph glyph-name="percent" unicode="%" horiz-adv-x="948" 
d="M390 0h-180l346 675h180zM196 292q-51 0 -89.5 25.5t-60 69.5t-21.5 100q0 57 21.5 101.5t60 70t89.5 25.5q52 0 90 -25.5t59.5 -70t21.5 -101.5q0 -56 -21.5 -100t-59.5 -69.5t-90 -25.5zM196 412q14 0 24.5 9.5t16 26.5t5.5 39q0 35 -12.5 56t-33.5 21t-33.5 -21
t-12.5 -56q0 -34 12.5 -54.5t33.5 -20.5zM752 -10q-51 0 -89.5 25.5t-60 69.5t-21.5 100q0 57 21.5 101.5t60 70t89.5 25.5q52 0 90 -25.5t59.5 -70t21.5 -101.5q0 -56 -21.5 -100t-59.5 -69.5t-90 -25.5zM752 110q14 0 24.5 9.5t16 26.5t5.5 39q0 35 -12.5 56t-33.5 21
t-33.5 -21t-12.5 -56q0 -34 12.5 -54.5t33.5 -20.5z" />
    <glyph glyph-name="ampersand" unicode="&#x26;" horiz-adv-x="791" 
d="M236 405l87 -121q-28 -2 -48.5 -12t-31 -26.5t-10.5 -37.5q0 -18 10 -33.5t29.5 -24.5t47.5 -9q57 0 107 34.5t86.5 89.5t54.5 117l154 -70q-35 -91 -93 -165t-140.5 -118t-189.5 -44q-82 0 -140 27.5t-88.5 76t-30.5 110.5q0 43 20 83.5t63 73t113 49.5zM403 515
q-18 0 -29 -6.5t-16.5 -16.5t-5.5 -21q0 -22 21 -48.5t69 -75.5l339 -347h-249l-241 254q-32 34 -63 71.5t-51.5 78.5t-20.5 86q0 57 28 102t78.5 71.5t118.5 26.5q87 0 151 -39.5t97 -111.5l-145 -85q-13 28 -34.5 44.5t-46.5 16.5z" />
    <glyph glyph-name="quotesingle" unicode="'" horiz-adv-x="315" 
d="M245 714v-347h-175v347h175z" />
    <glyph glyph-name="parenleft" unicode="(" horiz-adv-x="422" 
d="M60 270q0 114 41 208.5t117 160.5t181 91v-187q-73 -35 -110 -102t-37 -171q0 -97 37 -167t110 -105v-187q-105 26 -181 93t-117 162t-41 204z" />
    <glyph glyph-name="parenright" unicode=")" horiz-adv-x="422" 
d="M362 270q0 -109 -41 -204t-117 -162t-181 -93v187q73 35 110 105t37 167q0 104 -37 171t-110 102v187q105 -25 181 -91t117 -160.5t41 -208.5z" />
    <glyph glyph-name="asterisk" unicode="*" horiz-adv-x="613" 
d="M400 273q-34 0 -55 25.5t-28 61.5l-24 117l29 20l104 -58q26 -14 43.5 -35.5t17.5 -48.5q0 -21 -12.5 -40t-32.5 -30.5t-42 -11.5zM215 272q-21 0 -41 11.5t-33 30t-13 40.5q0 29 19 50t42 34l104 59l28 -21l-23 -117q-9 -39 -29.5 -63t-53.5 -24zM312 503l-11 -33
l-119 -14q-47 -6 -79.5 15t-32.5 62q0 33 22.5 60t56.5 27q21 0 41.5 -11.5t33.5 -24.5zM324 487h-35l-50 109q-6 13 -10 28t-4 29q0 34 22.5 56t59.5 22q36 0 58.5 -22t22.5 -55q0 -15 -4 -29.5t-10 -28.5zM312 471l-10 33l87 81q16 14 37 25t40 11q33 0 55 -26t22 -61
q0 -29 -16.5 -48t-42.5 -26t-53 -3z" />
    <glyph glyph-name="plus" unicode="+" horiz-adv-x="685" 
d="M250 601h185v-530h-185v530zM615 421v-170h-545v170h545z" />
    <glyph glyph-name="comma" unicode="," horiz-adv-x="356" 
d="M204 -193h-116l36 289l158 -29zM178 -12q-29 0 -54 14.5t-39.5 39.5t-14.5 54q0 30 14.5 54.5t39.5 39t54 14.5q30 0 54.5 -14.5t39 -39t14.5 -54.5q0 -29 -14.5 -54t-39 -39.5t-54.5 -14.5z" />
    <glyph glyph-name="hyphen" unicode="-" horiz-adv-x="607" 
d="M497 386v-160h-387v160h387z" />
    <glyph glyph-name="period" unicode="." horiz-adv-x="356" 
d="M178 -12q-29 0 -54 14.5t-39.5 39.5t-14.5 54q0 30 14.5 54.5t39.5 39t54 14.5q30 0 54.5 -14.5t39 -39t14.5 -54.5q0 -29 -14.5 -54t-39 -39.5t-54.5 -14.5z" />
    <glyph glyph-name="slash" unicode="/" horiz-adv-x="365" 
d="M-70 -190l270 920h185l-270 -920h-185z" />
    <glyph glyph-name="zero" unicode="0" horiz-adv-x="702" 
d="M351 -16q-68 0 -123.5 27t-95 75t-61 112t-21.5 139q0 78 21.5 142.5t61 112t95 73t123.5 25.5t123.5 -25.5t95 -73t61 -112t21.5 -142.5q0 -75 -21.5 -139t-61 -112t-95 -75t-123.5 -27zM351 174q22 0 42 12.5t35.5 35t24.5 52t9 63.5q0 38 -9 68t-24.5 51t-35.5 32.5
t-42 11.5t-42 -11.5t-35.5 -32.5t-24.5 -51t-9 -68q0 -45 15.5 -82t41 -59t54.5 -22z" />
    <glyph glyph-name="one" unicode="1" horiz-adv-x="519" 
d="M419 0h-185v459q0 -7 6 -7h2.5t2.5 1l-150 -76l-85 177l197 101q29 15 58.5 25t54.5 10q45 0 72 -28t27 -81v-581z" />
    <glyph glyph-name="two" unicode="2" horiz-adv-x="580" 
d="M545 0h-377q-58 0 -87 28.5t-29 68.5q0 33 13.5 59t41.5 50l164 141q35 30 53 53.5t18 54.5q0 16 -8 29.5t-24 22.5t-39 9q-39 0 -67.5 -25t-42.5 -58l-140 79q21 50 59 90.5t90.5 64t116.5 23.5q71 0 125 -30t84.5 -79.5t30.5 -108.5q0 -66 -24 -113.5t-69 -86.5
l-140 -122q2 2 3.5 4.5t1.5 4.5q0 5 -4 8t-10 3h260v-170z" />
    <glyph glyph-name="three" unicode="3" horiz-adv-x="569" 
d="M46 505v170h345q59 0 89.5 -28.5t30.5 -68.5q0 -24 -12.5 -49t-34.5 -51l-100 -119q4 5 5.5 9.5t1.5 8.5q0 8 -5.5 14t-16.5 6h28q40 0 75.5 -24.5t58 -66.5t22.5 -96q0 -64 -31.5 -115.5t-88.5 -81t-134 -29.5q-88 0 -155 38t-104 117l159 84q14 -37 42 -55t61 -18
q21 0 36.5 8t24 22t8.5 32q0 27 -21.5 44t-54.5 17h-29q-36 0 -56.5 19t-21.5 46q0 17 9 34.5t25 36.5l93 109q-1 -1 -2 -2.5t-1 -3.5q0 -3 2 -5t5 -2h-253z" />
    <glyph glyph-name="four" unicode="4" horiz-adv-x="629" 
d="M519 0h-180v444q0 -9 9 -9q2 0 5 1.5t4 3.5l-176 -229q3 4 4.5 7.5t1.5 7.5q0 6 -4 10t-14 4h440v-150h-468q-61 0 -93 29t-32 71q0 21 8.5 44.5t26.5 46.5l266 345q25 32 51 48t61 16q37 0 63.5 -23t26.5 -71v-596z" />
    <glyph glyph-name="five" unicode="5" horiz-adv-x="560" 
d="M279 -15q-87 0 -151.5 37t-97.5 101l150 94q14 -33 39 -52.5t60 -19.5q21 0 36.5 8t24 22.5t8.5 31.5q0 36 -21 51.5t-61 15.5h-91q-58 0 -90.5 32t-32.5 89v281h437v-160h-277v-105q0 8 -3.5 13t-13.5 5h102q109 0 171 -51t62 -159q0 -69 -31.5 -121.5t-88 -82.5
t-131.5 -30z" />
    <glyph glyph-name="six" unicode="6" horiz-adv-x="585" 
d="M292 -16q-82 0 -140.5 33t-90 87t-31.5 117q0 55 19 104.5t57 116.5l134 233h206l-192 -341l-128 -15q0 39 27 71t69.5 50.5t89.5 18.5q69 0 124 -26t87 -75.5t32 -119.5q0 -74 -33 -131.5t-92 -90t-138 -32.5zM290 143q26 0 45 12t29.5 32t10.5 44q0 21 -10.5 40.5
t-29.5 31.5t-45 12q-25 0 -44.5 -12.5t-30 -32.5t-10.5 -41q0 -24 10.5 -43.5t30 -31t44.5 -11.5z" />
    <glyph glyph-name="seven" unicode="7" horiz-adv-x="512" 
d="M286 0h-202l214 533q-1 -4 -2 -7t-1 -6q0 -15 24 -15h-299v170h329q68 0 104 -30t36 -82q0 -34 -17 -79z" />
    <glyph glyph-name="eight" unicode="8" horiz-adv-x="670" 
d="M335 -15q-88 0 -151 24t-96 69t-33 107q0 42 18.5 78t54.5 58t88 22v-18q-53 0 -86.5 21.5t-49 56.5t-15.5 75q0 64 34 111t95 73.5t142 26.5q82 0 142 -26.5t93.5 -73.5t33.5 -111q0 -40 -15.5 -75t-48.5 -56.5t-87 -21.5v18q53 0 88.5 -21.5t54 -57t18.5 -77.5
q0 -62 -33 -107.5t-95.5 -70t-151.5 -24.5zM335 140q47 0 71 18t24 47q0 19 -11.5 33t-32.5 22t-51 8q-29 0 -50.5 -8t-33 -22t-11.5 -33q0 -29 24.5 -47t70.5 -18zM335 399q40 0 62.5 18.5t22.5 51.5q0 19 -10.5 33.5t-29.5 23t-46 8.5q-26 0 -45 -8.5t-29 -23t-10 -33.5
q0 -33 22.5 -51.5t62.5 -18.5z" />
    <glyph glyph-name="nine" unicode="9" horiz-adv-x="595" 
d="M303 690q82 0 140.5 -33t90 -86.5t31.5 -117.5q0 -36 -9 -69.5t-26 -69.5t-41 -82l-118 -232h-206l176 340h128q-14 -58 -67 -91.5t-119 -33.5q-67 0 -122 26.5t-88 76t-33 118.5q0 75 33 132t92 89.5t138 32.5zM305 531q-25 0 -44.5 -12t-30 -32t-10.5 -44q0 -21 10 -40
t29 -31.5t46 -12.5q26 0 45 12.5t29.5 32.5t10.5 41q0 24 -10.5 43.5t-29.5 31t-45 11.5z" />
    <glyph glyph-name="colon" unicode=":" horiz-adv-x="356" 
d="M178 -12q-29 0 -54 14.5t-39.5 39.5t-14.5 54q0 30 14.5 54.5t39.5 39t54 14.5q30 0 54.5 -14.5t39 -39t14.5 -54.5q0 -29 -14.5 -54t-39 -39.5t-54.5 -14.5zM178 296q-29 0 -54 14.5t-39.5 39.5t-14.5 54q0 30 14.5 54.5t39.5 39t54 14.5q30 0 54.5 -14.5t39 -39
t14.5 -54.5q0 -29 -14.5 -54t-39 -39.5t-54.5 -14.5z" />
    <glyph glyph-name="semicolon" unicode=";" horiz-adv-x="356" 
d="M204 -193h-116l36 289l158 -29zM178 -12q-29 0 -54 14.5t-39.5 39.5t-14.5 54q0 30 14.5 54.5t39.5 39t54 14.5q30 0 54.5 -14.5t39 -39t14.5 -54.5q0 -29 -14.5 -54t-39 -39.5t-54.5 -14.5zM178 296q-29 0 -54 14.5t-39.5 39.5t-14.5 54q0 30 14.5 54.5t39.5 39t54 14.5
q30 0 54.5 -14.5t39 -39t14.5 -54.5q0 -29 -14.5 -54t-39 -39.5t-54.5 -14.5z" />
    <glyph glyph-name="less" unicode="&#x3c;" horiz-adv-x="625" 
d="M545 253v-190l-345 101q-58 17 -88 45t-41 61.5t-11 65.5q0 33 11 66t41 61t88 45l345 101v-190l-332 -91q-10 -3 -16.5 -1t-6.5 10q0 7 6 8.5t17 -1.5z" />
    <glyph glyph-name="equal" unicode="=" horiz-adv-x="645" 
d="M575 561v-170h-505v170h505zM575 281v-170h-505v170h505z" />
    <glyph glyph-name="greater" unicode="&#x3e;" horiz-adv-x="625" 
d="M425 164l-345 -101v190l332 91q11 3 17 1.5t6 -8.5q0 -8 -6.5 -10t-16.5 1l-332 91v190l345 -101q58 -17 88 -45t41 -61t11 -66q0 -32 -11 -65.5t-41 -61.5t-88 -45z" />
    <glyph glyph-name="question" unicode="?" horiz-adv-x="573" 
d="M361 237h-203q1 36 16.5 60.5t38.5 42.5t46 33t38.5 32t15.5 39q0 16 -8 28.5t-22 19.5t-33 7q-34 0 -58.5 -19t-40.5 -50l-154 88q18 45 54 84t88.5 63t117.5 24q75 0 131.5 -28t88 -77.5t31.5 -114.5q0 -47 -15 -78.5t-36.5 -52.5t-43.5 -37t-37 -30.5t-15 -33.5z
M255 -12q-42 0 -72.5 30.5t-30.5 72.5t30.5 72.5t72.5 30.5t72.5 -30.5t30.5 -72.5t-30.5 -72.5t-72.5 -30.5z" />
    <glyph glyph-name="at" unicode="@" horiz-adv-x="1113" 
d="M527 19q-62 0 -110 30t-74.5 81t-26.5 113q0 65 32.5 119t87.5 86.5t124 32.5q71 0 124 -28.5t83 -77t30 -109.5v-105h19q26 0 45.5 15t30.5 44t11 72q0 56 -22.5 107.5t-65 93t-104.5 65.5t-140 24q-82 0 -148.5 -27.5t-114 -75.5t-73 -111t-25.5 -134q0 -67 21.5 -125
t61.5 -101t94.5 -67.5t120.5 -24.5q53 0 98 12t96 40l60 -116q-64 -40 -130.5 -55.5t-132.5 -15.5q-95 0 -174.5 34.5t-137.5 96t-90 143.5t-32 176q0 102 37.5 190.5t106 154.5t161 103.5t203.5 37.5q104 0 191 -33t150.5 -91.5t98.5 -135t35 -163.5q0 -81 -32 -141
t-86 -93.5t-119 -33.5h-145v179l44 -20q0 -53 -24.5 -90t-66 -56.5t-92.5 -19.5zM555 166q25 0 44 12t29.5 32t10.5 42q0 23 -10 41.5t-28 29.5t-43 11t-44 -11.5t-29.5 -31t-10.5 -43.5q0 -22 10 -41t28.5 -30t42.5 -11z" />
    <glyph glyph-name="A" unicode="A" 
d="M557 114h-387v165h387v-165zM15 0l174 568q19 62 66 92t99 30q53 0 99.5 -30t65.5 -92l174 -568h-189l-141 514q-3 10 -8 10t-8 -10l-143 -514h-189z" />
    <glyph glyph-name="B" unicode="B" horiz-adv-x="690" 
d="M363 0h-283v675h283q128 0 200 -52t72 -139q0 -55 -27 -93t-73 -57.5t-105 -19.5v35q56 0 104 -13t77 -47.5t29 -97.5q0 -47 -20 -83t-56.5 -60t-87.5 -36t-113 -12zM265 258v-108h108q20 0 35 3t25.5 9.5t16 16.5t5.5 25q0 32 -21.5 43t-60.5 11h-108zM265 525v-117h108
q39 0 58 16t19 45q0 26 -18.5 41t-58.5 15h-108z" />
    <glyph glyph-name="C" unicode="C" horiz-adv-x="678" 
d="M386 -15q-76 0 -140.5 27t-113 75t-75.5 112t-27 138t27 138t75.5 112t113 75t140.5 27q60 0 116.5 -20.5t101.5 -59.5t69 -95l-151 -84q-21 38 -53 61t-91 23q-36 0 -65 -13t-50 -36.5t-32 -56t-11 -71.5t11 -71.5t31.5 -56t50 -36.5t65.5 -13q59 0 92 23.5t52 60.5
l151 -84q-24 -55 -69 -94.5t-101.5 -60t-116.5 -20.5z" />
    <glyph glyph-name="D" unicode="D" horiz-adv-x="755" 
d="M715 335q0 -77 -27 -138.5t-76 -105.5t-116.5 -67.5t-148.5 -23.5h-267v675h267q111 0 193.5 -42.5t128.5 -118.5t46 -179zM525 335q0 51 -22 89t-62 59.5t-94 21.5h-82v-340h82q41 0 73.5 12t56 34.5t36 54t12.5 69.5z" />
    <glyph glyph-name="E" unicode="E" horiz-adv-x="631" 
d="M581 0h-351q-85 0 -122.5 42t-37.5 113v365q0 71 37.5 113t122.5 42h346v-165h-321v-345h326v-165zM553 255h-338l-25 165h363v-165z" />
    <glyph glyph-name="F" unicode="F" horiz-adv-x="600" 
d="M260 0h-185v520q0 71 37.5 113t122.5 42h340v-170h-315v-505zM552 204h-332l-25 170h357v-170z" />
    <glyph glyph-name="G" unicode="G" horiz-adv-x="722" 
d="M386 -15q-76 0 -140.5 27t-113 75t-75.5 112t-27 138t26.5 138t75 112t113.5 75t141 27q60 0 116.5 -20t101.5 -59t69 -96l-151 -84q-14 26 -32.5 45t-45.5 29.5t-66 10.5q-36 0 -65 -13.5t-50 -37.5t-32 -57t-11 -73q0 -42 11.5 -75.5t33 -57.5t52.5 -36.5t69 -12.5
q27 0 48 2.5t38 9t31 19.5l-1 139h180v-200q-26 -40 -69.5 -71t-101 -48.5t-125.5 -17.5z" />
    <glyph glyph-name="H" unicode="H" horiz-adv-x="795" 
d="M265 0h-185v675h185v-254h265v254h185v-675h-185v251h-265v-251z" />
    <glyph glyph-name="I" unicode="I" horiz-adv-x="345" 
d="M80 675h185v-675h-185v675z" />
    <glyph glyph-name="J" unicode="J" horiz-adv-x="396" 
d="M5 -10v175q77 0 104 24t27 69l-1 417h186v-403q0 -136 -76.5 -209t-239.5 -73z" />
    <glyph glyph-name="K" unicode="K" horiz-adv-x="742" 
d="M732 0h-225l-131 194q-25 38 -39 73.5t-14 69.5q0 35 13 70.5t40 72.5l142 195h208l-175 -243q-21 -29 -31.5 -49t-10.5 -39t10.5 -39t31.5 -50zM265 0h-185v675h185v-675zM403 421v-170h-197v170h197z" />
    <glyph glyph-name="L" unicode="L" horiz-adv-x="573" 
d="M265 675v-505h298v-170h-323q-85 0 -122.5 42t-37.5 113v520h185z" />
    <glyph glyph-name="M" unicode="M" horiz-adv-x="1027" 
d="M228 0h-188l89 567q10 60 49.5 91.5t100.5 31.5q53 0 93.5 -24.5t54.5 -80.5l97 -378q-2 6 -5 6q-2 0 -3 -2l-2 -4l96 375q14 56 56 82t96 26q59 0 97.5 -32t47.5 -94l80 -564h-187l-57 502l2 -4t3 -2t3 2l2 4l-114 -416q-13 -45 -45.5 -67t-74.5 -22q-41 0 -75 21
t-45 64l-113 420l2 -4t3 -2t3 2l2 4z" />
    <glyph glyph-name="N" unicode="N" horiz-adv-x="790" 
d="M250 0h-175v576q0 36 16.5 62t43 39.5t55.5 13.5q35 0 64.5 -12.5t47.5 -41.5l291 -461q-9 11 -16 15t-15 4q-9 0 -15.5 -8t-6.5 -23v511h175v-576q0 -36 -16.5 -61.5t-42.5 -39t-56 -13.5q-34 0 -64 13t-48 41l-287 455q7 -9 13.5 -12.5t14.5 -3.5q10 0 15.5 8t5.5 24
v-510z" />
    <glyph glyph-name="O" unicode="O" horiz-adv-x="772" 
d="M386 -15q-76 0 -141 26.5t-113.5 74t-75 112t-26.5 139.5t26.5 139.5t75 112t113.5 74t141 26.5q77 0 141.5 -26.5t113 -74t75 -112t26.5 -139.5t-26.5 -139.5t-75 -112t-113 -74t-141.5 -26.5zM386 160q35 0 65.5 13.5t53 37.5t35 56.5t12.5 69.5q0 38 -12.5 70t-35 56
t-53 37.5t-65.5 13.5t-65.5 -13.5t-53 -37.5t-35 -56t-12.5 -70q0 -37 12.5 -69.5t35 -56.5t53 -37.5t65.5 -13.5z" />
    <glyph glyph-name="P" unicode="P" horiz-adv-x="681" 
d="M265 1l-185 -1v675h259q100 0 171 -30.5t108.5 -86.5t37.5 -135q0 -81 -36 -138.5t-104.5 -88.5t-166.5 -31h-125l25 170h95q42 0 69 10t40 30t13 48q0 27 -14 45t-41 27.5t-67 9.5h-79v-504z" />
    <glyph glyph-name="Q" unicode="Q" horiz-adv-x="803" 
d="M798 -15h-417v95q68 19 143 33.5t142.5 23t111.5 8.5h20v-160zM386 -15q-76 0 -141 26.5t-113.5 74t-75 112t-26.5 139.5t26.5 139.5t75 112t113.5 74t141 26.5q77 0 141.5 -26.5t113 -74t75 -112t26.5 -139.5t-26.5 -139.5t-75 -112t-113 -74t-141.5 -26.5zM386 160
q35 0 65.5 13.5t53 37.5t35 56.5t12.5 69.5q0 38 -12.5 70t-35 56t-53 37.5t-65.5 13.5t-65.5 -13.5t-53 -37.5t-35 -56t-12.5 -70q0 -37 12.5 -69.5t35 -56.5t53 -37.5t65.5 -13.5z" />
    <glyph glyph-name="R" unicode="R" horiz-adv-x="711" 
d="M263 0h-183v675h283q80 0 144 -25t101 -74.5t37 -124.5q0 -56 -24.5 -100.5t-68 -70.5t-102.5 -26l-50 35q60 0 94.5 -14t57.5 -46t50 -87l69 -142h-201l-63 127q-11 23 -25 37t-34 20t-50 6h-49v164h114q27 0 48 9.5t32.5 27t11.5 41.5q0 26 -11.5 42t-32 23.5
t-46.5 7.5h-100z" />
    <glyph glyph-name="S" unicode="S" horiz-adv-x="620" 
d="M311 -16q-96 0 -167.5 39t-106.5 114l154 77q14 -31 43.5 -45.5t76.5 -14.5q25 0 44 5t30.5 15.5t11.5 26.5q0 20 -12.5 30t-35 15.5t-53.5 9.5q-38 6 -81 17.5t-81.5 35t-62.5 63t-24 99.5q0 62 34 111.5t93 78.5t134 29q89 0 159.5 -39t104.5 -114l-154 -77
q-14 25 -42.5 42.5t-75.5 17.5q-22 0 -37 -4.5t-23 -14t-8 -23.5q0 -19 14 -30.5t38.5 -18t57.5 -11.5q38 -6 79.5 -17.5t78 -35t59.5 -62.5t23 -100q0 -62 -36.5 -111.5t-98 -78.5t-136.5 -29z" />
    <glyph glyph-name="T" unicode="T" horiz-adv-x="597" 
d="M206 675h185v-675h-185v675zM582 675v-170h-567v170h567z" />
    <glyph glyph-name="U" unicode="U" horiz-adv-x="745" 
d="M372 -12q-159 0 -233 83.5t-74 233.5v370h185v-365q0 -78 30.5 -112.5t91.5 -34.5q62 0 92.5 34.5t30.5 112.5v365h185v-370q0 -150 -75 -233.5t-233 -83.5z" />
    <glyph glyph-name="V" unicode="V" horiz-adv-x="688" 
d="M344 -16q-67 0 -107.5 34.5t-61.5 103.5l-170 553h189l147 -498q1 -2 2 -3t2 -1q2 0 2.5 1l1.5 3l145 498h189l-170 -553q-21 -69 -61 -103.5t-108 -34.5z" />
    <glyph glyph-name="W" unicode="W" horiz-adv-x="998" 
d="M130 110l-120 565h185l96 -508q-1 5 -3 8t-6 3t-6 -3t-4 -8l86 382q17 74 52 107.5t89 33.5t89.5 -33.5t51.5 -107.5l86 -382q-1 5 -3.5 7.5t-6.5 2.5t-6 -2.5t-3 -7.5l96 508h185l-120 -565q-13 -61 -51 -93.5t-93 -32.5q-49 0 -89 31.5t-53 86.5l-93 409q2 -4 4 -6.5
t6 -2.5t6.5 2t3.5 7l-93 -409q-13 -55 -52.5 -86.5t-89.5 -31.5q-55 0 -93 32.5t-51 93.5z" />
    <glyph glyph-name="X" unicode="X" horiz-adv-x="769" 
d="M764 0h-221l-103 184q-21 37 -31.5 76t-10.5 76q0 78 42 154l102 185h216l-144 -243q-18 -31 -26 -50.5t-8 -37.5q0 -17 7.5 -37t26.5 -52zM226 0h-221l150 255q19 32 26.5 52t7.5 37q0 18 -8 37.5t-26 50.5l-144 243h216l102 -185q42 -76 42 -154q0 -37 -10.5 -76
t-31.5 -76zM485 421v-170h-182v170h182z" />
    <glyph glyph-name="Y" unicode="Y" horiz-adv-x="668" 
d="M428 0h-185v295h185v-295zM169 291l-164 384h199l133 -333q2 -4 1 -5.5t-3 -1.5t-2.5 2t0.5 5l131 333h199l-164 -384q-25 -58 -70 -88t-95 -30q-49 0 -94 30t-71 88z" />
    <glyph glyph-name="Z" unicode="Z" horiz-adv-x="599" 
d="M545 170v-170h-353q-53 0 -86.5 20.5t-49.5 52.5t-16 68q0 32 12 63t35 54l256 259q-2 -2 -3.5 -4t-1.5 -4q0 -1 2.5 -2.5t6.5 -1.5h-290v170h345q51 0 86 -19.5t53 -50.5t18 -68q0 -30 -13 -61.5t-40 -58.5l-253 -257q2 2 2 3.5v2.5q0 2 -1.5 3t-5.5 1h297z" />
    <glyph glyph-name="bracketleft" unicode="[" horiz-adv-x="441" 
d="M401 -190h-161q-85 0 -122.5 42t-37.5 113v595q0 71 37.5 113t122.5 42h156v-170h-131v-570h136v-165z" />
    <glyph glyph-name="backslash" unicode="\" horiz-adv-x="365" 
d="M-20 730h185l270 -920h-185z" />
    <glyph glyph-name="bracketright" unicode="]" horiz-adv-x="441" 
d="M201 -190h-161v165h136v570h-131v170h156q86 0 123 -42t37 -113v-595q0 -71 -37 -113t-123 -42z" />
    <glyph glyph-name="asciicircum" unicode="^" horiz-adv-x="577" 
d="M206 311h-186l126 270q24 51 62 77t79 26t78.5 -25.5t62.5 -77.5l129 -270h-183l-93 194q-1 4 0.5 8t6.5 4t7 -4t0 -8z" />
    <glyph glyph-name="underscore" unicode="_" horiz-adv-x="527" 
d="M507 -12v-160h-487v160h487z" />
    <glyph glyph-name="grave" unicode="`" horiz-adv-x="390" 
d="M223 750l127 -177h-178l-132 177h183z" />
    <glyph glyph-name="a" unicode="a" horiz-adv-x="630" 
d="M275 -15q-73 0 -128 36t-86 96.5t-31 133.5t36.5 133t98.5 96t140 36q80 0 142 -34.5t97.5 -94t35.5 -136.5v-251h-170v175h50q0 -55 -22 -98t-63 -67.5t-100 -24.5zM305 154q29 0 50 13t33 35t12 48q0 27 -12 49t-33 35t-50 13q-28 0 -49.5 -13t-33.5 -35t-12 -49
q0 -26 12 -48t33.5 -35t49.5 -13z" />
    <glyph glyph-name="b" unicode="b" horiz-adv-x="630" 
d="M325 -15q-80 0 -142 34t-97.5 94t-35.5 136v481h180v-365h-84q0 39 27 73.5t70.5 55.5t91.5 21q80 0 139.5 -33t92.5 -93t33 -140q0 -72 -36 -132t-98.5 -96t-140.5 -36zM325 154q29 0 50 13t33 35t12 48t-12 48t-33 35t-50 13q-28 0 -49.5 -13t-33.5 -35t-12 -48t12 -48
t33.5 -35t49.5 -13z" />
    <glyph glyph-name="c" unicode="c" horiz-adv-x="563" 
d="M305 -14q-58 -1 -108.5 20t-87.5 57.5t-58 85t-21 102.5t21 102.5t58 85t87.5 57t108.5 19.5q75 -1 139.5 -36.5t98.5 -112.5l-149 -80q-12 26 -35 43t-54 17q-28 0 -49.5 -12.5t-33.5 -34t-12 -48.5q0 -26 12 -48t33.5 -35t49.5 -13q31 0 54 17.5t35 42.5l149 -80
q-34 -77 -98.5 -112.5t-139.5 -36.5z" />
    <glyph glyph-name="d" unicode="d" horiz-adv-x="630" 
d="M305 -15q-78 0 -140 36t-98.5 96t-36.5 132q0 80 33 140t93 93t139 33q49 0 92 -21t70 -55.5t27 -73.5h-84v365h180v-481q0 -76 -35.5 -136t-97.5 -94t-142 -34zM305 154q29 0 50 13t33 35t12 48t-12 48t-33 35t-50 13q-28 0 -49.5 -13t-33.5 -35t-12 -48t12 -48
t33.5 -35t49.5 -13z" />
    <glyph glyph-name="e" unicode="e" horiz-adv-x="591" 
d="M310 -14q-80 0 -143.5 33.5t-100 94t-36.5 142.5q0 72 33.5 132t93.5 96t139 36q82 0 139 -36t86.5 -94.5t29.5 -125.5v-45h-376l25 32q0 -34 13.5 -59.5t37.5 -39t57 -13.5q36 0 63.5 18t40.5 47l138 -69q-32 -70 -94 -109.5t-146 -39.5zM211 312h161q-4 14 -14.5 26.5
t-26.5 20t-37 7.5t-38 -7.5t-28 -19.5t-17 -27z" />
    <glyph glyph-name="f" unicode="f" horiz-adv-x="440" 
d="M285 0h-180v503q0 67 26 121t79 86t134 32q26 0 51.5 -4.5t44.5 -12.5v-163q-18 10 -39 15t-40 5q-35 0 -55.5 -19.5t-20.5 -55.5v-507zM429 350h-409v150h409v-150z" />
    <glyph glyph-name="g" unicode="g" horiz-adv-x="630" 
d="M290 -245q-93 0 -159 40t-101 113l149 80q12 -25 37 -47t71 -22q35 0 60 15t39 43.5t14 68.5v49h32q0 -19 -14.5 -42.5t-47.5 -40.5t-89 -17q-69 0 -126 33t-91 91t-34 133q0 73 36.5 132.5t98.5 95t140 35.5q80 0 142 -34t97.5 -93.5t35.5 -136.5v-198q0 -90 -38 -157
t-103.5 -104t-148.5 -37zM302 164q27 0 48.5 11.5t34 32.5t12.5 48t-12.5 47t-34 31.5t-48.5 11.5q-26 0 -48 -11.5t-34.5 -31.5t-12.5 -47t12.5 -48t34.5 -32.5t48 -11.5z" />
    <glyph glyph-name="h" unicode="h" horiz-adv-x="655" 
d="M250 0h-180v730h180v-365h-84q0 39 27.5 73.5t74 55.5t102.5 21q79 0 131 -30.5t78 -87.5t26 -138v-259l-180 1v239q0 28 -9.5 52t-28.5 39t-46 15q-28 0 -48.5 -13.5t-31.5 -37.5t-11 -55v-240z" />
    <glyph glyph-name="i" unicode="i" horiz-adv-x="320" 
d="M70 500h180v-500h-180v500zM160 553q-29 0 -54 14.5t-39.5 39.5t-14.5 54q0 30 14.5 54.5t39.5 39t54 14.5q30 0 54.5 -14.5t39 -39t14.5 -54.5q0 -29 -14.5 -54t-39 -39.5t-54.5 -14.5z" />
    <glyph glyph-name="j" unicode="j" horiz-adv-x="300" 
d="M70 500h180v-513q0 -67 -29 -118.5t-86.5 -81t-143.5 -29.5l-10 170q47 0 68 18.5t21 46.5v507zM161 553q-29 0 -54 14.5t-39.5 39.5t-14.5 54q0 30 14.5 54.5t39.5 39t54 14.5q30 0 54.5 -14.5t39 -39t14.5 -54.5q0 -29 -14.5 -54t-39 -39.5t-54.5 -14.5z" />
    <glyph glyph-name="k" unicode="k" horiz-adv-x="636" 
d="M630 0h-211l-120 165q-30 42 -30 88q0 47 30 87l119 160h213l-209 -268q3 5 5.5 10t2.5 11q0 5 -2.5 10.5t-5.5 9.5zM250 0h-180v730h180v-730zM222 187v130h119v-130h-119z" />
    <glyph glyph-name="l" unicode="l" horiz-adv-x="320" 
d="M70 730h180v-730h-180v730z" />
    <glyph glyph-name="m" unicode="m" horiz-adv-x="994" 
d="M689 520q86 0 142.5 -36t84.5 -94.5t28 -128.5v-261h-180v230q0 32 -8.5 58t-28 41.5t-52.5 15.5t-52 -15.5t-27.5 -41.5t-8.5 -58v-230h-180v230q0 32 -8 58t-27.5 41.5t-52.5 15.5t-52.5 -15.5t-28 -41.5t-8.5 -58v-230h-180v261q0 70 28 128.5t84.5 94.5t142.5 36
q66 0 113.5 -22.5t73 -63.5t25.5 -96h-40q0 55 28 96t76 63.5t108 22.5z" />
    <glyph glyph-name="n" unicode="n" horiz-adv-x="642" 
d="M321 340q-33 0 -53 -16t-29 -42t-9 -58v-224h-180v246q0 74 29 135t89 97.5t153 36.5t153 -36.5t89 -97.5t29 -135v-246h-180v224q0 32 -9 58t-29 42t-53 16z" />
    <glyph glyph-name="o" unicode="o" horiz-adv-x="610" 
d="M305 -15q-78 0 -140 36t-98.5 96.5t-36.5 133.5t36.5 133t98.5 96t140 36t140.5 -36t98.5 -96t36 -133t-36 -133.5t-98.5 -96.5t-140.5 -36zM305 154q29 0 50 13t33 35t12 48q0 27 -12 49t-33 35t-50 13q-28 0 -49.5 -13t-33.5 -35t-12 -49q0 -26 12 -48t33.5 -35
t49.5 -13z" />
    <glyph glyph-name="p" unicode="p" horiz-adv-x="630" 
d="M230 -230h-180v481q0 77 35.5 136.5t97.5 93.5t142 34q78 0 140.5 -36t98.5 -95.5t36 -132.5q0 -80 -33 -140t-92.5 -93t-139.5 -33q-48 0 -91.5 21.5t-70.5 55.5t-27 73h84v-365zM325 154q29 0 50 13t33 35t12 48q0 27 -12 48.5t-33 34.5t-50 13q-28 0 -49.5 -13
t-33.5 -34.5t-12 -48.5q0 -26 12 -48t33.5 -35t49.5 -13z" />
    <glyph glyph-name="q" unicode="q" horiz-adv-x="630" 
d="M580 -230h-180v365h84q0 -39 -27 -73t-70 -55.5t-92 -21.5q-79 0 -139 33t-93 93t-33 140q0 73 36.5 132.5t98.5 95.5t140 36q80 0 142 -34t97.5 -93.5t35.5 -136.5v-481zM305 154q29 0 50 13t33 35t12 48q0 27 -12 48.5t-33 34.5t-50 13q-28 0 -49.5 -13t-33.5 -34.5
t-12 -48.5q0 -26 12 -48t33.5 -35t49.5 -13z" />
    <glyph glyph-name="r" unicode="r" horiz-adv-x="370" 
d="M230 0h-180v277q0 67 26 121t79 86t134 32q26 0 51.5 -4.5t44.5 -12.5v-173q-18 10 -39 15t-40 5q-35 0 -55.5 -19.5t-20.5 -55.5v-271z" />
    <glyph glyph-name="s" unicode="s" horiz-adv-x="514" 
d="M259 -16q-85 0 -141 29t-88 86l130 73q14 -24 35 -36t55 -12q19 0 30.5 4t17.5 10.5t6 14.5q0 15 -19 22t-49 12t-64 12.5t-64 23.5t-49 45.5t-19 77.5q0 47 25.5 85.5t74 61.5t116.5 23q60 0 102 -17t69.5 -43t41.5 -54l-130 -74q-8 23 -30.5 35.5t-48.5 12.5
q-13 0 -22 -3.5t-13.5 -9t-4.5 -13.5q0 -15 19 -23t49 -13t64 -13t64 -24t49 -44.5t19 -75.5q0 -52 -31 -91t-82 -60.5t-112 -21.5z" />
    <glyph glyph-name="t" unicode="t" horiz-adv-x="469" 
d="M334 -16q-81 0 -134 29.5t-79 81.5t-26 118v412h180v-406q0 -36 20.5 -55.5t55.5 -19.5q19 0 44.5 5t43.5 15v-159q-19 -10 -49 -15.5t-56 -5.5zM439 350h-429v150h429v-150z" />
    <glyph glyph-name="u" unicode="u" horiz-adv-x="606" 
d="M303 160q29 0 47.5 16t27 42.5t8.5 57.5v224h180v-246q0 -73 -29 -134.5t-87 -98t-147 -36.5q-88 0 -146.5 36.5t-87.5 98t-29 134.5v246h180v-224q0 -31 8.5 -57.5t27 -42.5t47.5 -16z" />
    <glyph glyph-name="v" unicode="v" horiz-adv-x="596" 
d="M145 98l-145 402h192l119 -351q-4 5 -7 6.5t-6 1.5t-6 -1.5t-7 -6.5l119 351h192l-148 -402q-21 -57 -58.5 -85.5t-91.5 -28.5t-93 28.5t-60 85.5z" />
    <glyph glyph-name="w" unicode="w" horiz-adv-x="884" 
d="M253 -16q-30 0 -61 13t-54.5 39.5t-33.5 67.5l-94 396h168l82 -363q-1 6 -4 9t-5 3t-5 -3t-5 -9l67 259q16 60 51 90t87 30q53 0 87 -29.5t49 -88.5l67 -261q-1 5 -4.5 8t-5.5 3q-1 0 -4 -3t-5 -8l78 363h166l-88 -396q-9 -41 -33 -67.5t-55 -39.5t-61 -13
q-47 0 -83.5 30t-51.5 90l-69 270q2 -7 6 -10t6 -3t6.5 3t5.5 9l-68 -269q-15 -60 -52 -90t-84 -30z" />
    <glyph glyph-name="x" unicode="x" horiz-adv-x="629" 
d="M618 0h-201l-71 127q-15 26 -22.5 57.5t-7.5 62.5q0 32 7.5 64t22.5 59l70 130h203l-113 -199q-19 -32 -19 -52q0 -21 22 -59zM212 0h-201l109 190q22 38 22 59q0 20 -19 52l-113 199h203l70 -130q15 -27 22.5 -59t7.5 -64q0 -31 -7.5 -62.5t-22.5 -57.5zM421 172h-197
v160h197v-160z" />
    <glyph glyph-name="y" unicode="y" horiz-adv-x="658" 
d="M303 -246q-97 0 -162.5 40t-100.5 113l149 80q12 -25 38.5 -47t72.5 -22q35 0 60 15.5t39 44t14 68.5v49h32q-10 -36 -29 -58t-47.5 -32t-67.5 -10q-84 0 -136.5 33t-77 91t-24.5 133v248h177v-244q0 -41 22.5 -66.5t62.5 -25.5q22 0 41.5 11.5t31.5 32.5t12 48v244h183
v-452q0 -90 -38 -156t-103.5 -102t-148.5 -36z" />
    <glyph glyph-name="z" unicode="z" horiz-adv-x="549" 
d="M502 0h-318q-72 0 -107.5 33.5t-36.5 78.5q-1 39 15.5 69.5t54.5 52.5l212 126q-3 -3 -3 -5q0 -1 1.5 -3t4.5 -2h-265v150h305q72 0 107.5 -33.5t36.5 -78.5q1 -39 -15.5 -69t-54.5 -53l-212 -126q2 2 2 3q0 2 -2 4.5t-5 2.5h280v-150z" />
    <glyph glyph-name="braceleft" unicode="{" horiz-adv-x="434" 
d="M50 185v172h14q30 0 47.5 13.5t17.5 41.5q0 33 -6.5 53.5t-13.5 43t-7 60.5q0 50 25 89.5t68 62t97 22.5q49 0 92 -17v-180q-11 11 -24.5 16.5t-27.5 5.5q-20 0 -32.5 -13t-12.5 -32q0 -27 8 -47t15.5 -40t7.5 -50q0 -47 -41.5 -84t-119.5 -37v12q78 0 119.5 -37
t41.5 -84q0 -29 -7.5 -49.5t-15.5 -40t-8 -47.5q0 -19 12.5 -32t32.5 -13q14 0 27.5 6t24.5 16v-180q-43 -17 -92 -17q-54 0 -97 22.5t-68 62t-25 89.5q0 39 7 61t13.5 42.5t6.5 53.5q0 29 -17.5 42t-47.5 13h-14z" />
    <glyph glyph-name="bar" unicode="|" horiz-adv-x="360" 
d="M270 -140h-180v870h180v-870z" />
    <glyph glyph-name="braceright" unicode="}" horiz-adv-x="434" 
d="M370 357h14v-172h-14q-30 0 -47.5 -13t-17.5 -42q0 -33 7 -53.5t13.5 -42.5t6.5 -61q0 -50 -25 -89.5t-67.5 -62t-97.5 -22.5q-49 0 -92 17v180q11 -10 24.5 -16t27.5 -6q20 0 32.5 13t12.5 32q0 28 -7.5 47.5t-15.5 40t-8 49.5q0 47 41.5 84t119.5 37v-12
q-78 0 -119.5 37t-41.5 84q0 30 8 50t15.5 40t7.5 47q0 19 -12.5 32t-32.5 13q-14 0 -27.5 -5.5t-24.5 -16.5v180q43 17 92 17q55 0 97.5 -22.5t67.5 -62t25 -89.5q0 -38 -6.5 -60.5t-13.5 -43t-7 -53.5q0 -28 17.5 -41.5t47.5 -13.5z" />
    <glyph glyph-name="asciitilde" unicode="~" horiz-adv-x="731" 
d="M238 183l-188 49q1 55 22 101t59.5 74.5t91.5 28.5q33 0 63.5 -5.5t58 -12.5t52 -12.5t45.5 -5.5q26 0 38 14.5t13 33.5l188 -49q-1 -54 -22 -100.5t-59 -75t-92 -28.5q-35 0 -65 5.5t-56.5 12.5t-50.5 12.5t-47 5.5q-25 0 -37 -14.5t-14 -33.5z" />
    <glyph glyph-name="exclamdown" unicode="&#xa1;" horiz-adv-x="386" 
d="M289 263v-438h-185v438h185zM193 512q42 0 72.5 -30.5t30.5 -72.5t-30.5 -72.5t-72.5 -30.5t-72.5 30.5t-30.5 72.5t30.5 72.5t72.5 30.5z" />
    <glyph glyph-name="cent" unicode="&#xa2;" horiz-adv-x="563" 
d="M375 615v-248h-175v248h175zM375 134v-248h-175v248h175zM305 -14q-58 -1 -108.5 20t-87.5 57.5t-58 85t-21 102.5t21 102.5t58 85t87.5 57t108.5 19.5q75 -1 139.5 -36.5t98.5 -112.5l-149 -80q-12 26 -35 43t-54 17q-28 0 -49.5 -12.5t-33.5 -34t-12 -48.5
q0 -26 12 -48t33.5 -35t49.5 -13q31 0 54 17.5t35 42.5l149 -80q-34 -77 -98.5 -112.5t-139.5 -36.5z" />
    <glyph glyph-name="sterling" unicode="&#xa3;" horiz-adv-x="616" 
d="M472 282h-412v110h412v-110zM363 520q-25 0 -41 -10t-23.5 -24.5t-7.5 -28.5q0 -22 10.5 -40t23.5 -37q15 -21 26 -46t11 -60q0 -26 -8 -49.5t-21.5 -41.5t-30.5 -27q2 2 3.5 4.5t1.5 3.5q0 6 -6 6h272v-170h-343q-85 0 -122.5 29t-37.5 76q0 35 19 58t41 43
q13 13 25 25.5t19.5 27t7.5 31.5q0 23 -9.5 40t-21.5 35q-16 22 -30.5 50t-14.5 73q0 54 28.5 100t83.5 74t133 28q95 0 159.5 -44.5t95.5 -114.5l-147 -83q-11 31 -36 51.5t-60 20.5z" />
    <glyph glyph-name="currency" unicode="&#xa4;" horiz-adv-x="681" 
d="M340 65q-78 0 -140 36t-98.5 96.5t-36.5 133.5t36.5 132.5t98.5 95.5t140 36t140.5 -36t98.5 -95.5t36 -132.5t-36 -133.5t-98.5 -96.5t-140.5 -36zM280 135l-119 -119l-131 131l122 122zM651 147l-131 -131l-122 121l133 130zM340 234q29 0 50 13t33 35t12 48
q0 27 -12 48.5t-33 34.5t-50 13q-28 0 -49.5 -13t-33.5 -34.5t-12 -48.5q0 -26 12 -48t33.5 -35t49.5 -13zM272 535l-128 -134l-114 114l131 131zM641 515l-107 -107l-133 130l109 108z" />
    <glyph glyph-name="yen" unicode="&#xa5;" horiz-adv-x="738" 
d="M334 107h-269v110h269v-110zM234 307h-169v110h169v-110zM677 107h-263v110h263v-110zM677 307h-163v110h163v-110zM463 0h-185v295h185v-295zM204 291l-164 384h199l133 -333q2 -4 1 -5.5t-3 -1.5t-2.5 2t0.5 5l131 333h199l-164 -384q-25 -58 -70 -88t-95 -30
q-49 0 -94 30t-71 88z" />
    <glyph glyph-name="brokenbar" unicode="&#xa6;" horiz-adv-x="360" 
d="M90 190h180v-330h-180v330zM270 400h-180v330h180v-330z" />
    <glyph glyph-name="section" unicode="&#xa7;" horiz-adv-x="617" 
d="M528 65l-105 101q29 15 40.5 38t11.5 40q0 25 -20.5 40.5t-54.5 26.5t-74.5 21t-81 24t-74.5 36.5t-54.5 56.5t-20.5 85q0 64 33.5 110.5t92.5 72.5t135 26q81 0 150.5 -39t103.5 -114l-149 -77q-14 25 -45 45t-68 20q-23 0 -41 -6t-27.5 -16.5t-9.5 -26.5t20.5 -26.5
t54.5 -19t74.5 -18.5t81 -25t74.5 -38t54.5 -57.5t20.5 -84.5q0 -64 -30 -109t-92 -86zM339 -219q-81 0 -150 39t-104 114l149 77q14 -25 45 -45t68 -20q24 0 41.5 6t27 17t9.5 26q0 16 -20.5 26.5t-54.5 19t-74.5 18.5t-81 25t-74.5 38t-54.5 57.5t-20.5 84.5q0 64 30 109
t92 86l105 -101q-29 -15 -40.5 -38t-11.5 -40q0 -25 20.5 -40.5t54.5 -26.5t74.5 -21t81 -24t74.5 -36.5t54.5 -56.5t20.5 -85q0 -63 -33.5 -110t-92.5 -73t-135 -26z" />
    <glyph glyph-name="dieresis" unicode="&#xa8;" horiz-adv-x="546" 
d="M142 559q-42 0 -72 30t-30 72t30 72t72 30q41 0 71 -30t30 -72t-30 -72t-71 -30zM404 559q-41 0 -71 30t-30 72t30 72t71 30q42 0 72 -30t30 -72t-30 -72t-72 -30z" />
    <glyph glyph-name="copyright" unicode="&#xa9;" horiz-adv-x="800" 
d="M400 -10q-75 0 -140 28t-114.5 77.5t-77.5 114.5t-28 140q0 74 28 139t77.5 114.5t114.5 77.5t140 28t140 -28t114.5 -77.5t77.5 -114.5t28 -139q0 -75 -28 -140t-77.5 -114.5t-114.5 -77.5t-140 -28zM400 104q51 0 95 19t77 53t51.5 78.5t18.5 95.5q0 50 -18 94.5
t-51 78.5t-77 53t-96 19q-51 0 -94.5 -19t-77 -53t-52 -78.5t-18.5 -94.5q0 -51 18 -95.5t51 -78.5t77 -53t96 -19zM413 181q-48 0 -87.5 22.5t-63 61t-23.5 86.5t23.5 86t63 60.5t87.5 22.5q55 0 93.5 -26.5t54.5 -65.5l-101 -56q-7 12 -18.5 20.5t-28.5 8.5
q-15 0 -26.5 -6.5t-18.5 -17.5t-7 -26t7 -26.5t18.5 -18t26.5 -6.5q17 0 29 9.5t18 22.5l101 -58q-19 -41 -57 -67t-91 -26z" />
    <glyph glyph-name="ordfeminine" unicode="&#xaa;" horiz-adv-x="430" 
d="M195 324q-49 0 -87.5 24t-61 65.5t-22.5 93.5q0 51 25.5 92.5t69 66t96.5 24.5q56 0 99 -23.5t67.5 -65t24.5 -94.5v-174h-124v129h42q0 -39 -15.5 -70.5t-44.5 -49.5t-69 -18zM215 447q17 0 29.5 7.5t20 21t7.5 30.5q0 18 -7.5 31.5t-20 21t-29.5 7.5q-16 0 -29 -7.5
t-20.5 -21t-7.5 -31.5q0 -17 7.5 -30.5t20.5 -21t29 -7.5z" />
    <glyph glyph-name="guillemotleft" unicode="&#xab;" horiz-adv-x="795" 
d="M540 151l155 -86v180l-142 86q-10 6 -16.5 3t-6.5 -10q0 -8 7 -11t16 2l142 86v180l-155 -86q-80 -44 -110 -83.5t-30 -88.5t30 -88.5t110 -83.5zM200 151l155 -86v180l-142 86q-10 6 -16.5 3t-6.5 -10q0 -8 7 -11t16 2l142 86v180l-155 -86q-80 -44 -110 -83.5
t-30 -88.5t30 -88.5t110 -83.5z" />
    <glyph glyph-name="logicalnot" unicode="&#xac;" horiz-adv-x="660" 
d="M590 386v-160h-520v160h520zM405 311h185v-240h-185v240z" />
    <glyph glyph-name="registered" unicode="&#xae;" horiz-adv-x="560" 
d="M280 171q-72 0 -131 35t-94 94t-35 131t35 130.5t94 93.5t131 35t131 -35t94 -93.5t35 -130.5t-35 -131t-94 -94t-131 -35zM280 253q50 0 89.5 24t62.5 64.5t23 89.5t-23 89t-62.5 64t-89.5 24q-48 0 -88 -24t-63.5 -64t-23.5 -89t23 -89.5t62.5 -64.5t89.5 -24zM258 317
h-72v243h100q44 0 72.5 -20.5t28.5 -59.5q0 -37 -25.5 -55.5t-66.5 -18.5l4 17q29 0 44 -9t29 -39l27 -58h-85l-17 41q-7 16 -15 20t-25 4h-13v65h43q12 0 18.5 5.5t6.5 15.5q0 21 -25 21h-29v-172z" />
    <glyph glyph-name="macron" unicode="&#xaf;" horiz-adv-x="465" 
d="M425 730v-135h-385v135h385z" />
    <glyph glyph-name="degree" unicode="&#xb0;" horiz-adv-x="430" 
d="M215 367q-55 0 -99.5 25.5t-70 68.5t-25.5 95q0 51 25.5 93.5t70 68t99.5 25.5q56 0 100 -25.5t69.5 -68t25.5 -93.5q0 -52 -25.5 -95t-69.5 -68.5t-100 -25.5zM215 494q18 0 31.5 8.5t21 22.5t7.5 30q0 17 -7.5 30.5t-21 21.5t-31.5 8t-31.5 -8t-21 -21.5t-7.5 -30.5
q0 -16 7.5 -30t21 -22.5t31.5 -8.5z" />
    <glyph glyph-name="plusminus" unicode="&#xb1;" horiz-adv-x="669" 
d="M244 651h185v-440h-185v440zM589 501v-170h-505v170h505zM577 171v-170h-497v170h497z" />
    <glyph glyph-name="twosuperior" unicode="&#xb2;" horiz-adv-x="357" 
d="M322 337h-215q-35 0 -54.5 21.5t-19.5 48.5q0 17 8 33t25 26l89 53q19 11 28.5 20.5t9.5 19.5q0 11 -8.5 16t-19.5 5q-19 0 -35.5 -10.5t-24.5 -25.5l-84 55q27 44 63.5 64.5t87.5 20.5q62 0 101.5 -30t39.5 -81q0 -37 -20 -63.5t-51 -43.5l-99 -55q10 6 10 14q0 5 -5 9
t-14 4h188v-101z" />
    <glyph glyph-name="threesuperior" unicode="&#xb3;" horiz-adv-x="334" 
d="M35 578v97h204q28 0 41.5 -15t13.5 -35q0 -11 -5 -23t-15 -22l-62 -60q4 4 4 11q0 12 -14 12h4q41 0 66.5 -25t25.5 -69q0 -51 -39 -84.5t-98 -33.5q-51 0 -86.5 22t-54.5 60l92 49q8 -17 20 -26.5t30 -9.5q14 0 22.5 7t8.5 16q0 25 -35 25h-17q-19 0 -30.5 10.5
t-11.5 26.5q0 14 5.5 22t15.5 18l47 43q-3 -3 -3 -7q0 -9 9 -9h-138z" />
    <glyph glyph-name="acute" unicode="&#xb4;" horiz-adv-x="390" 
d="M218 573h-178l127 177h183z" />
    <glyph glyph-name="paragraph" unicode="&#xb6;" horiz-adv-x="845" 
d="M358 200h-53q-78 0 -140 36t-98.5 96.5t-36.5 133.5t36.5 132.5t98.5 95.5t140 36h53v-530zM465 -140h-160v870h160v-870zM725 -140h-160v870h160v-870z" />
    <glyph glyph-name="periodcentered" unicode="&#xb7;" horiz-adv-x="356" 
d="M178 198q-29 0 -54 14.5t-39.5 39.5t-14.5 54q0 30 14.5 54.5t39.5 39t54 14.5q30 0 54.5 -14.5t39 -39t14.5 -54.5q0 -29 -14.5 -54t-39 -39.5t-54.5 -14.5z" />
    <glyph glyph-name="cedilla" unicode="&#xb8;" horiz-adv-x="640" 
d="M379 0l-20 -67h-163l25 67h158zM249 -305l-57 118q48 7 64.5 21.5t16.5 31.5q0 19 -19 26t-49 7h-22l31 83h51q71 1 117 -32t46 -95q0 -45 -23.5 -78.5t-64 -54t-91.5 -27.5z" />
    <glyph glyph-name="onesuperior" unicode="&#xb9;" horiz-adv-x="359" 
d="M259 337h-131v221q0 -9 4.5 -13.5t9.5 -4.5q4 0 8.5 1.5t9.5 3.5l-102 -52l-48 112l114 59q19 10 36 15t30 5q31 0 50 -19.5t19 -51.5v-276z" />
    <glyph glyph-name="ordmasculine" unicode="&#xba;" horiz-adv-x="477" 
d="M238 327q-53 0 -95.5 24.5t-67.5 66t-25 91.5t25 91t67.5 65.5t95.5 24.5q54 0 96.5 -24.5t67.5 -65.5t25 -91t-25 -91.5t-67.5 -66t-96.5 -24.5zM238 447q18 0 31.5 8.5t21 22.5t7.5 30q0 17 -7.5 31t-21 22t-31.5 8q-17 0 -30.5 -8t-21 -22t-7.5 -31q0 -16 7.5 -30
t21 -22.5t30.5 -8.5z" />
    <glyph glyph-name="guillemotright" unicode="&#xbb;" horiz-adv-x="795" 
d="M255 151l-155 -86v180l142 86q11 6 17 3t6 -10q0 -8 -7 -11t-16 2l-142 86v180l155 -86q80 -44 110 -83.5t30 -88.5t-30 -88.5t-110 -83.5zM595 151l-155 -86v180l142 86q11 6 17 3t6 -10q0 -8 -7 -11t-16 2l-142 86v180l155 -86q80 -44 110 -83.5t30 -88.5t-30 -88.5
t-110 -83.5z" />
    <glyph glyph-name="onequarter" unicode="&#xbc;" horiz-adv-x="873" 
d="M775 0h-115v252q0 -9 8 -9q5 0 11 6l-105 -124q2 4 2 7q0 5 -3.5 7.5t-9.5 2.5h260v-93h-279q-37 0 -57 19.5t-20 47.5t26 57l122 137q18 20 39.5 29.5t42.5 9.5q32 0 55 -21t23 -61v-267zM279 337h-131v221q0 -9 4.5 -13.5t9.5 -4.5q4 0 8.5 1.5t9.5 3.5l-102 -52
l-48 112l114 59q19 10 36 15t30 5q31 0 50 -19.5t19 -51.5v-276zM170 0l336 675h160l-336 -675h-160z" />
    <glyph glyph-name="onehalf" unicode="&#xbd;" horiz-adv-x="841" 
d="M279 337h-131v221q0 -9 4.5 -13.5t9.5 -4.5q4 0 8.5 1.5t9.5 3.5l-102 -52l-48 112l114 59q19 10 36 15t30 5q31 0 50 -19.5t19 -51.5v-276zM170 0l336 675h160l-336 -675h-160zM811 0h-215q-35 0 -54.5 21.5t-19.5 48.5q0 17 8 33t25 26l89 53q19 11 28.5 20.5t9.5 19.5
q0 11 -8.5 16t-19.5 5q-19 0 -35.5 -10.5t-24.5 -25.5l-84 55q27 44 63.5 64.5t87.5 20.5q62 0 101.5 -30t39.5 -81q0 -37 -20 -63.5t-51 -43.5l-99 -55q10 6 10 14q0 5 -5 9t-14 4h188v-101z" />
    <glyph glyph-name="threequarters" unicode="&#xbe;" horiz-adv-x="873" 
d="M775 0h-115v252q0 -9 8 -9q5 0 11 6l-105 -124q2 4 2 7q0 5 -3.5 7.5t-9.5 2.5h260v-93h-279q-37 0 -57 19.5t-20 47.5t26 57l122 137q18 20 39.5 29.5t42.5 9.5q32 0 55 -21t23 -61v-267zM35 578v97h204q28 0 41.5 -15t13.5 -35q0 -11 -5 -23t-15 -22l-62 -60q4 4 4 11
q0 12 -14 12h4q41 0 66.5 -25t25.5 -69q0 -51 -39 -84.5t-98 -33.5q-51 0 -86.5 22t-54.5 60l92 49q8 -17 20 -26.5t30 -9.5q14 0 22.5 7t8.5 16q0 25 -35 25h-17q-19 0 -30.5 10.5t-11.5 26.5q0 14 5.5 22t15.5 18l47 43q-3 -3 -3 -7q0 -9 9 -9h-138zM170 0l336 675h160
l-336 -675h-160z" />
    <glyph glyph-name="questiondown" unicode="&#xbf;" horiz-adv-x="593" 
d="M212 263h203q0 -36 -16 -60.5t-40 -42.5t-48 -33t-40 -31.5t-16 -39.5q0 -16 8 -28.5t23 -19.5t35 -7q33 0 58.5 20t36.5 52l167 -93q-22 -49 -61.5 -87.5t-91 -60t-109.5 -21.5q-78 0 -137 28t-91.5 78t-32.5 116q0 47 15.5 79t38 53.5t45 37t38 29.5t15.5 31zM318 512
q42 0 72.5 -30.5t30.5 -72.5t-30.5 -72.5t-72.5 -30.5t-72.5 30.5t-30.5 72.5t30.5 72.5t72.5 30.5z" />
    <glyph glyph-name="Agrave" unicode="&#xc0;" 
d="M557 114h-387v165h387v-165zM15 0l174 568q19 62 66 92t99 30q53 0 99.5 -30t65.5 -92l174 -568h-189l-141 514q-3 10 -8 10t-8 -10l-143 -514h-189zM327 925l127 -177h-178l-132 177h183z" />
    <glyph glyph-name="Aacute" unicode="&#xc1;" 
d="M557 114h-387v165h387v-165zM15 0l174 568q19 62 66 92t99 30q53 0 99.5 -30t65.5 -92l174 -568h-189l-141 514q-3 10 -8 10t-8 -10l-143 -514h-189zM434 748h-178l127 177h183z" />
    <glyph glyph-name="Acircumflex" unicode="&#xc2;" 
d="M557 114h-387v165h387v-165zM15 0l174 568q19 62 66 92t99 30q53 0 99.5 -30t65.5 -92l174 -568h-189l-141 514q-3 10 -8 10t-8 -10l-143 -514h-189zM129 748l77 109q26 37 65.5 55.5t82.5 18.5t82.5 -18.5t65.5 -55.5l77 -109h-173l-53 75q-2 3 1.5 3.5t0.5 -3.5
l-53 -75h-173z" />
    <glyph glyph-name="Atilde" unicode="&#xc3;" 
d="M557 114h-387v165h387v-165zM15 0l174 568q19 62 66 92t99 30q53 0 99.5 -30t65.5 -92l174 -568h-189l-141 514q-3 10 -8 10t-8 -10l-143 -514h-189zM268 748l-127 34q2 35 17 66t41.5 50.5t61.5 19.5q31 0 56 -7.5t46 -15t39 -7.5q17 0 27.5 12t11.5 25l127 -34
q-2 -35 -17 -66t-41 -50.5t-62 -19.5q-32 0 -56.5 7.5t-44.5 15t-40 7.5q-17 0 -27 -12t-12 -25z" />
    <glyph glyph-name="Adieresis" unicode="&#xc4;" 
d="M557 114h-387v165h387v-165zM15 0l174 568q19 62 66 92t99 30q53 0 99.5 -30t65.5 -92l174 -568h-189l-141 514q-3 10 -8 10t-8 -10l-143 -514h-189zM223 734q-42 0 -72 30t-30 72t30 72t72 30q41 0 71 -30t30 -72t-30 -72t-71 -30zM485 734q-41 0 -71 30t-30 72t30 72
t71 30q42 0 72 -30t30 -72t-30 -72t-72 -30z" />
    <glyph glyph-name="Aring" unicode="&#xc5;" 
d="M557 114h-387v165h387v-165zM15 0l174 568q19 62 66 92t99 30q53 0 99.5 -30t65.5 -92l174 -568h-189l-141 514q-3 10 -8 10t-8 -10l-143 -514h-189zM354 693q-39 0 -71.5 19.5t-52 52t-19.5 71.5t19.5 71.5t52 52t71.5 19.5t71.5 -19.5t52 -52t19.5 -71.5t-19.5 -71.5
t-52 -52t-71.5 -19.5zM354 796q17 0 28.5 12t11.5 28q0 17 -11.5 28.5t-28.5 11.5q-16 0 -28 -11.5t-12 -28.5q0 -16 12 -28t28 -12z" />
    <glyph glyph-name="AE" unicode="&#xc6;" horiz-adv-x="1040" 
d="M209 0h-194l259 522q27 53 55.5 87t70 50t105.5 16h167v-169l-158 -1l-25 5q-19 0 -28.5 -8t-17.5 -24zM527 133h-327v165h327v-165zM990 0h-351q-85 0 -122.5 42t-37.5 113v365q0 71 37.5 113t122.5 42h346v-165h-321v-345h326v-165zM962 255h-338l-25 165h363v-165z
" />
    <glyph glyph-name="Ccedilla" unicode="&#xc7;" horiz-adv-x="678" 
d="M386 -15q-76 0 -140.5 27t-113 75t-75.5 112t-27 138t27 138t75.5 112t113 75t140.5 27q60 0 116.5 -20.5t101.5 -59.5t69 -95l-151 -84q-21 38 -53 61t-91 23q-36 0 -65 -13t-50 -36.5t-32 -56t-11 -71.5t11 -71.5t31.5 -56t50 -36.5t65.5 -13q59 0 92 23.5t52 60.5
l151 -84q-24 -55 -69 -94.5t-101.5 -60t-116.5 -20.5zM466 0l-20 -67h-163l25 67h158zM336 -305l-57 118q48 7 64.5 21.5t16.5 31.5q0 19 -19 26t-49 7h-22l31 83h51q71 1 117 -32t46 -95q0 -45 -23.5 -78.5t-64 -54t-91.5 -27.5z" />
    <glyph glyph-name="Egrave" unicode="&#xc8;" horiz-adv-x="631" 
d="M581 0h-351q-85 0 -122.5 42t-37.5 113v365q0 71 37.5 113t122.5 42h346v-165h-321v-345h326v-165zM553 255h-338l-25 165h363v-165zM289 925l127 -177h-178l-132 177h183z" />
    <glyph glyph-name="Eacute" unicode="&#xc9;" horiz-adv-x="631" 
d="M581 0h-351q-85 0 -122.5 42t-37.5 113v365q0 71 37.5 113t122.5 42h346v-165h-321v-345h326v-165zM553 255h-338l-25 165h363v-165zM396 748h-178l127 177h183z" />
    <glyph glyph-name="Ecircumflex" unicode="&#xca;" horiz-adv-x="631" 
d="M581 0h-351q-85 0 -122.5 42t-37.5 113v365q0 71 37.5 113t122.5 42h346v-165h-321v-345h326v-165zM553 255h-338l-25 165h363v-165zM91 748l77 109q26 37 65.5 55.5t82.5 18.5t82.5 -18.5t65.5 -55.5l77 -109h-173l-53 75q-2 3 1.5 3.5t0.5 -3.5l-53 -75h-173z" />
    <glyph glyph-name="Edieresis" unicode="&#xcb;" horiz-adv-x="631" 
d="M581 0h-351q-85 0 -122.5 42t-37.5 113v365q0 71 37.5 113t122.5 42h346v-165h-321v-345h326v-165zM553 255h-338l-25 165h363v-165zM185 734q-42 0 -72 30t-30 72t30 72t72 30q41 0 71 -30t30 -72t-30 -72t-71 -30zM447 734q-41 0 -71 30t-30 72t30 72t71 30
q42 0 72 -30t30 -72t-30 -72t-72 -30z" />
    <glyph glyph-name="Igrave" unicode="&#xcc;" horiz-adv-x="345" 
d="M80 675h185v-675h-185v675zM146 925l127 -177h-178l-132 177h183z" />
    <glyph glyph-name="Iacute" unicode="&#xcd;" horiz-adv-x="345" 
d="M80 675h185v-675h-185v675zM253 748h-178l127 177h183z" />
    <glyph glyph-name="Icircumflex" unicode="&#xce;" horiz-adv-x="345" 
d="M80 675h185v-675h-185v675zM-52 748l77 109q26 37 65.5 55.5t82.5 18.5t82.5 -18.5t65.5 -55.5l77 -109h-173l-53 75q-2 3 1.5 3.5t0.5 -3.5l-53 -75h-173z" />
    <glyph glyph-name="Idieresis" unicode="&#xcf;" horiz-adv-x="345" 
d="M80 675h185v-675h-185v675zM42 734q-42 0 -72 30t-30 72t30 72t72 30q41 0 71 -30t30 -72t-30 -72t-71 -30zM304 734q-41 0 -71 30t-30 72t30 72t71 30q42 0 72 -30t30 -72t-30 -72t-72 -30z" />
    <glyph glyph-name="Eth" unicode="&#xd0;" horiz-adv-x="755" 
d="M80 263h-64v150h64v262h267q111 0 193.5 -42.5t128.5 -118.5t46 -179q0 -77 -27 -138.5t-76 -105.5t-116.5 -67.5t-148.5 -23.5h-267v263zM265 263v-98h82q41 0 73.5 12t56 34.5t36 54t12.5 69.5q0 51 -22 89t-62 59.5t-94 21.5h-82v-92h118v-150h-118z" />
    <glyph glyph-name="Ntilde" unicode="&#xd1;" horiz-adv-x="790" 
d="M250 0h-175v576q0 36 16.5 62t43 39.5t55.5 13.5q35 0 64.5 -12.5t47.5 -41.5l291 -461q-9 11 -16 15t-15 4q-9 0 -15.5 -8t-6.5 -23v511h175v-576q0 -36 -16.5 -61.5t-42.5 -39t-56 -13.5q-34 0 -64 13t-48 41l-287 455q7 -9 13.5 -12.5t14.5 -3.5q10 0 15.5 8t5.5 24
v-510zM323 748l-127 34q2 35 17 66t41.5 50.5t61.5 19.5q31 0 56 -7.5t46 -15t39 -7.5q17 0 27.5 12t11.5 25l127 -34q-2 -35 -17 -66t-41 -50.5t-62 -19.5q-32 0 -56.5 7.5t-44.5 15t-40 7.5q-17 0 -27 -12t-12 -25z" />
    <glyph glyph-name="Ograve" unicode="&#xd2;" horiz-adv-x="772" 
d="M386 -15q-76 0 -141 26.5t-113.5 74t-75 112t-26.5 139.5t26.5 139.5t75 112t113.5 74t141 26.5q77 0 141.5 -26.5t113 -74t75 -112t26.5 -139.5t-26.5 -139.5t-75 -112t-113 -74t-141.5 -26.5zM386 160q35 0 65.5 13.5t53 37.5t35 56.5t12.5 69.5q0 38 -12.5 70t-35 56
t-53 37.5t-65.5 13.5t-65.5 -13.5t-53 -37.5t-35 -56t-12.5 -70q0 -37 12.5 -69.5t35 -56.5t53 -37.5t65.5 -13.5zM359 925l127 -177h-178l-132 177h183z" />
    <glyph glyph-name="Oacute" unicode="&#xd3;" horiz-adv-x="772" 
d="M386 -15q-76 0 -141 26.5t-113.5 74t-75 112t-26.5 139.5t26.5 139.5t75 112t113.5 74t141 26.5q77 0 141.5 -26.5t113 -74t75 -112t26.5 -139.5t-26.5 -139.5t-75 -112t-113 -74t-141.5 -26.5zM386 160q35 0 65.5 13.5t53 37.5t35 56.5t12.5 69.5q0 38 -12.5 70t-35 56
t-53 37.5t-65.5 13.5t-65.5 -13.5t-53 -37.5t-35 -56t-12.5 -70q0 -37 12.5 -69.5t35 -56.5t53 -37.5t65.5 -13.5zM466 748h-178l127 177h183z" />
    <glyph glyph-name="Ocircumflex" unicode="&#xd4;" horiz-adv-x="772" 
d="M386 -15q-76 0 -141 26.5t-113.5 74t-75 112t-26.5 139.5t26.5 139.5t75 112t113.5 74t141 26.5q77 0 141.5 -26.5t113 -74t75 -112t26.5 -139.5t-26.5 -139.5t-75 -112t-113 -74t-141.5 -26.5zM386 160q35 0 65.5 13.5t53 37.5t35 56.5t12.5 69.5q0 38 -12.5 70t-35 56
t-53 37.5t-65.5 13.5t-65.5 -13.5t-53 -37.5t-35 -56t-12.5 -70q0 -37 12.5 -69.5t35 -56.5t53 -37.5t65.5 -13.5zM161 748l77 109q26 37 65.5 55.5t82.5 18.5t82.5 -18.5t65.5 -55.5l77 -109h-173l-53 75q-2 3 1.5 3.5t0.5 -3.5l-53 -75h-173z" />
    <glyph glyph-name="Otilde" unicode="&#xd5;" horiz-adv-x="772" 
d="M386 -15q-76 0 -141 26.5t-113.5 74t-75 112t-26.5 139.5t26.5 139.5t75 112t113.5 74t141 26.5q77 0 141.5 -26.5t113 -74t75 -112t26.5 -139.5t-26.5 -139.5t-75 -112t-113 -74t-141.5 -26.5zM386 160q35 0 65.5 13.5t53 37.5t35 56.5t12.5 69.5q0 38 -12.5 70t-35 56
t-53 37.5t-65.5 13.5t-65.5 -13.5t-53 -37.5t-35 -56t-12.5 -70q0 -37 12.5 -69.5t35 -56.5t53 -37.5t65.5 -13.5zM300 748l-127 34q2 35 17 66t41.5 50.5t61.5 19.5q31 0 56 -7.5t46 -15t39 -7.5q17 0 27.5 12t11.5 25l127 -34q-2 -35 -17 -66t-41 -50.5t-62 -19.5
q-32 0 -56.5 7.5t-44.5 15t-40 7.5q-17 0 -27 -12t-12 -25z" />
    <glyph glyph-name="Odieresis" unicode="&#xd6;" horiz-adv-x="772" 
d="M386 -15q-76 0 -141 26.5t-113.5 74t-75 112t-26.5 139.5t26.5 139.5t75 112t113.5 74t141 26.5q77 0 141.5 -26.5t113 -74t75 -112t26.5 -139.5t-26.5 -139.5t-75 -112t-113 -74t-141.5 -26.5zM386 160q35 0 65.5 13.5t53 37.5t35 56.5t12.5 69.5q0 38 -12.5 70t-35 56
t-53 37.5t-65.5 13.5t-65.5 -13.5t-53 -37.5t-35 -56t-12.5 -70q0 -37 12.5 -69.5t35 -56.5t53 -37.5t65.5 -13.5zM255 734q-42 0 -72 30t-30 72t30 72t72 30q41 0 71 -30t30 -72t-30 -72t-71 -30zM517 734q-41 0 -71 30t-30 72t30 72t71 30q42 0 72 -30t30 -72t-30 -72
t-72 -30z" />
    <glyph glyph-name="multiply" unicode="&#xd7;" horiz-adv-x="691" 
d="M621 191l-131 -131l-420 419l131 131zM621 479l-420 -419l-131 131l420 419z" />
    <glyph glyph-name="Oslash" unicode="&#xd8;" horiz-adv-x="772" 
d="M525 604l52 71h165l-456 -580l-41 -28l-50 -67h-165l451 572zM386 -15q-76 0 -141 26.5t-113.5 74t-75 112t-26.5 139.5t26.5 139.5t75 112t113.5 74t141 26.5q77 0 141.5 -26.5t113 -74t75 -112t26.5 -139.5t-26.5 -139.5t-75 -112t-113 -74t-141.5 -26.5zM386 160
q35 0 65.5 13.5t53 37.5t35 56.5t12.5 69.5q0 38 -12.5 70t-35 56t-53 37.5t-65.5 13.5t-65.5 -13.5t-53 -37.5t-35 -56t-12.5 -70q0 -37 12.5 -69.5t35 -56.5t53 -37.5t65.5 -13.5z" />
    <glyph glyph-name="Ugrave" unicode="&#xd9;" horiz-adv-x="745" 
d="M372 -12q-159 0 -233 83.5t-74 233.5v370h185v-365q0 -78 30.5 -112.5t91.5 -34.5q62 0 92.5 34.5t30.5 112.5v365h185v-370q0 -150 -75 -233.5t-233 -83.5zM346 925l127 -177h-178l-132 177h183z" />
    <glyph glyph-name="Uacute" unicode="&#xda;" horiz-adv-x="745" 
d="M372 -12q-159 0 -233 83.5t-74 233.5v370h185v-365q0 -78 30.5 -112.5t91.5 -34.5q62 0 92.5 34.5t30.5 112.5v365h185v-370q0 -150 -75 -233.5t-233 -83.5zM453 748h-178l127 177h183z" />
    <glyph glyph-name="Ucircumflex" unicode="&#xdb;" horiz-adv-x="745" 
d="M372 -12q-159 0 -233 83.5t-74 233.5v370h185v-365q0 -78 30.5 -112.5t91.5 -34.5q62 0 92.5 34.5t30.5 112.5v365h185v-370q0 -150 -75 -233.5t-233 -83.5zM148 748l77 109q26 37 65.5 55.5t82.5 18.5t82.5 -18.5t65.5 -55.5l77 -109h-173l-53 75q-2 3 1.5 3.5t0.5 -3.5
l-53 -75h-173z" />
    <glyph glyph-name="Udieresis" unicode="&#xdc;" horiz-adv-x="745" 
d="M372 -12q-159 0 -233 83.5t-74 233.5v370h185v-365q0 -78 30.5 -112.5t91.5 -34.5q62 0 92.5 34.5t30.5 112.5v365h185v-370q0 -150 -75 -233.5t-233 -83.5zM242 734q-42 0 -72 30t-30 72t30 72t72 30q41 0 71 -30t30 -72t-30 -72t-71 -30zM504 734q-41 0 -71 30t-30 72
t30 72t71 30q42 0 72 -30t30 -72t-30 -72t-72 -30z" />
    <glyph glyph-name="Yacute" unicode="&#xdd;" horiz-adv-x="668" 
d="M428 0h-185v295h185v-295zM169 291l-164 384h199l133 -333q2 -4 1 -5.5t-3 -1.5t-2.5 2t0.5 5l131 333h199l-164 -384q-25 -58 -70 -88t-95 -30q-49 0 -94 30t-71 88zM414 748h-178l127 177h183z" />
    <glyph glyph-name="Thorn" unicode="&#xde;" horiz-adv-x="681" 
d="M265 730v-729l-185 -1v730h185zM249 463l-4 170h94q100 0 171 -30.5t108.5 -86.5t37.5 -135q0 -81 -36 -138.5t-104.5 -88.5t-166.5 -31h-125l25 170h95q42 0 69 10t40 30t13 48q0 27 -14 45t-41 27.5t-67 9.5h-95z" />
    <glyph glyph-name="germandbls" unicode="&#xdf;" horiz-adv-x="719" 
d="M482 -15q-70 0 -117 25.5t-85 81.5l108 72q22 -24 40 -34t43 -10q18 0 30 9.5t12 24.5q0 20 -15 34t-37.5 26.5t-44.5 26t-37 31.5t-15 43q0 26 8 45t19 34t19 30t8 31q0 29 -19.5 47t-57.5 18q-34 0 -54 -15.5t-28.5 -40.5t-8.5 -54v-410h-179l-1 414q0 83 36 145
t101.5 96.5t153.5 34.5q68 0 121 -23t83.5 -63.5t30.5 -95.5q0 -33 -10 -57t-22.5 -42.5t-22.5 -33.5t-10 -29q0 -12 15.5 -24t38.5 -26.5t45.5 -34t38 -47.5t15.5 -66q0 -50 -26.5 -86.5t-72 -56.5t-103.5 -20z" />
    <glyph glyph-name="agrave" unicode="&#xe0;" horiz-adv-x="630" 
d="M275 -15q-73 0 -128 36t-86 96.5t-31 133.5t36.5 133t98.5 96t140 36q80 0 142 -34.5t97.5 -94t35.5 -136.5v-251h-170v175h50q0 -55 -22 -98t-63 -67.5t-100 -24.5zM305 154q29 0 50 13t33 35t12 48q0 27 -12 49t-33 35t-50 13q-28 0 -49.5 -13t-33.5 -35t-12 -49
q0 -26 12 -48t33.5 -35t49.5 -13zM283 750l127 -177h-178l-132 177h183z" />
    <glyph glyph-name="aacute" unicode="&#xe1;" horiz-adv-x="630" 
d="M275 -15q-73 0 -128 36t-86 96.5t-31 133.5t36.5 133t98.5 96t140 36q80 0 142 -34.5t97.5 -94t35.5 -136.5v-251h-170v175h50q0 -55 -22 -98t-63 -67.5t-100 -24.5zM305 154q29 0 50 13t33 35t12 48q0 27 -12 49t-33 35t-50 13q-28 0 -49.5 -13t-33.5 -35t-12 -49
q0 -26 12 -48t33.5 -35t49.5 -13zM390 573h-178l127 177h183z" />
    <glyph glyph-name="acircumflex" unicode="&#xe2;" horiz-adv-x="630" 
d="M275 -15q-73 0 -128 36t-86 96.5t-31 133.5t36.5 133t98.5 96t140 36q80 0 142 -34.5t97.5 -94t35.5 -136.5v-251h-170v175h50q0 -55 -22 -98t-63 -67.5t-100 -24.5zM305 154q29 0 50 13t33 35t12 48q0 27 -12 49t-33 35t-50 13q-28 0 -49.5 -13t-33.5 -35t-12 -49
q0 -26 12 -48t33.5 -35t49.5 -13zM85 573l77 109q26 37 65.5 55.5t82.5 18.5t82.5 -18.5t65.5 -55.5l77 -109h-173l-53 75q-2 3 1.5 3.5t0.5 -3.5l-53 -75h-173z" />
    <glyph glyph-name="atilde" unicode="&#xe3;" horiz-adv-x="630" 
d="M275 -15q-73 0 -128 36t-86 96.5t-31 133.5t36.5 133t98.5 96t140 36q80 0 142 -34.5t97.5 -94t35.5 -136.5v-251h-170v175h50q0 -55 -22 -98t-63 -67.5t-100 -24.5zM305 154q29 0 50 13t33 35t12 48q0 27 -12 49t-33 35t-50 13q-28 0 -49.5 -13t-33.5 -35t-12 -49
q0 -26 12 -48t33.5 -35t49.5 -13zM224 573l-127 34q2 35 17 66t41.5 50.5t61.5 19.5q31 0 56 -7.5t46 -15t39 -7.5q17 0 27.5 12t11.5 25l127 -34q-2 -35 -17 -66t-41 -50.5t-62 -19.5q-32 0 -56.5 7.5t-44.5 15t-40 7.5q-17 0 -27 -12t-12 -25z" />
    <glyph glyph-name="adieresis" unicode="&#xe4;" horiz-adv-x="630" 
d="M275 -15q-73 0 -128 36t-86 96.5t-31 133.5t36.5 133t98.5 96t140 36q80 0 142 -34.5t97.5 -94t35.5 -136.5v-251h-170v175h50q0 -55 -22 -98t-63 -67.5t-100 -24.5zM305 154q29 0 50 13t33 35t12 48q0 27 -12 49t-33 35t-50 13q-28 0 -49.5 -13t-33.5 -35t-12 -49
q0 -26 12 -48t33.5 -35t49.5 -13zM179 559q-42 0 -72 30t-30 72t30 72t72 30q41 0 71 -30t30 -72t-30 -72t-71 -30zM441 559q-41 0 -71 30t-30 72t30 72t71 30q42 0 72 -30t30 -72t-30 -72t-72 -30z" />
    <glyph glyph-name="aring" unicode="&#xe5;" horiz-adv-x="630" 
d="M275 -15q-73 0 -128 36t-86 96.5t-31 133.5t36.5 133t98.5 96t140 36q80 0 142 -34.5t97.5 -94t35.5 -136.5v-251h-170v175h50q0 -55 -22 -98t-63 -67.5t-100 -24.5zM305 154q29 0 50 13t33 35t12 48q0 27 -12 49t-33 35t-50 13q-28 0 -49.5 -13t-33.5 -35t-12 -49
q0 -26 12 -48t33.5 -35t49.5 -13zM310 518q-39 0 -71.5 19.5t-52 52t-19.5 71.5t19.5 71.5t52 52t71.5 19.5t71.5 -19.5t52 -52t19.5 -71.5t-19.5 -71.5t-52 -52t-71.5 -19.5zM310 621q17 0 28.5 12t11.5 28q0 17 -11.5 28.5t-28.5 11.5q-16 0 -28 -11.5t-12 -28.5
q0 -16 12 -28t28 -12z" />
    <glyph glyph-name="ae" unicode="&#xe6;" horiz-adv-x="1041" 
d="M275 -15q-73 0 -128 36t-86 96.5t-31 133.5t36.5 133t98.5 96t140 36q80 0 137 -34.5t87.5 -94t30.5 -136.5v-251h-150v175h50q0 -55 -22 -98t-63 -67.5t-100 -24.5zM305 154q29 0 50 13t33 35t12 48q0 27 -12 49t-33 35t-50 13q-28 0 -49.5 -13t-33.5 -35t-12 -49
q0 -26 12 -48t33.5 -35t49.5 -13zM760 -14q-80 0 -143.5 33.5t-100 94t-36.5 142.5q0 72 33.5 132t93.5 96t139 36q82 0 139 -36t86.5 -94.5t29.5 -125.5v-45h-376l25 32q0 -34 13.5 -59.5t37.5 -39t57 -13.5q36 0 63.5 18t40.5 47l138 -69q-32 -70 -94 -109.5t-146 -39.5z
M661 312h161q-4 14 -14.5 26.5t-26.5 20t-37 7.5t-38 -7.5t-28 -19.5t-17 -27z" />
    <glyph glyph-name="ccedilla" unicode="&#xe7;" horiz-adv-x="563" 
d="M305 -14q-58 -1 -108.5 20t-87.5 57.5t-58 85t-21 102.5t21 102.5t58 85t87.5 57t108.5 19.5q75 -1 139.5 -36.5t98.5 -112.5l-149 -80q-12 26 -35 43t-54 17q-28 0 -49.5 -12.5t-33.5 -34t-12 -48.5q0 -26 12 -48t33.5 -35t49.5 -13q31 0 54 17.5t35 42.5l149 -80
q-34 -77 -98.5 -112.5t-139.5 -36.5zM362 0l-20 -67h-163l25 67h158zM232 -305l-57 118q48 7 64.5 21.5t16.5 31.5q0 19 -19 26t-49 7h-22l31 83h51q71 1 117 -32t46 -95q0 -45 -23.5 -78.5t-64 -54t-91.5 -27.5z" />
    <glyph glyph-name="egrave" unicode="&#xe8;" horiz-adv-x="591" 
d="M310 -14q-80 0 -143.5 33.5t-100 94t-36.5 142.5q0 72 33.5 132t93.5 96t139 36q82 0 139 -36t86.5 -94.5t29.5 -125.5v-45h-376l25 32q0 -34 13.5 -59.5t37.5 -39t57 -13.5q36 0 63.5 18t40.5 47l138 -69q-32 -70 -94 -109.5t-146 -39.5zM211 312h161q-4 14 -14.5 26.5
t-26.5 20t-37 7.5t-38 -7.5t-28 -19.5t-17 -27zM269 750l127 -177h-178l-132 177h183z" />
    <glyph glyph-name="eacute" unicode="&#xe9;" horiz-adv-x="591" 
d="M310 -14q-80 0 -143.5 33.5t-100 94t-36.5 142.5q0 72 33.5 132t93.5 96t139 36q82 0 139 -36t86.5 -94.5t29.5 -125.5v-45h-376l25 32q0 -34 13.5 -59.5t37.5 -39t57 -13.5q36 0 63.5 18t40.5 47l138 -69q-32 -70 -94 -109.5t-146 -39.5zM211 312h161q-4 14 -14.5 26.5
t-26.5 20t-37 7.5t-38 -7.5t-28 -19.5t-17 -27zM376 573h-178l127 177h183z" />
    <glyph glyph-name="ecircumflex" unicode="&#xea;" horiz-adv-x="591" 
d="M310 -14q-80 0 -143.5 33.5t-100 94t-36.5 142.5q0 72 33.5 132t93.5 96t139 36q82 0 139 -36t86.5 -94.5t29.5 -125.5v-45h-376l25 32q0 -34 13.5 -59.5t37.5 -39t57 -13.5q36 0 63.5 18t40.5 47l138 -69q-32 -70 -94 -109.5t-146 -39.5zM211 312h161q-4 14 -14.5 26.5
t-26.5 20t-37 7.5t-38 -7.5t-28 -19.5t-17 -27zM71 573l77 109q26 37 65.5 55.5t82.5 18.5t82.5 -18.5t65.5 -55.5l77 -109h-173l-53 75q-2 3 1.5 3.5t0.5 -3.5l-53 -75h-173z" />
    <glyph glyph-name="edieresis" unicode="&#xeb;" horiz-adv-x="591" 
d="M310 -14q-80 0 -143.5 33.5t-100 94t-36.5 142.5q0 72 33.5 132t93.5 96t139 36q82 0 139 -36t86.5 -94.5t29.5 -125.5v-45h-376l25 32q0 -34 13.5 -59.5t37.5 -39t57 -13.5q36 0 63.5 18t40.5 47l138 -69q-32 -70 -94 -109.5t-146 -39.5zM211 312h161q-4 14 -14.5 26.5
t-26.5 20t-37 7.5t-38 -7.5t-28 -19.5t-17 -27zM165 559q-42 0 -72 30t-30 72t30 72t72 30q41 0 71 -30t30 -72t-30 -72t-71 -30zM427 559q-41 0 -71 30t-30 72t30 72t71 30q42 0 72 -30t30 -72t-30 -72t-72 -30z" />
    <glyph glyph-name="igrave" unicode="&#xec;" horiz-adv-x="320" 
d="M70 500h180v-500h-180v500zM133 750l127 -177h-178l-132 177h183z" />
    <glyph glyph-name="iacute" unicode="&#xed;" horiz-adv-x="320" 
d="M70 500h180v-500h-180v500zM240 573h-178l127 177h183z" />
    <glyph glyph-name="icircumflex" unicode="&#xee;" horiz-adv-x="320" 
d="M70 500h180v-500h-180v500zM-65 573l77 109q26 37 65.5 55.5t82.5 18.5t82.5 -18.5t65.5 -55.5l77 -109h-173l-53 75q-2 3 1.5 3.5t0.5 -3.5l-53 -75h-173z" />
    <glyph glyph-name="idieresis" unicode="&#xef;" horiz-adv-x="320" 
d="M70 500h180v-500h-180v500zM29 559q-42 0 -72 30t-30 72t30 72t72 30q41 0 71 -30t30 -72t-30 -72t-71 -30zM291 559q-41 0 -71 30t-30 72t30 72t71 30q42 0 72 -30t30 -72t-30 -72t-72 -30z" />
    <glyph glyph-name="eth" unicode="&#xf0;" horiz-adv-x="600" 
d="M287 -15q-78 0 -136 31t-89.5 85t-31.5 123q0 59 29 110.5t84 83.5t132 32q78 0 128 -43t50 -117l-50 10q-12 113 -81.5 187.5t-180.5 118.5l107 134q98 -45 168 -112t107 -151t37 -181q0 -86 -35 -157t-96.5 -112.5t-141.5 -41.5zM297 144q26 0 43.5 12.5t27 32
t9.5 39.5q0 23 -10.5 40.5t-29.5 27.5t-45 10q-25 0 -43.5 -11.5t-28.5 -30t-10 -38.5q0 -24 11 -42.5t30.5 -29t45.5 -10.5zM131 541l343 169l47 -88l-347 -167z" />
    <glyph glyph-name="ntilde" unicode="&#xf1;" horiz-adv-x="642" 
d="M321 340q-33 0 -53 -16t-29 -42t-9 -58v-224h-180v246q0 74 29 135t89 97.5t153 36.5t153 -36.5t89 -97.5t29 -135v-246h-180v224q0 32 -9 58t-29 42t-53 16zM235 573l-127 34q2 35 17 66t41.5 50.5t61.5 19.5q31 0 56 -7.5t46 -15t39 -7.5q17 0 27.5 12t11.5 25l127 -34
q-2 -35 -17 -66t-41 -50.5t-62 -19.5q-32 0 -56.5 7.5t-44.5 15t-40 7.5q-17 0 -27 -12t-12 -25z" />
    <glyph glyph-name="ograve" unicode="&#xf2;" horiz-adv-x="610" 
d="M305 -15q-78 0 -140 36t-98.5 96.5t-36.5 133.5t36.5 133t98.5 96t140 36t140.5 -36t98.5 -96t36 -133t-36 -133.5t-98.5 -96.5t-140.5 -36zM305 154q29 0 50 13t33 35t12 48q0 27 -12 49t-33 35t-50 13q-28 0 -49.5 -13t-33.5 -35t-12 -49q0 -26 12 -48t33.5 -35
t49.5 -13zM278 750l127 -177h-178l-132 177h183z" />
    <glyph glyph-name="oacute" unicode="&#xf3;" horiz-adv-x="610" 
d="M305 -15q-78 0 -140 36t-98.5 96.5t-36.5 133.5t36.5 133t98.5 96t140 36t140.5 -36t98.5 -96t36 -133t-36 -133.5t-98.5 -96.5t-140.5 -36zM305 154q29 0 50 13t33 35t12 48q0 27 -12 49t-33 35t-50 13q-28 0 -49.5 -13t-33.5 -35t-12 -49q0 -26 12 -48t33.5 -35
t49.5 -13zM385 573h-178l127 177h183z" />
    <glyph glyph-name="ocircumflex" unicode="&#xf4;" horiz-adv-x="610" 
d="M305 -15q-78 0 -140 36t-98.5 96.5t-36.5 133.5t36.5 133t98.5 96t140 36t140.5 -36t98.5 -96t36 -133t-36 -133.5t-98.5 -96.5t-140.5 -36zM305 154q29 0 50 13t33 35t12 48q0 27 -12 49t-33 35t-50 13q-28 0 -49.5 -13t-33.5 -35t-12 -49q0 -26 12 -48t33.5 -35
t49.5 -13zM80 573l77 109q26 37 65.5 55.5t82.5 18.5t82.5 -18.5t65.5 -55.5l77 -109h-173l-53 75q-2 3 1.5 3.5t0.5 -3.5l-53 -75h-173z" />
    <glyph glyph-name="otilde" unicode="&#xf5;" horiz-adv-x="610" 
d="M305 -15q-78 0 -140 36t-98.5 96.5t-36.5 133.5t36.5 133t98.5 96t140 36t140.5 -36t98.5 -96t36 -133t-36 -133.5t-98.5 -96.5t-140.5 -36zM305 154q29 0 50 13t33 35t12 48q0 27 -12 49t-33 35t-50 13q-28 0 -49.5 -13t-33.5 -35t-12 -49q0 -26 12 -48t33.5 -35
t49.5 -13zM219 573l-127 34q2 35 17 66t41.5 50.5t61.5 19.5q31 0 56 -7.5t46 -15t39 -7.5q17 0 27.5 12t11.5 25l127 -34q-2 -35 -17 -66t-41 -50.5t-62 -19.5q-32 0 -56.5 7.5t-44.5 15t-40 7.5q-17 0 -27 -12t-12 -25z" />
    <glyph glyph-name="odieresis" unicode="&#xf6;" horiz-adv-x="610" 
d="M305 -15q-78 0 -140 36t-98.5 96.5t-36.5 133.5t36.5 133t98.5 96t140 36t140.5 -36t98.5 -96t36 -133t-36 -133.5t-98.5 -96.5t-140.5 -36zM305 154q29 0 50 13t33 35t12 48q0 27 -12 49t-33 35t-50 13q-28 0 -49.5 -13t-33.5 -35t-12 -49q0 -26 12 -48t33.5 -35
t49.5 -13zM174 559q-42 0 -72 30t-30 72t30 72t72 30q41 0 71 -30t30 -72t-30 -72t-71 -30zM436 559q-41 0 -71 30t-30 72t30 72t71 30q42 0 72 -30t30 -72t-30 -72t-72 -30z" />
    <glyph glyph-name="divide" unicode="&#xf7;" horiz-adv-x="665" 
d="M595 421v-170h-525v170h525zM338 25q-40 0 -69 29t-29 69q0 41 29 69.5t69 28.5q41 0 69.5 -28.5t28.5 -69.5q0 -40 -28.5 -69t-69.5 -29zM338 450q-40 0 -69 29t-29 69q0 41 29 69.5t69 28.5q41 0 69.5 -28.5t28.5 -69.5q0 -40 -28.5 -69t-69.5 -29z" />
    <glyph glyph-name="oslash" unicode="&#xf8;" horiz-adv-x="610" 
d="M427 453l39 47h100l-345 -425l-42 -27l-39 -48h-100l346 427zM305 -15q-78 0 -140 36t-98.5 96.5t-36.5 133.5t36.5 133t98.5 96t140 36t140.5 -36t98.5 -96t36 -133t-36 -133.5t-98.5 -96.5t-140.5 -36zM305 154q29 0 50 13t33 35t12 48q0 27 -12 49t-33 35t-50 13
q-28 0 -49.5 -13t-33.5 -35t-12 -49q0 -26 12 -48t33.5 -35t49.5 -13z" />
    <glyph glyph-name="ugrave" unicode="&#xf9;" horiz-adv-x="606" 
d="M303 160q29 0 47.5 16t27 42.5t8.5 57.5v224h180v-246q0 -73 -29 -134.5t-87 -98t-147 -36.5q-88 0 -146.5 36.5t-87.5 98t-29 134.5v246h180v-224q0 -31 8.5 -57.5t27 -42.5t47.5 -16zM276 750l127 -177h-178l-132 177h183z" />
    <glyph glyph-name="uacute" unicode="&#xfa;" horiz-adv-x="606" 
d="M303 160q29 0 47.5 16t27 42.5t8.5 57.5v224h180v-246q0 -73 -29 -134.5t-87 -98t-147 -36.5q-88 0 -146.5 36.5t-87.5 98t-29 134.5v246h180v-224q0 -31 8.5 -57.5t27 -42.5t47.5 -16zM383 573h-178l127 177h183z" />
    <glyph glyph-name="ucircumflex" unicode="&#xfb;" horiz-adv-x="606" 
d="M303 160q29 0 47.5 16t27 42.5t8.5 57.5v224h180v-246q0 -73 -29 -134.5t-87 -98t-147 -36.5q-88 0 -146.5 36.5t-87.5 98t-29 134.5v246h180v-224q0 -31 8.5 -57.5t27 -42.5t47.5 -16zM78 573l77 109q26 37 65.5 55.5t82.5 18.5t82.5 -18.5t65.5 -55.5l77 -109h-173
l-53 75q-2 3 1.5 3.5t0.5 -3.5l-53 -75h-173z" />
    <glyph glyph-name="udieresis" unicode="&#xfc;" horiz-adv-x="606" 
d="M303 160q29 0 47.5 16t27 42.5t8.5 57.5v224h180v-246q0 -73 -29 -134.5t-87 -98t-147 -36.5q-88 0 -146.5 36.5t-87.5 98t-29 134.5v246h180v-224q0 -31 8.5 -57.5t27 -42.5t47.5 -16zM172 559q-42 0 -72 30t-30 72t30 72t72 30q41 0 71 -30t30 -72t-30 -72t-71 -30z
M434 559q-41 0 -71 30t-30 72t30 72t71 30q42 0 72 -30t30 -72t-30 -72t-72 -30z" />
    <glyph glyph-name="yacute" unicode="&#xfd;" horiz-adv-x="658" 
d="M303 -246q-97 0 -162.5 40t-100.5 113l149 80q12 -25 38.5 -47t72.5 -22q35 0 60 15.5t39 44t14 68.5v49h32q-10 -36 -29 -58t-47.5 -32t-67.5 -10q-84 0 -136.5 33t-77 91t-24.5 133v248h177v-244q0 -41 22.5 -66.5t62.5 -25.5q22 0 41.5 11.5t31.5 32.5t12 48v244h183
v-452q0 -90 -38 -156t-103.5 -102t-148.5 -36zM409 573h-178l127 177h183z" />
    <glyph glyph-name="thorn" unicode="&#xfe;" horiz-adv-x="630" 
d="M230 -230h-180v960h180v-365h-84q0 36 25.5 70.5t70.5 57t103 22.5q80 0 137 -36t87.5 -95.5t30.5 -132.5q0 -80 -35 -140t-92.5 -93t-127.5 -33q-53 0 -98.5 21.5t-73 55.5t-27.5 73h84v-365zM325 154q29 0 50 13t33 35t12 48q0 27 -12 48.5t-33 34.5t-50 13
q-28 0 -49.5 -13t-33.5 -34.5t-12 -48.5q0 -26 12 -48t33.5 -35t49.5 -13z" />
    <glyph glyph-name="ydieresis" unicode="&#xff;" horiz-adv-x="658" 
d="M303 -246q-97 0 -162.5 40t-100.5 113l149 80q12 -25 38.5 -47t72.5 -22q35 0 60 15.5t39 44t14 68.5v49h32q-10 -36 -29 -58t-47.5 -32t-67.5 -10q-84 0 -136.5 33t-77 91t-24.5 133v248h177v-244q0 -41 22.5 -66.5t62.5 -25.5q22 0 41.5 11.5t31.5 32.5t12 48v244h183
v-452q0 -90 -38 -156t-103.5 -102t-148.5 -36zM198 559q-42 0 -72 30t-30 72t30 72t72 30q41 0 71 -30t30 -72t-30 -72t-71 -30zM460 559q-41 0 -71 30t-30 72t30 72t71 30q42 0 72 -30t30 -72t-30 -72t-72 -30z" />
    <glyph glyph-name="Amacron" unicode="&#x100;" 
d="M557 114h-387v165h387v-165zM15 0l174 568q19 62 66 92t99 30q53 0 99.5 -30t65.5 -92l174 -568h-189l-141 514q-3 10 -8 10t-8 -10l-143 -514h-189zM546 905v-135h-385v135h385z" />
    <glyph glyph-name="amacron" unicode="&#x101;" horiz-adv-x="630" 
d="M275 -15q-73 0 -128 36t-86 96.5t-31 133.5t36.5 133t98.5 96t140 36q80 0 142 -34.5t97.5 -94t35.5 -136.5v-251h-170v175h50q0 -55 -22 -98t-63 -67.5t-100 -24.5zM305 154q29 0 50 13t33 35t12 48q0 27 -12 49t-33 35t-50 13q-28 0 -49.5 -13t-33.5 -35t-12 -49
q0 -26 12 -48t33.5 -35t49.5 -13zM502 730v-135h-385v135h385z" />
    <glyph glyph-name="Abreve" unicode="&#x102;" 
d="M557 114h-387v165h387v-165zM15 0l174 568q19 62 66 92t99 30q53 0 99.5 -30t65.5 -92l174 -568h-189l-141 514q-3 10 -8 10t-8 -10l-143 -514h-189zM354 748q-101 0 -150.5 44.5t-49.5 122.5v10h150v-10q0 -16 10.5 -31.5t39.5 -15.5t39.5 16t10.5 31v10h150v-10
q0 -78 -49.5 -122.5t-150.5 -44.5z" />
    <glyph glyph-name="abreve" unicode="&#x103;" horiz-adv-x="630" 
d="M275 -15q-73 0 -128 36t-86 96.5t-31 133.5t36.5 133t98.5 96t140 36q80 0 142 -34.5t97.5 -94t35.5 -136.5v-251h-170v175h50q0 -55 -22 -98t-63 -67.5t-100 -24.5zM305 154q29 0 50 13t33 35t12 48q0 27 -12 49t-33 35t-50 13q-28 0 -49.5 -13t-33.5 -35t-12 -49
q0 -26 12 -48t33.5 -35t49.5 -13zM310 573q-101 0 -150.5 44.5t-49.5 122.5v10h150v-10q0 -16 10.5 -31.5t39.5 -15.5t39.5 16t10.5 31v10h150v-10q0 -78 -49.5 -122.5t-150.5 -44.5z" />
    <glyph glyph-name="Aogonek" unicode="&#x104;" 
d="M557 114h-387v165h387v-165zM15 0l174 568q19 62 66 92t99 30q53 0 99.5 -30t65.5 -92l174 -568h-189l-141 514q-3 10 -8 10t-8 -10l-143 -514h-189zM709 -171l-61 -138q-60 5 -107.5 27.5t-74.5 59t-27 83.5q0 42 17 75.5t48 63.5h153q-31 -26 -45 -48.5t-14 -45.5
q0 -37 32.5 -54.5t78.5 -22.5z" />
    <glyph glyph-name="aogonek" unicode="&#x105;" horiz-adv-x="630" 
d="M275 -15q-73 0 -128 36t-86 96.5t-31 133.5t36.5 133t98.5 96t140 36q80 0 142 -34.5t97.5 -94t35.5 -136.5v-251h-170v175h50q0 -55 -22 -98t-63 -67.5t-100 -24.5zM305 154q29 0 50 13t33 35t12 48q0 27 -12 49t-33 35t-50 13q-28 0 -49.5 -13t-33.5 -35t-12 -49
q0 -26 12 -48t33.5 -35t49.5 -13zM633 -171l-61 -138q-61 5 -108 27.5t-74 59t-27 83.5q0 42 17 75.5t48 63.5h153q-31 -26 -45 -48.5t-14 -45.5q0 -37 32.5 -54.5t78.5 -22.5z" />
    <glyph glyph-name="Cacute" unicode="&#x106;" horiz-adv-x="678" 
d="M386 -15q-76 0 -140.5 27t-113 75t-75.5 112t-27 138t27 138t75.5 112t113 75t140.5 27q60 0 116.5 -20.5t101.5 -59.5t69 -95l-151 -84q-21 38 -53 61t-91 23q-36 0 -65 -13t-50 -36.5t-32 -56t-11 -71.5t11 -71.5t31.5 -56t50 -36.5t65.5 -13q59 0 92 23.5t52 60.5
l151 -84q-24 -55 -69 -94.5t-101.5 -60t-116.5 -20.5zM466 748h-178l127 177h183z" />
    <glyph glyph-name="cacute" unicode="&#x107;" horiz-adv-x="563" 
d="M305 -14q-58 -1 -108.5 20t-87.5 57.5t-58 85t-21 102.5t21 102.5t58 85t87.5 57t108.5 19.5q75 -1 139.5 -36.5t98.5 -112.5l-149 -80q-12 26 -35 43t-54 17q-28 0 -49.5 -12.5t-33.5 -34t-12 -48.5q0 -26 12 -48t33.5 -35t49.5 -13q31 0 54 17.5t35 42.5l149 -80
q-34 -77 -98.5 -112.5t-139.5 -36.5zM362 573h-178l127 177h183z" />
    <glyph glyph-name="Cdotaccent" unicode="&#x10a;" horiz-adv-x="678" 
d="M386 -15q-76 0 -140.5 27t-113 75t-75.5 112t-27 138t27 138t75.5 112t113 75t140.5 27q60 0 116.5 -20.5t101.5 -59.5t69 -95l-151 -84q-21 38 -53 61t-91 23q-36 0 -65 -13t-50 -36.5t-32 -56t-11 -71.5t11 -71.5t31.5 -56t50 -36.5t65.5 -13q59 0 92 23.5t52 60.5
l151 -84q-24 -55 -69 -94.5t-101.5 -60t-116.5 -20.5zM386 728q-29 0 -54 14.5t-39.5 39.5t-14.5 54q0 30 14.5 54.5t39.5 39t54 14.5q30 0 54.5 -14.5t39 -39t14.5 -54.5q0 -29 -14.5 -54t-39 -39.5t-54.5 -14.5z" />
    <glyph glyph-name="cdotaccent" unicode="&#x10b;" horiz-adv-x="563" 
d="M305 -14q-58 -1 -108.5 20t-87.5 57.5t-58 85t-21 102.5t21 102.5t58 85t87.5 57t108.5 19.5q75 -1 139.5 -36.5t98.5 -112.5l-149 -80q-12 26 -35 43t-54 17q-28 0 -49.5 -12.5t-33.5 -34t-12 -48.5q0 -26 12 -48t33.5 -35t49.5 -13q31 0 54 17.5t35 42.5l149 -80
q-34 -77 -98.5 -112.5t-139.5 -36.5zM282 553q-30 0 -54.5 14.5t-39 39.5t-14.5 54q0 30 14.5 54.5t39 39t54.5 14.5t54.5 -14.5t39 -39t14.5 -54.5q0 -29 -14.5 -54t-39 -39.5t-54.5 -14.5z" />
    <glyph glyph-name="Ccaron" unicode="&#x10c;" horiz-adv-x="678" 
d="M386 -15q-76 0 -140.5 27t-113 75t-75.5 112t-27 138t27 138t75.5 112t113 75t140.5 27q60 0 116.5 -20.5t101.5 -59.5t69 -95l-151 -84q-21 38 -53 61t-91 23q-36 0 -65 -13t-50 -36.5t-32 -56t-11 -71.5t11 -71.5t31.5 -56t50 -36.5t65.5 -13q59 0 92 23.5t52 60.5
l151 -84q-24 -55 -69 -94.5t-101.5 -60t-116.5 -20.5zM238 816l-77 109h173l53 -75q3 -4 -0.5 -3.5t-1.5 3.5l53 75h173l-77 -109q-26 -37 -65.5 -55t-82.5 -18t-82.5 18t-65.5 55z" />
    <glyph glyph-name="ccaron" unicode="&#x10d;" horiz-adv-x="563" 
d="M305 -14q-58 -1 -108.5 20t-87.5 57.5t-58 85t-21 102.5t21 102.5t58 85t87.5 57t108.5 19.5q75 -1 139.5 -36.5t98.5 -112.5l-149 -80q-12 26 -35 43t-54 17q-28 0 -49.5 -12.5t-33.5 -34t-12 -48.5q0 -26 12 -48t33.5 -35t49.5 -13q31 0 54 17.5t35 42.5l149 -80
q-34 -77 -98.5 -112.5t-139.5 -36.5zM134 641l-77 109h173l53 -75q3 -4 -0.5 -3.5t-1.5 3.5l53 75h173l-77 -109q-26 -37 -65.5 -55t-82.5 -18t-82.5 18t-65.5 55z" />
    <glyph glyph-name="Dcaron" unicode="&#x10e;" horiz-adv-x="755" 
d="M715 335q0 -77 -27 -138.5t-76 -105.5t-116.5 -67.5t-148.5 -23.5h-267v675h267q111 0 193.5 -42.5t128.5 -118.5t46 -179zM525 335q0 51 -22 89t-62 59.5t-94 21.5h-82v-340h82q41 0 73.5 12t56 34.5t36 54t12.5 69.5zM184 816l-77 109h173l53 -75q3 -4 -0.5 -3.5
t-1.5 3.5l53 75h173l-77 -109q-26 -37 -65.5 -55t-82.5 -18t-82.5 18t-65.5 55z" />
    <glyph glyph-name="dcaron" unicode="&#x10f;" horiz-adv-x="650" 
d="M305 -15q-78 0 -140 36t-98.5 96t-36.5 132q0 80 33 140t93 93t139 33q49 0 92 -21t70 -55.5t27 -73.5h-84v365h180v-481q0 -76 -35.5 -136t-97.5 -94t-142 -34zM305 154q29 0 50 13t33 35t12 48t-12 48t-33 35t-50 13q-28 0 -49.5 -13t-33.5 -35t-12 -48t12 -48
t33.5 -35t49.5 -13zM740 730v-193h-125v193h125z" />
    <glyph glyph-name="Dcroat" unicode="&#x110;" horiz-adv-x="755" 
d="M80 263h-64v150h64v262h267q111 0 193.5 -42.5t128.5 -118.5t46 -179q0 -77 -27 -138.5t-76 -105.5t-116.5 -67.5t-148.5 -23.5h-267v263zM265 263v-98h82q41 0 73.5 12t56 34.5t36 54t12.5 69.5q0 51 -22 89t-62 59.5t-94 21.5h-82v-92h118v-150h-118z" />
    <glyph glyph-name="dcroat" unicode="&#x111;" horiz-adv-x="683" 
d="M683 681v-140h-447v140h447zM305 -15q-78 0 -140 36t-98.5 96t-36.5 132q0 80 33 140t93 93t139 33q49 0 92 -21t70 -55.5t27 -73.5h-84v365h180v-481q0 -76 -35.5 -136t-97.5 -94t-142 -34zM305 154q29 0 50 13t33 35t12 48t-12 48t-33 35t-50 13q-28 0 -49.5 -13
t-33.5 -35t-12 -48t12 -48t33.5 -35t49.5 -13z" />
    <glyph glyph-name="Emacron" unicode="&#x112;" horiz-adv-x="631" 
d="M581 0h-351q-85 0 -122.5 42t-37.5 113v365q0 71 37.5 113t122.5 42h346v-165h-321v-345h326v-165zM553 255h-338l-25 165h363v-165zM508 905v-135h-385v135h385z" />
    <glyph glyph-name="emacron" unicode="&#x113;" horiz-adv-x="591" 
d="M310 -14q-80 0 -143.5 33.5t-100 94t-36.5 142.5q0 72 33.5 132t93.5 96t139 36q82 0 139 -36t86.5 -94.5t29.5 -125.5v-45h-376l25 32q0 -34 13.5 -59.5t37.5 -39t57 -13.5q36 0 63.5 18t40.5 47l138 -69q-32 -70 -94 -109.5t-146 -39.5zM211 312h161q-4 14 -14.5 26.5
t-26.5 20t-37 7.5t-38 -7.5t-28 -19.5t-17 -27zM488 730v-135h-385v135h385z" />
    <glyph glyph-name="Edotaccent" unicode="&#x116;" horiz-adv-x="631" 
d="M581 0h-351q-85 0 -122.5 42t-37.5 113v365q0 71 37.5 113t122.5 42h346v-165h-321v-345h326v-165zM553 255h-338l-25 165h363v-165zM316 728q-29 0 -54 14.5t-39.5 39.5t-14.5 54q0 30 14.5 54.5t39.5 39t54 14.5q30 0 54.5 -14.5t39 -39t14.5 -54.5q0 -29 -14.5 -54
t-39 -39.5t-54.5 -14.5z" />
    <glyph glyph-name="edotaccent" unicode="&#x117;" horiz-adv-x="591" 
d="M310 -14q-80 0 -143.5 33.5t-100 94t-36.5 142.5q0 72 33.5 132t93.5 96t139 36q82 0 139 -36t86.5 -94.5t29.5 -125.5v-45h-376l25 32q0 -34 13.5 -59.5t37.5 -39t57 -13.5q36 0 63.5 18t40.5 47l138 -69q-32 -70 -94 -109.5t-146 -39.5zM211 312h161q-4 14 -14.5 26.5
t-26.5 20t-37 7.5t-38 -7.5t-28 -19.5t-17 -27zM296 553q-29 0 -54 14.5t-39.5 39.5t-14.5 54q0 30 14.5 54.5t39.5 39t54 14.5q30 0 54.5 -14.5t39 -39t14.5 -54.5q0 -29 -14.5 -54t-39 -39.5t-54.5 -14.5z" />
    <glyph glyph-name="Eogonek" unicode="&#x118;" horiz-adv-x="631" 
d="M581 0h-351q-85 0 -122.5 42t-37.5 113v365q0 71 37.5 113t122.5 42h346v-165h-321v-345h326v-165zM553 255h-338l-25 165h363v-165zM634 -171l-61 -138q-60 5 -107.5 27.5t-74.5 59t-27 83.5q0 42 17 75.5t48 63.5h153q-31 -26 -45 -48.5t-14 -45.5q0 -37 32.5 -54.5
t78.5 -22.5z" />
    <glyph glyph-name="eogonek" unicode="&#x119;" horiz-adv-x="591" 
d="M310 -14q-80 0 -143.5 33.5t-100 94t-36.5 142.5q0 72 33.5 132t93.5 96t139 36q82 0 139 -36t86.5 -94.5t29.5 -125.5v-45h-376l25 32q0 -34 13.5 -59.5t37.5 -39t57 -13.5q36 0 63.5 18t40.5 47l138 -69q-32 -70 -94 -109.5t-146 -39.5zM211 312h161q-4 14 -14.5 26.5
t-26.5 20t-37 7.5t-38 -7.5t-28 -19.5t-17 -27zM452 -171l-61 -138q-60 5 -107.5 27.5t-74.5 59t-27 83.5q0 42 17 75.5t48 63.5h153q-31 -26 -45 -48.5t-14 -45.5q0 -37 32.5 -54.5t78.5 -22.5z" />
    <glyph glyph-name="Ecaron" unicode="&#x11a;" horiz-adv-x="631" 
d="M581 0h-351q-85 0 -122.5 42t-37.5 113v365q0 71 37.5 113t122.5 42h346v-165h-321v-345h326v-165zM553 255h-338l-25 165h363v-165zM168 816l-77 109h173l53 -75q3 -4 -0.5 -3.5t-1.5 3.5l53 75h173l-77 -109q-26 -37 -65.5 -55t-82.5 -18t-82.5 18t-65.5 55z" />
    <glyph glyph-name="ecaron" unicode="&#x11b;" horiz-adv-x="591" 
d="M310 -14q-80 0 -143.5 33.5t-100 94t-36.5 142.5q0 72 33.5 132t93.5 96t139 36q82 0 139 -36t86.5 -94.5t29.5 -125.5v-45h-376l25 32q0 -34 13.5 -59.5t37.5 -39t57 -13.5q36 0 63.5 18t40.5 47l138 -69q-32 -70 -94 -109.5t-146 -39.5zM211 312h161q-4 14 -14.5 26.5
t-26.5 20t-37 7.5t-38 -7.5t-28 -19.5t-17 -27zM148 641l-77 109h173l53 -75q3 -4 -0.5 -3.5t-1.5 3.5l53 75h173l-77 -109q-26 -37 -65.5 -55t-82.5 -18t-82.5 18t-65.5 55z" />
    <glyph glyph-name="Gbreve" unicode="&#x11e;" horiz-adv-x="722" 
d="M386 -15q-76 0 -140.5 27t-113 75t-75.5 112t-27 138t26.5 138t75 112t113.5 75t141 27q60 0 116.5 -20t101.5 -59t69 -96l-151 -84q-14 26 -32.5 45t-45.5 29.5t-66 10.5q-36 0 -65 -13.5t-50 -37.5t-32 -57t-11 -73q0 -42 11.5 -75.5t33 -57.5t52.5 -36.5t69 -12.5
q27 0 48 2.5t38 9t31 19.5l-1 139h180v-200q-26 -40 -69.5 -71t-101 -48.5t-125.5 -17.5zM387 748q-101 0 -150.5 44.5t-49.5 122.5v10h150v-10q0 -16 10.5 -31.5t39.5 -15.5t39.5 16t10.5 31v10h150v-10q0 -78 -49.5 -122.5t-150.5 -44.5z" />
    <glyph glyph-name="gbreve" unicode="&#x11f;" horiz-adv-x="630" 
d="M290 -245q-93 0 -159 40t-101 113l149 80q12 -25 37 -47t71 -22q35 0 60 15t39 43.5t14 68.5v49h32q0 -19 -14.5 -42.5t-47.5 -40.5t-89 -17q-69 0 -126 33t-91 91t-34 133q0 73 36.5 132.5t98.5 95t140 35.5q80 0 142 -34t97.5 -93.5t35.5 -136.5v-198q0 -90 -38 -157
t-103.5 -104t-148.5 -37zM302 164q27 0 48.5 11.5t34 32.5t12.5 48t-12.5 47t-34 31.5t-48.5 11.5q-26 0 -48 -11.5t-34.5 -31.5t-12.5 -47t12.5 -48t34.5 -32.5t48 -11.5zM311 573q-101 0 -150.5 44.5t-49.5 122.5v10h150v-10q0 -16 10.5 -31.5t39.5 -15.5t39.5 16t10.5 31
v10h150v-10q0 -78 -49.5 -122.5t-150.5 -44.5z" />
    <glyph glyph-name="Gdotaccent" unicode="&#x120;" horiz-adv-x="722" 
d="M386 -15q-76 0 -140.5 27t-113 75t-75.5 112t-27 138t26.5 138t75 112t113.5 75t141 27q60 0 116.5 -20t101.5 -59t69 -96l-151 -84q-14 26 -32.5 45t-45.5 29.5t-66 10.5q-36 0 -65 -13.5t-50 -37.5t-32 -57t-11 -73q0 -42 11.5 -75.5t33 -57.5t52.5 -36.5t69 -12.5
q27 0 48 2.5t38 9t31 19.5l-1 139h180v-200q-26 -40 -69.5 -71t-101 -48.5t-125.5 -17.5zM387 728q-29 0 -54 14.5t-39.5 39.5t-14.5 54q0 30 14.5 54.5t39.5 39t54 14.5q30 0 54.5 -14.5t39 -39t14.5 -54.5q0 -29 -14.5 -54t-39 -39.5t-54.5 -14.5z" />
    <glyph glyph-name="gdotaccent" unicode="&#x121;" horiz-adv-x="630" 
d="M290 -245q-93 0 -159 40t-101 113l149 80q12 -25 37 -47t71 -22q35 0 60 15t39 43.5t14 68.5v49h32q0 -19 -14.5 -42.5t-47.5 -40.5t-89 -17q-69 0 -126 33t-91 91t-34 133q0 73 36.5 132.5t98.5 95t140 35.5q80 0 142 -34t97.5 -93.5t35.5 -136.5v-198q0 -90 -38 -157
t-103.5 -104t-148.5 -37zM302 164q27 0 48.5 11.5t34 32.5t12.5 48t-12.5 47t-34 31.5t-48.5 11.5q-26 0 -48 -11.5t-34.5 -31.5t-12.5 -47t12.5 -48t34.5 -32.5t48 -11.5zM311 553q-29 0 -54 14.5t-39.5 39.5t-14.5 54q0 30 14.5 54.5t39.5 39t54 14.5q30 0 54.5 -14.5
t39 -39t14.5 -54.5q0 -29 -14.5 -54t-39 -39.5t-54.5 -14.5z" />
    <glyph glyph-name="Gcommaaccent" unicode="&#x122;" horiz-adv-x="722" 
d="M386 -15q-76 0 -140.5 27t-113 75t-75.5 112t-27 138t26.5 138t75 112t113.5 75t141 27q60 0 116.5 -20t101.5 -59t69 -96l-151 -84q-14 26 -32.5 45t-45.5 29.5t-66 10.5q-36 0 -65 -13.5t-50 -37.5t-32 -57t-11 -73q0 -42 11.5 -75.5t33 -57.5t52.5 -36.5t69 -12.5
q27 0 48 2.5t38 9t31 19.5l-1 139h180v-200q-26 -40 -69.5 -71t-101 -48.5t-125.5 -17.5zM400 -327h-97l30 181l132 -24zM378 -236q-37 0 -63.5 26.5t-26.5 63.5t26.5 63.5t63.5 26.5t63.5 -26.5t26.5 -63.5t-26.5 -63.5t-63.5 -26.5z" />
    <glyph glyph-name="gcommaaccent" unicode="&#x123;" horiz-adv-x="630" 
d="M290 -245q-93 0 -159 40t-101 113l149 80q12 -25 37 -47t71 -22q35 0 60 15t39 43.5t14 68.5v49h32q0 -19 -14.5 -42.5t-47.5 -40.5t-89 -17q-69 0 -126 33t-91 91t-34 133q0 73 36.5 132.5t98.5 95t140 35.5q80 0 142 -34t97.5 -93.5t35.5 -136.5v-198q0 -90 -38 -157
t-103.5 -104t-148.5 -37zM302 164q27 0 48.5 11.5t34 32.5t12.5 48t-12.5 47t-34 31.5t-48.5 11.5q-26 0 -48 -11.5t-34.5 -31.5t-12.5 -47t12.5 -48t34.5 -32.5t48 -11.5zM290 814h97l-30 -181l-132 24zM312 723q37 0 63.5 -26.5t26.5 -63.5t-26.5 -63.5t-63.5 -26.5
t-63.5 26.5t-26.5 63.5t26.5 63.5t63.5 26.5z" />
    <glyph glyph-name="Hbar" unicode="&#x126;" horiz-adv-x="795" 
d="M80 451h-74v150h74v74h185v-74h265v74h185v-74h78v-150h-78v-451h-185v201h-265v-201h-185v451zM265 461v-90h265v90h-265z" />
    <glyph glyph-name="hbar" unicode="&#x127;" horiz-adv-x="699" 
d="M447 681v-140h-447v140h447zM274 0h-180v730h180v-365h-84q0 39 27.5 73.5t74 55.5t102.5 21q79 0 131 -30.5t78 -87.5t26 -138v-259l-180 1v239q0 28 -9.5 52t-28.5 39t-46 15q-28 0 -48.5 -13.5t-31.5 -37.5t-11 -55v-240z" />
    <glyph glyph-name="Imacron" unicode="&#x12a;" horiz-adv-x="345" 
d="M80 675h185v-675h-185v675zM365 905v-135h-385v135h385z" />
    <glyph glyph-name="imacron" unicode="&#x12b;" horiz-adv-x="320" 
d="M70 500h180v-500h-180v500zM352 730v-135h-385v135h385z" />
    <glyph glyph-name="Iogonek" unicode="&#x12e;" horiz-adv-x="345" 
d="M80 675h185v-675h-185v675zM318 -171l-61 -138q-60 5 -107.5 27.5t-74.5 59t-27 83.5q0 42 17 75.5t48 63.5h153q-31 -26 -45 -48.5t-14 -45.5q0 -37 32.5 -54.5t78.5 -22.5z" />
    <glyph glyph-name="iogonek" unicode="&#x12f;" horiz-adv-x="320" 
d="M70 500h180v-500h-180v500zM160 553q-29 0 -54 14.5t-39.5 39.5t-14.5 54q0 30 14.5 54.5t39.5 39t54 14.5q30 0 54.5 -14.5t39 -39t14.5 -54.5q0 -29 -14.5 -54t-39 -39.5t-54.5 -14.5zM302 -171l-61 -138q-60 5 -107.5 27.5t-74.5 59t-27 83.5q0 42 17 75.5t48 63.5
h153q-31 -26 -45 -48.5t-14 -45.5q0 -37 32.5 -54.5t78.5 -22.5z" />
    <glyph glyph-name="Idotaccent" unicode="&#x130;" horiz-adv-x="345" 
d="M80 675h185v-675h-185v675zM173 728q-29 0 -54 14.5t-39.5 39.5t-14.5 54q0 30 14.5 54.5t39.5 39t54 14.5q30 0 54.5 -14.5t39 -39t14.5 -54.5q0 -29 -14.5 -54t-39 -39.5t-54.5 -14.5z" />
    <glyph glyph-name="dotlessi" unicode="&#x131;" horiz-adv-x="320" 
d="M70 500h180v-500h-180v500z" />
    <glyph glyph-name="Kcommaaccent" unicode="&#x136;" horiz-adv-x="742" 
d="M732 0h-225l-131 194q-25 38 -39 73.5t-14 69.5q0 35 13 70.5t40 72.5l142 195h208l-175 -243q-21 -29 -31.5 -49t-10.5 -39t10.5 -39t31.5 -50zM265 0h-185v675h185v-675zM403 421v-170h-197v170h197zM383 -327h-97l30 181l132 -24zM361 -236q-37 0 -63.5 26.5
t-26.5 63.5t26.5 63.5t63.5 26.5t63.5 -26.5t26.5 -63.5t-26.5 -63.5t-63.5 -26.5z" />
    <glyph glyph-name="kcommaaccent" unicode="&#x137;" horiz-adv-x="636" 
d="M630 0h-211l-120 165q-30 42 -30 88q0 47 30 87l119 160h213l-209 -268q3 5 5.5 10t2.5 11q0 5 -2.5 10.5t-5.5 9.5zM250 0h-180v730h180v-730zM222 187v130h119v-130h-119zM340 -327h-97l30 181l132 -24zM318 -236q-37 0 -63.5 26.5t-26.5 63.5t26.5 63.5t63.5 26.5
t63.5 -26.5t26.5 -63.5t-26.5 -63.5t-63.5 -26.5z" />
    <glyph glyph-name="Lacute" unicode="&#x139;" horiz-adv-x="573" 
d="M265 675v-505h298v-170h-323q-85 0 -122.5 42t-37.5 113v520h185zM253 748h-178l127 177h183z" />
    <glyph glyph-name="lacute" unicode="&#x13a;" horiz-adv-x="320" 
d="M70 730h180v-730h-180v730zM240 803h-178l127 177h183z" />
    <glyph glyph-name="Lcommaaccent" unicode="&#x13b;" horiz-adv-x="573" 
d="M265 675v-505h298v-170h-323q-85 0 -122.5 42t-37.5 113v520h185zM349 -327h-97l30 181l132 -24zM327 -236q-37 0 -63.5 26.5t-26.5 63.5t26.5 63.5t63.5 26.5t63.5 -26.5t26.5 -63.5t-26.5 -63.5t-63.5 -26.5z" />
    <glyph glyph-name="lcommaaccent" unicode="&#x13c;" horiz-adv-x="320" 
d="M70 730h180v-730h-180v730zM182 -327h-97l30 181l132 -24zM160 -236q-37 0 -63.5 26.5t-26.5 63.5t26.5 63.5t63.5 26.5t63.5 -26.5t26.5 -63.5t-26.5 -63.5t-63.5 -26.5z" />
    <glyph glyph-name="Lcaron" unicode="&#x13d;" horiz-adv-x="573" 
d="M265 675v-505h298v-170h-323q-85 0 -122.5 42t-37.5 113v520h185zM443 675v-193h-125v193h125z" />
    <glyph glyph-name="lcaron" unicode="&#x13e;" horiz-adv-x="320" 
d="M70 730h180v-730h-180v730zM410 730v-193h-125v193h125z" />
    <glyph glyph-name="Lslash" unicode="&#x141;" horiz-adv-x="563" 
d="M-5 315l427 253v-153l-427 -250v150zM265 675v-505h298v-170h-323q-85 0 -122.5 42t-37.5 113v520h185z" />
    <glyph glyph-name="lslash" unicode="&#x142;" horiz-adv-x="358" 
d="M20 355l318 201v-153l-318 -198v150zM89 730h180v-730h-180v730z" />
    <glyph glyph-name="Nacute" unicode="&#x143;" horiz-adv-x="790" 
d="M250 0h-175v576q0 36 16.5 62t43 39.5t55.5 13.5q35 0 64.5 -12.5t47.5 -41.5l291 -461q-9 11 -16 15t-15 4q-9 0 -15.5 -8t-6.5 -23v511h175v-576q0 -36 -16.5 -61.5t-42.5 -39t-56 -13.5q-34 0 -64 13t-48 41l-287 455q7 -9 13.5 -12.5t14.5 -3.5q10 0 15.5 8t5.5 24
v-510zM489 748h-178l127 177h183z" />
    <glyph glyph-name="nacute" unicode="&#x144;" horiz-adv-x="642" 
d="M321 340q-33 0 -53 -16t-29 -42t-9 -58v-224h-180v246q0 74 29 135t89 97.5t153 36.5t153 -36.5t89 -97.5t29 -135v-246h-180v224q0 32 -9 58t-29 42t-53 16zM401 573h-178l127 177h183z" />
    <glyph glyph-name="Ncommaaccent" unicode="&#x145;" horiz-adv-x="790" 
d="M250 0h-175v576q0 36 16.5 62t43 39.5t55.5 13.5q35 0 64.5 -12.5t47.5 -41.5l291 -461q-9 11 -16 15t-15 4q-9 0 -15.5 -8t-6.5 -23v511h175v-576q0 -36 -16.5 -61.5t-42.5 -39t-56 -13.5q-34 0 -64 13t-48 41l-287 455q7 -9 13.5 -12.5t14.5 -3.5q10 0 15.5 8t5.5 24
v-510zM416 -327h-97l30 181l132 -24zM394 -236q-37 0 -63.5 26.5t-26.5 63.5t26.5 63.5t63.5 26.5t63.5 -26.5t26.5 -63.5t-26.5 -63.5t-63.5 -26.5z" />
    <glyph glyph-name="ncommaaccent" unicode="&#x146;" horiz-adv-x="642" 
d="M321 340q-33 0 -53 -16t-29 -42t-9 -58v-224h-180v246q0 74 29 135t89 97.5t153 36.5t153 -36.5t89 -97.5t29 -135v-246h-180v224q0 32 -9 58t-29 42t-53 16zM343 -327h-97l30 181l132 -24zM321 -236q-37 0 -63.5 26.5t-26.5 63.5t26.5 63.5t63.5 26.5t63.5 -26.5
t26.5 -63.5t-26.5 -63.5t-63.5 -26.5z" />
    <glyph glyph-name="Ncaron" unicode="&#x147;" horiz-adv-x="790" 
d="M250 0h-175v576q0 36 16.5 62t43 39.5t55.5 13.5q35 0 64.5 -12.5t47.5 -41.5l291 -461q-9 11 -16 15t-15 4q-9 0 -15.5 -8t-6.5 -23v511h175v-576q0 -36 -16.5 -61.5t-42.5 -39t-56 -13.5q-34 0 -64 13t-48 41l-287 455q7 -9 13.5 -12.5t14.5 -3.5q10 0 15.5 8t5.5 24
v-510zM261 816l-77 109h173l53 -75q3 -4 -0.5 -3.5t-1.5 3.5l53 75h173l-77 -109q-26 -37 -65.5 -55t-82.5 -18t-82.5 18t-65.5 55z" />
    <glyph glyph-name="ncaron" unicode="&#x148;" horiz-adv-x="642" 
d="M321 340q-33 0 -53 -16t-29 -42t-9 -58v-224h-180v246q0 74 29 135t89 97.5t153 36.5t153 -36.5t89 -97.5t29 -135v-246h-180v224q0 32 -9 58t-29 42t-53 16zM173 641l-77 109h173l53 -75q3 -4 -0.5 -3.5t-1.5 3.5l53 75h173l-77 -109q-26 -37 -65.5 -55t-82.5 -18
t-82.5 18t-65.5 55z" />
    <glyph glyph-name="Eng" unicode="&#x14a;" horiz-adv-x="790" 
d="M250 0h-175v576q0 36 16.5 62t43 39.5t55.5 13.5q35 0 64.5 -12.5t47.5 -41.5l291 -461q-9 11 -16 15t-15 4q-9 0 -15.5 -8t-6.5 -23v511h175v-576q0 -36 -16.5 -61.5t-42.5 -39t-56 -13.5q-34 0 -64 13t-48 41l-287 455q7 -9 13.5 -12.5t14.5 -3.5q10 0 15.5 8t5.5 24
v-510zM540 120h175v-133q0 -77 -33.5 -128t-91.5 -76t-134 -25l-1 160q47 0 66 13.5t19 41.5v147z" />
    <glyph glyph-name="eng" unicode="&#x14b;" horiz-adv-x="642" 
d="M230 0h-180v246q0 74 29 135t89 97.5t153 36.5t153 -36.5t89 -97.5t29 -135v-259q0 -67 -29 -118.5t-86.5 -81t-143.5 -29.5l-10 170q47 0 68 18.5t21 46.5v231q0 32 -9 58t-29 42t-53 16t-53 -16t-29 -42t-9 -58v-224z" />
    <glyph glyph-name="Omacron" unicode="&#x14c;" horiz-adv-x="772" 
d="M386 -15q-76 0 -141 26.5t-113.5 74t-75 112t-26.5 139.5t26.5 139.5t75 112t113.5 74t141 26.5q77 0 141.5 -26.5t113 -74t75 -112t26.5 -139.5t-26.5 -139.5t-75 -112t-113 -74t-141.5 -26.5zM386 160q35 0 65.5 13.5t53 37.5t35 56.5t12.5 69.5q0 38 -12.5 70t-35 56
t-53 37.5t-65.5 13.5t-65.5 -13.5t-53 -37.5t-35 -56t-12.5 -70q0 -37 12.5 -69.5t35 -56.5t53 -37.5t65.5 -13.5zM578 905v-135h-385v135h385z" />
    <glyph glyph-name="omacron" unicode="&#x14d;" horiz-adv-x="610" 
d="M305 -15q-78 0 -140 36t-98.5 96.5t-36.5 133.5t36.5 133t98.5 96t140 36t140.5 -36t98.5 -96t36 -133t-36 -133.5t-98.5 -96.5t-140.5 -36zM305 154q29 0 50 13t33 35t12 48q0 27 -12 49t-33 35t-50 13q-28 0 -49.5 -13t-33.5 -35t-12 -49q0 -26 12 -48t33.5 -35
t49.5 -13zM497 730v-135h-385v135h385z" />
    <glyph glyph-name="Ohungarumlaut" unicode="&#x150;" horiz-adv-x="772" 
d="M386 -15q-76 0 -141 26.5t-113.5 74t-75 112t-26.5 139.5t26.5 139.5t75 112t113.5 74t141 26.5q77 0 141.5 -26.5t113 -74t75 -112t26.5 -139.5t-26.5 -139.5t-75 -112t-113 -74t-141.5 -26.5zM386 160q35 0 65.5 13.5t53 37.5t35 56.5t12.5 69.5q0 38 -12.5 70t-35 56
t-53 37.5t-65.5 13.5t-65.5 -13.5t-53 -37.5t-35 -56t-12.5 -70q0 -37 12.5 -69.5t35 -56.5t53 -37.5t65.5 -13.5zM334 748h-168l127 177h173zM594 748h-168l127 177h173z" />
    <glyph glyph-name="ohungarumlaut" unicode="&#x151;" horiz-adv-x="610" 
d="M305 -15q-78 0 -140 36t-98.5 96.5t-36.5 133.5t36.5 133t98.5 96t140 36t140.5 -36t98.5 -96t36 -133t-36 -133.5t-98.5 -96.5t-140.5 -36zM305 154q29 0 50 13t33 35t12 48q0 27 -12 49t-33 35t-50 13q-28 0 -49.5 -13t-33.5 -35t-12 -49q0 -26 12 -48t33.5 -35
t49.5 -13zM253 573h-168l127 177h173zM513 573h-168l127 177h173z" />
    <glyph glyph-name="OE" unicode="&#x152;" horiz-adv-x="1113" 
d="M386 -15q-76 0 -141 26.5t-113.5 74t-75 112t-26.5 139.5t26.5 139.5t75 112t113.5 74t141 26.5q77 0 141.5 -26.5t113 -74t75 -112t26.5 -139.5t-26.5 -139.5t-75 -112t-113 -74t-141.5 -26.5zM386 160q35 0 65.5 13.5t53 37.5t35 56.5t12.5 69.5q0 38 -12.5 70t-35 56
t-53 37.5t-65.5 13.5t-65.5 -13.5t-53 -37.5t-35 -56t-12.5 -70q0 -37 12.5 -69.5t35 -56.5t53 -37.5t65.5 -13.5zM1063 0h-351q-85 0 -122.5 42t-37.5 113v365q0 71 37.5 113t122.5 42h346v-165h-321v-345h326v-165zM1035 255h-338l-25 165h363v-165z" />
    <glyph glyph-name="oe" unicode="&#x153;" horiz-adv-x="981" 
d="M300 -15q-57 0 -106 21t-86 57.5t-57.5 84.5t-20.5 103q0 73 36 132.5t97.5 95.5t136.5 36q81 0 139 -36t89.5 -95.5t31.5 -132.5t-31.5 -133.5t-89.5 -96.5t-139 -36zM305 154q29 0 50 13t33 35t12 48q0 27 -12 48.5t-33 34.5t-50 13q-28 0 -49.5 -13t-33.5 -34.5
t-12 -48.5q0 -26 12 -48t33.5 -35t49.5 -13zM700 -14q-80 0 -143.5 33.5t-100 94t-36.5 142.5q0 72 33.5 132t93.5 96t139 36q82 0 139 -36t86.5 -94.5t29.5 -125.5v-45h-376l25 32q0 -34 13.5 -59.5t37.5 -39t57 -13.5q36 0 63.5 18t40.5 47l138 -69q-32 -70 -94 -109.5
t-146 -39.5zM601 312h161q-4 14 -14.5 26.5t-26.5 20t-37 7.5t-38 -7.5t-28 -19.5t-17 -27z" />
    <glyph glyph-name="Racute" unicode="&#x154;" horiz-adv-x="711" 
d="M263 0h-183v675h283q80 0 144 -25t101 -74.5t37 -124.5q0 -56 -24.5 -100.5t-68 -70.5t-102.5 -26l-50 35q60 0 94.5 -14t57.5 -46t50 -87l69 -142h-201l-63 127q-11 23 -25 37t-34 20t-50 6h-49v164h114q27 0 48 9.5t32.5 27t11.5 41.5q0 26 -11.5 42t-32 23.5
t-46.5 7.5h-100zM436 748h-178l127 177h183z" />
    <glyph glyph-name="racute" unicode="&#x155;" horiz-adv-x="370" 
d="M230 0h-180v277q0 67 26 121t79 86t134 32q26 0 51.5 -4.5t44.5 -12.5v-173q-18 10 -39 15t-40 5q-35 0 -55.5 -19.5t-20.5 -55.5v-271zM333 573h-178l127 177h183z" />
    <glyph glyph-name="Rcommaaccent" unicode="&#x156;" horiz-adv-x="711" 
d="M263 0h-183v675h283q80 0 144 -25t101 -74.5t37 -124.5q0 -56 -24.5 -100.5t-68 -70.5t-102.5 -26l-50 35q60 0 94.5 -14t57.5 -46t50 -87l69 -142h-201l-63 127q-11 23 -25 37t-34 20t-50 6h-49v164h114q27 0 48 9.5t32.5 27t11.5 41.5q0 26 -11.5 42t-32 23.5
t-46.5 7.5h-100zM378 -327h-97l30 181l132 -24zM356 -236q-37 0 -63.5 26.5t-26.5 63.5t26.5 63.5t63.5 26.5t63.5 -26.5t26.5 -63.5t-26.5 -63.5t-63.5 -26.5z" />
    <glyph glyph-name="rcommaaccent" unicode="&#x157;" horiz-adv-x="370" 
d="M230 0h-180v277q0 67 26 121t79 86t134 32q26 0 51.5 -4.5t44.5 -12.5v-173q-18 10 -39 15t-40 5q-35 0 -55.5 -19.5t-20.5 -55.5v-271zM163 -327h-97l30 181l132 -24zM141 -236q-37 0 -63.5 26.5t-26.5 63.5t26.5 63.5t63.5 26.5t63.5 -26.5t26.5 -63.5t-26.5 -63.5
t-63.5 -26.5z" />
    <glyph glyph-name="Rcaron" unicode="&#x158;" horiz-adv-x="711" 
d="M263 0h-183v675h283q80 0 144 -25t101 -74.5t37 -124.5q0 -56 -24.5 -100.5t-68 -70.5t-102.5 -26l-50 35q60 0 94.5 -14t57.5 -46t50 -87l69 -142h-201l-63 127q-11 23 -25 37t-34 20t-50 6h-49v164h114q27 0 48 9.5t32.5 27t11.5 41.5q0 26 -11.5 42t-32 23.5
t-46.5 7.5h-100zM208 816l-77 109h173l53 -75q3 -4 -0.5 -3.5t-1.5 3.5l53 75h173l-77 -109q-26 -37 -65.5 -55t-82.5 -18t-82.5 18t-65.5 55z" />
    <glyph glyph-name="rcaron" unicode="&#x159;" horiz-adv-x="370" 
d="M230 0h-180v277q0 67 26 121t79 86t134 32q26 0 51.5 -4.5t44.5 -12.5v-173q-18 10 -39 15t-40 5q-35 0 -55.5 -19.5t-20.5 -55.5v-271zM105 641l-77 109h173l53 -75q3 -4 -0.5 -3.5t-1.5 3.5l53 75h173l-77 -109q-26 -37 -65.5 -55t-82.5 -18t-82.5 18t-65.5 55z" />
    <glyph glyph-name="Sacute" unicode="&#x15a;" horiz-adv-x="620" 
d="M311 -16q-96 0 -167.5 39t-106.5 114l154 77q14 -31 43.5 -45.5t76.5 -14.5q25 0 44 5t30.5 15.5t11.5 26.5q0 20 -12.5 30t-35 15.5t-53.5 9.5q-38 6 -81 17.5t-81.5 35t-62.5 63t-24 99.5q0 62 34 111.5t93 78.5t134 29q89 0 159.5 -39t104.5 -114l-154 -77
q-14 25 -42.5 42.5t-75.5 17.5q-22 0 -37 -4.5t-23 -14t-8 -23.5q0 -19 14 -30.5t38.5 -18t57.5 -11.5q38 -6 79.5 -17.5t78 -35t59.5 -62.5t23 -100q0 -62 -36.5 -111.5t-98 -78.5t-136.5 -29zM389 748h-178l127 177h183z" />
    <glyph glyph-name="sacute" unicode="&#x15b;" horiz-adv-x="514" 
d="M259 -16q-85 0 -141 29t-88 86l130 73q14 -24 35 -36t55 -12q19 0 30.5 4t17.5 10.5t6 14.5q0 15 -19 22t-49 12t-64 12.5t-64 23.5t-49 45.5t-19 77.5q0 47 25.5 85.5t74 61.5t116.5 23q60 0 102 -17t69.5 -43t41.5 -54l-130 -74q-8 23 -30.5 35.5t-48.5 12.5
q-13 0 -22 -3.5t-13.5 -9t-4.5 -13.5q0 -15 19 -23t49 -13t64 -13t64 -24t49 -44.5t19 -75.5q0 -52 -31 -91t-82 -60.5t-112 -21.5zM337 573h-178l127 177h183z" />
    <glyph glyph-name="Scedilla" unicode="&#x15e;" horiz-adv-x="620" 
d="M311 -16q-96 0 -167.5 39t-106.5 114l154 77q14 -31 43.5 -45.5t76.5 -14.5q25 0 44 5t30.5 15.5t11.5 26.5q0 20 -12.5 30t-35 15.5t-53.5 9.5q-38 6 -81 17.5t-81.5 35t-62.5 63t-24 99.5q0 62 34 111.5t93 78.5t134 29q89 0 159.5 -39t104.5 -114l-154 -77
q-14 25 -42.5 42.5t-75.5 17.5q-22 0 -37 -4.5t-23 -14t-8 -23.5q0 -19 14 -30.5t38.5 -18t57.5 -11.5q38 -6 79.5 -17.5t78 -35t59.5 -62.5t23 -100q0 -62 -36.5 -111.5t-98 -78.5t-136.5 -29zM389 0l-20 -67h-163l25 67h158zM259 -305l-57 118q48 7 64.5 21.5t16.5 31.5
q0 19 -19 26t-49 7h-22l31 83h51q71 1 117 -32t46 -95q0 -45 -23.5 -78.5t-64 -54t-91.5 -27.5z" />
    <glyph glyph-name="scedilla" unicode="&#x15f;" horiz-adv-x="514" 
d="M259 -16q-85 0 -141 29t-88 86l130 73q14 -24 35 -36t55 -12q19 0 30.5 4t17.5 10.5t6 14.5q0 15 -19 22t-49 12t-64 12.5t-64 23.5t-49 45.5t-19 77.5q0 47 25.5 85.5t74 61.5t116.5 23q60 0 102 -17t69.5 -43t41.5 -54l-130 -74q-8 23 -30.5 35.5t-48.5 12.5
q-13 0 -22 -3.5t-13.5 -9t-4.5 -13.5q0 -15 19 -23t49 -13t64 -13t64 -24t49 -44.5t19 -75.5q0 -52 -31 -91t-82 -60.5t-112 -21.5zM337 0l-20 -67h-163l25 67h158zM207 -305l-57 118q48 7 64.5 21.5t16.5 31.5q0 19 -19 26t-49 7h-22l31 83h51q71 1 117 -32t46 -95
q0 -45 -23.5 -78.5t-64 -54t-91.5 -27.5z" />
    <glyph glyph-name="Scaron" unicode="&#x160;" horiz-adv-x="620" 
d="M311 -16q-96 0 -167.5 39t-106.5 114l154 77q14 -31 43.5 -45.5t76.5 -14.5q25 0 44 5t30.5 15.5t11.5 26.5q0 20 -12.5 30t-35 15.5t-53.5 9.5q-38 6 -81 17.5t-81.5 35t-62.5 63t-24 99.5q0 62 34 111.5t93 78.5t134 29q89 0 159.5 -39t104.5 -114l-154 -77
q-14 25 -42.5 42.5t-75.5 17.5q-22 0 -37 -4.5t-23 -14t-8 -23.5q0 -19 14 -30.5t38.5 -18t57.5 -11.5q38 -6 79.5 -17.5t78 -35t59.5 -62.5t23 -100q0 -62 -36.5 -111.5t-98 -78.5t-136.5 -29zM161 816l-77 109h173l53 -75q3 -4 -0.5 -3.5t-1.5 3.5l53 75h173l-77 -109
q-26 -37 -65.5 -55t-82.5 -18t-82.5 18t-65.5 55z" />
    <glyph glyph-name="scaron" unicode="&#x161;" horiz-adv-x="514" 
d="M259 -16q-85 0 -141 29t-88 86l130 73q14 -24 35 -36t55 -12q19 0 30.5 4t17.5 10.5t6 14.5q0 15 -19 22t-49 12t-64 12.5t-64 23.5t-49 45.5t-19 77.5q0 47 25.5 85.5t74 61.5t116.5 23q60 0 102 -17t69.5 -43t41.5 -54l-130 -74q-8 23 -30.5 35.5t-48.5 12.5
q-13 0 -22 -3.5t-13.5 -9t-4.5 -13.5q0 -15 19 -23t49 -13t64 -13t64 -24t49 -44.5t19 -75.5q0 -52 -31 -91t-82 -60.5t-112 -21.5zM109 641l-77 109h173l53 -75q3 -4 -0.5 -3.5t-1.5 3.5l53 75h173l-77 -109q-26 -37 -65.5 -55t-82.5 -18t-82.5 18t-65.5 55z" />
    <glyph glyph-name="Tcedilla" unicode="&#x162;" horiz-adv-x="597" 
d="M206 675h185v-675h-185v675zM582 675v-170h-567v170h567zM379 0l-20 -67h-163l25 67h158zM249 -305l-57 118q48 7 64.5 21.5t16.5 31.5q0 19 -19 26t-49 7h-22l31 83h51q71 1 117 -32t46 -95q0 -45 -23.5 -78.5t-64 -54t-91.5 -27.5z" />
    <glyph glyph-name="tcedilla" unicode="&#x163;" horiz-adv-x="469" 
d="M334 -16q-81 0 -134 29.5t-79 81.5t-26 118v412h180v-406q0 -36 20.5 -55.5t55.5 -19.5q19 0 44.5 5t43.5 15v-159q-19 -10 -49 -15.5t-56 -5.5zM439 350h-429v150h429v-150zM394 0l-20 -67h-163l25 67h158zM264 -305l-57 118q48 7 64.5 21.5t16.5 31.5q0 19 -19 26
t-49 7h-22l31 83h51q71 1 117 -32t46 -95q0 -45 -23.5 -78.5t-64 -54t-91.5 -27.5z" />
    <glyph glyph-name="Tcaron" unicode="&#x164;" horiz-adv-x="597" 
d="M206 675h185v-675h-185v675zM582 675v-170h-567v170h567zM151 816l-77 109h173l53 -75q3 -4 -0.5 -3.5t-1.5 3.5l53 75h173l-77 -109q-26 -37 -65.5 -55t-82.5 -18t-82.5 18t-65.5 55z" />
    <glyph glyph-name="tcaron" unicode="&#x165;" horiz-adv-x="469" 
d="M334 -16q-81 0 -134 29.5t-79 81.5t-26 118v412h180v-406q0 -36 20.5 -55.5t55.5 -19.5q19 0 44.5 5t43.5 15v-159q-19 -10 -49 -15.5t-56 -5.5zM439 350h-429v150h429v-150zM440 730v-193h-125v193h125z" />
    <glyph glyph-name="Tbar" unicode="&#x166;" horiz-adv-x="597" 
d="M206 505h-191v170h567v-170h-191v-134h120v-150h-120v-221h-185v221h-120v150h120v134z" />
    <glyph glyph-name="tbar" unicode="&#x167;" horiz-adv-x="469" 
d="M408 201h-379v110h379v-110zM334 -16q-81 0 -134 32t-79 86.5t-26 120.5v402h180v-406q0 -36 20.5 -55.5t55.5 -19.5q26 0 48 5t40 15v-159q-19 -10 -49 -15.5t-56 -5.5zM439 371h-429v129h429v-129z" />
    <glyph glyph-name="Umacron" unicode="&#x16a;" horiz-adv-x="745" 
d="M372 -12q-159 0 -233 83.5t-74 233.5v370h185v-365q0 -78 30.5 -112.5t91.5 -34.5q62 0 92.5 34.5t30.5 112.5v365h185v-370q0 -150 -75 -233.5t-233 -83.5zM565 905v-135h-385v135h385z" />
    <glyph glyph-name="umacron" unicode="&#x16b;" horiz-adv-x="606" 
d="M303 160q29 0 47.5 16t27 42.5t8.5 57.5v224h180v-246q0 -73 -29 -134.5t-87 -98t-147 -36.5q-88 0 -146.5 36.5t-87.5 98t-29 134.5v246h180v-224q0 -31 8.5 -57.5t27 -42.5t47.5 -16zM495 730v-135h-385v135h385z" />
    <glyph glyph-name="Uring" unicode="&#x16e;" horiz-adv-x="745" 
d="M372 -12q-159 0 -233 83.5t-74 233.5v370h185v-365q0 -78 30.5 -112.5t91.5 -34.5q62 0 92.5 34.5t30.5 112.5v365h185v-370q0 -150 -75 -233.5t-233 -83.5zM373 693q-39 0 -71.5 19.5t-52 52t-19.5 71.5t19.5 71.5t52 52t71.5 19.5t71.5 -19.5t52 -52t19.5 -71.5
t-19.5 -71.5t-52 -52t-71.5 -19.5zM373 796q17 0 28.5 12t11.5 28q0 17 -11.5 28.5t-28.5 11.5q-16 0 -28 -11.5t-12 -28.5q0 -16 12 -28t28 -12z" />
    <glyph glyph-name="uring" unicode="&#x16f;" horiz-adv-x="606" 
d="M303 160q29 0 47.5 16t27 42.5t8.5 57.5v224h180v-246q0 -73 -29 -134.5t-87 -98t-147 -36.5q-88 0 -146.5 36.5t-87.5 98t-29 134.5v246h180v-224q0 -31 8.5 -57.5t27 -42.5t47.5 -16zM303 518q-39 0 -71.5 19.5t-52 52t-19.5 71.5t19.5 71.5t52 52t71.5 19.5
t71.5 -19.5t52 -52t19.5 -71.5t-19.5 -71.5t-52 -52t-71.5 -19.5zM303 621q17 0 28.5 12t11.5 28q0 17 -11.5 28.5t-28.5 11.5q-16 0 -28 -11.5t-12 -28.5q0 -16 12 -28t28 -12z" />
    <glyph glyph-name="Uhungarumlaut" unicode="&#x170;" horiz-adv-x="745" 
d="M372 -12q-159 0 -233 83.5t-74 233.5v370h185v-365q0 -78 30.5 -112.5t91.5 -34.5q62 0 92.5 34.5t30.5 112.5v365h185v-370q0 -150 -75 -233.5t-233 -83.5zM321 748h-168l127 177h173zM581 748h-168l127 177h173z" />
    <glyph glyph-name="uhungarumlaut" unicode="&#x171;" horiz-adv-x="606" 
d="M303 160q29 0 47.5 16t27 42.5t8.5 57.5v224h180v-246q0 -73 -29 -134.5t-87 -98t-147 -36.5q-88 0 -146.5 36.5t-87.5 98t-29 134.5v246h180v-224q0 -31 8.5 -57.5t27 -42.5t47.5 -16zM251 573h-168l127 177h173zM511 573h-168l127 177h173z" />
    <glyph glyph-name="Uogonek" unicode="&#x172;" horiz-adv-x="745" 
d="M372 -12q-159 0 -233 83.5t-74 233.5v370h185v-365q0 -78 30.5 -112.5t91.5 -34.5q62 0 92.5 34.5t30.5 112.5v365h185v-370q0 -150 -75 -233.5t-233 -83.5zM529 -171l-61 -138q-60 5 -107.5 27.5t-74.5 59t-27 83.5q0 42 17 75.5t48 63.5h153q-31 -26 -45 -48.5
t-14 -45.5q0 -37 32.5 -54.5t78.5 -22.5z" />
    <glyph glyph-name="uogonek" unicode="&#x173;" horiz-adv-x="606" 
d="M303 160q29 0 47.5 16t27 42.5t8.5 57.5v224h180v-246q0 -73 -29 -134.5t-87 -98t-147 -36.5q-88 0 -146.5 36.5t-87.5 98t-29 134.5v246h180v-224q0 -31 8.5 -57.5t27 -42.5t47.5 -16zM453 -171l-61 -138q-60 5 -107.5 27.5t-74.5 59t-27 83.5q0 42 17 75.5t48 63.5h153
q-31 -26 -45 -48.5t-14 -45.5q0 -37 32.5 -54.5t78.5 -22.5z" />
    <glyph glyph-name="Wcircumflex" unicode="&#x174;" horiz-adv-x="998" 
d="M130 110l-120 565h185l96 -508q-1 5 -3 8t-6 3t-6 -3t-4 -8l86 382q17 74 52 107.5t89 33.5t89.5 -33.5t51.5 -107.5l86 -382q-1 5 -3.5 7.5t-6.5 2.5t-6 -2.5t-3 -7.5l96 508h185l-120 -565q-13 -61 -51 -93.5t-93 -32.5q-49 0 -89 31.5t-53 86.5l-93 409q2 -4 4 -6.5
t6 -2.5t6.5 2t3.5 7l-93 -409q-13 -55 -52.5 -86.5t-89.5 -31.5q-55 0 -93 32.5t-51 93.5zM274 748l77 109q26 37 65.5 55.5t82.5 18.5t82.5 -18.5t65.5 -55.5l77 -109h-173l-53 75q-2 3 1.5 3.5t0.5 -3.5l-53 -75h-173z" />
    <glyph glyph-name="wcircumflex" unicode="&#x175;" horiz-adv-x="884" 
d="M253 -16q-30 0 -61 13t-54.5 39.5t-33.5 67.5l-94 396h168l82 -363q-1 6 -4 9t-5 3t-5 -3t-5 -9l67 259q16 60 51 90t87 30q53 0 87 -29.5t49 -88.5l67 -261q-1 5 -4.5 8t-5.5 3q-1 0 -4 -3t-5 -8l78 363h166l-88 -396q-9 -41 -33 -67.5t-55 -39.5t-61 -13
q-47 0 -83.5 30t-51.5 90l-69 270q2 -7 6 -10t6 -3t6.5 3t5.5 9l-68 -269q-15 -60 -52 -90t-84 -30zM217 573l77 109q26 37 65.5 55.5t82.5 18.5t82.5 -18.5t65.5 -55.5l77 -109h-173l-53 75q-2 3 1.5 3.5t0.5 -3.5l-53 -75h-173z" />
    <glyph glyph-name="Ycircumflex" unicode="&#x176;" horiz-adv-x="668" 
d="M428 0h-185v295h185v-295zM169 291l-164 384h199l133 -333q2 -4 1 -5.5t-3 -1.5t-2.5 2t0.5 5l131 333h199l-164 -384q-25 -58 -70 -88t-95 -30q-49 0 -94 30t-71 88zM109 748l77 109q26 37 65.5 55.5t82.5 18.5t82.5 -18.5t65.5 -55.5l77 -109h-173l-53 75q-2 3 1.5 3.5
t0.5 -3.5l-53 -75h-173z" />
    <glyph glyph-name="ycircumflex" unicode="&#x177;" horiz-adv-x="658" 
d="M303 -246q-97 0 -162.5 40t-100.5 113l149 80q12 -25 38.5 -47t72.5 -22q35 0 60 15.5t39 44t14 68.5v49h32q-10 -36 -29 -58t-47.5 -32t-67.5 -10q-84 0 -136.5 33t-77 91t-24.5 133v248h177v-244q0 -41 22.5 -66.5t62.5 -25.5q22 0 41.5 11.5t31.5 32.5t12 48v244h183
v-452q0 -90 -38 -156t-103.5 -102t-148.5 -36zM104 573l77 109q26 37 65.5 55.5t82.5 18.5t82.5 -18.5t65.5 -55.5l77 -109h-173l-53 75q-2 3 1.5 3.5t0.5 -3.5l-53 -75h-173z" />
    <glyph glyph-name="Ydieresis" unicode="&#x178;" horiz-adv-x="668" 
d="M428 0h-185v295h185v-295zM169 291l-164 384h199l133 -333q2 -4 1 -5.5t-3 -1.5t-2.5 2t0.5 5l131 333h199l-164 -384q-25 -58 -70 -88t-95 -30q-49 0 -94 30t-71 88zM203 734q-42 0 -72 30t-30 72t30 72t72 30q41 0 71 -30t30 -72t-30 -72t-71 -30zM465 734
q-41 0 -71 30t-30 72t30 72t71 30q42 0 72 -30t30 -72t-30 -72t-72 -30z" />
    <glyph glyph-name="Zacute" unicode="&#x179;" horiz-adv-x="599" 
d="M545 170v-170h-353q-53 0 -86.5 20.5t-49.5 52.5t-16 68q0 32 12 63t35 54l256 259q-2 -2 -3.5 -4t-1.5 -4q0 -1 2.5 -2.5t6.5 -1.5h-290v170h345q51 0 86 -19.5t53 -50.5t18 -68q0 -30 -13 -61.5t-40 -58.5l-253 -257q2 2 2 3.5v2.5q0 2 -1.5 3t-5.5 1h297zM380 748
h-178l127 177h183z" />
    <glyph glyph-name="zacute" unicode="&#x17a;" horiz-adv-x="549" 
d="M502 0h-318q-72 0 -107.5 33.5t-36.5 78.5q-1 39 15.5 69.5t54.5 52.5l212 126q-3 -3 -3 -5q0 -1 1.5 -3t4.5 -2h-265v150h305q72 0 107.5 -33.5t36.5 -78.5q1 -39 -15.5 -69t-54.5 -53l-212 -126q2 2 2 3q0 2 -2 4.5t-5 2.5h280v-150zM355 573h-178l127 177h183z" />
    <glyph glyph-name="Zdotaccent" unicode="&#x17b;" horiz-adv-x="599" 
d="M545 170v-170h-353q-53 0 -86.5 20.5t-49.5 52.5t-16 68q0 32 12 63t35 54l256 259q-2 -2 -3.5 -4t-1.5 -4q0 -1 2.5 -2.5t6.5 -1.5h-290v170h345q51 0 86 -19.5t53 -50.5t18 -68q0 -30 -13 -61.5t-40 -58.5l-253 -257q2 2 2 3.5v2.5q0 2 -1.5 3t-5.5 1h297zM300 728
q-29 0 -54 14.5t-39.5 39.5t-14.5 54q0 30 14.5 54.5t39.5 39t54 14.5q30 0 54.5 -14.5t39 -39t14.5 -54.5q0 -29 -14.5 -54t-39 -39.5t-54.5 -14.5z" />
    <glyph glyph-name="zdotaccent" unicode="&#x17c;" horiz-adv-x="549" 
d="M502 0h-318q-72 0 -107.5 33.5t-36.5 78.5q-1 39 15.5 69.5t54.5 52.5l212 126q-3 -3 -3 -5q0 -1 1.5 -3t4.5 -2h-265v150h305q72 0 107.5 -33.5t36.5 -78.5q1 -39 -15.5 -69t-54.5 -53l-212 -126q2 2 2 3q0 2 -2 4.5t-5 2.5h280v-150zM275 553q-29 0 -54 14.5
t-39.5 39.5t-14.5 54q0 30 14.5 54.5t39.5 39t54 14.5q30 0 54.5 -14.5t39 -39t14.5 -54.5q0 -29 -14.5 -54t-39 -39.5t-54.5 -14.5z" />
    <glyph glyph-name="Zcaron" unicode="&#x17d;" horiz-adv-x="599" 
d="M545 170v-170h-353q-53 0 -86.5 20.5t-49.5 52.5t-16 68q0 32 12 63t35 54l256 259q-2 -2 -3.5 -4t-1.5 -4q0 -1 2.5 -2.5t6.5 -1.5h-290v170h345q51 0 86 -19.5t53 -50.5t18 -68q0 -30 -13 -61.5t-40 -58.5l-253 -257q2 2 2 3.5v2.5q0 2 -1.5 3t-5.5 1h297zM152 816
l-77 109h173l53 -75q3 -4 -0.5 -3.5t-1.5 3.5l53 75h173l-77 -109q-26 -37 -65.5 -55t-82.5 -18t-82.5 18t-65.5 55z" />
    <glyph glyph-name="zcaron" unicode="&#x17e;" horiz-adv-x="549" 
d="M502 0h-318q-72 0 -107.5 33.5t-36.5 78.5q-1 39 15.5 69.5t54.5 52.5l212 126q-3 -3 -3 -5q0 -1 1.5 -3t4.5 -2h-265v150h305q72 0 107.5 -33.5t36.5 -78.5q1 -39 -15.5 -69t-54.5 -53l-212 -126q2 2 2 3q0 2 -2 4.5t-5 2.5h280v-150zM127 641l-77 109h173l53 -75
q3 -4 -0.5 -3.5t-1.5 3.5l53 75h173l-77 -109q-26 -37 -65.5 -55t-82.5 -18t-82.5 18t-65.5 55z" />
    <glyph glyph-name="florin" unicode="&#x192;" horiz-adv-x="421" 
d="M478 230h-459v150h459v-150zM31 -202q-30 0 -59.5 5.5t-51.5 17.5v169q18 -10 40 -16t45 -6q41 0 65.5 23.5t31.5 63.5l78 449q20 113 82.5 176t174.5 63q30 0 59.5 -5.5t51.5 -17.5v-169q-18 10 -40 16t-45 6q-40 0 -65 -23.5t-32 -63.5l-78 -449q-19 -112 -82 -175.5
t-175 -63.5z" />
    <glyph glyph-name="Scommaaccent" unicode="&#x218;" horiz-adv-x="620" 
d="M311 -16q-96 0 -167.5 39t-106.5 114l154 77q14 -31 43.5 -45.5t76.5 -14.5q25 0 44 5t30.5 15.5t11.5 26.5q0 20 -12.5 30t-35 15.5t-53.5 9.5q-38 6 -81 17.5t-81.5 35t-62.5 63t-24 99.5q0 62 34 111.5t93 78.5t134 29q89 0 159.5 -39t104.5 -114l-154 -77
q-14 25 -42.5 42.5t-75.5 17.5q-22 0 -37 -4.5t-23 -14t-8 -23.5q0 -19 14 -30.5t38.5 -18t57.5 -11.5q38 -6 79.5 -17.5t78 -35t59.5 -62.5t23 -100q0 -62 -36.5 -111.5t-98 -78.5t-136.5 -29zM331 -327h-97l30 181l132 -24zM309 -236q-37 0 -63.5 26.5t-26.5 63.5
t26.5 63.5t63.5 26.5t63.5 -26.5t26.5 -63.5t-26.5 -63.5t-63.5 -26.5z" />
    <glyph glyph-name="scommaaccent" unicode="&#x219;" horiz-adv-x="514" 
d="M259 -16q-85 0 -141 29t-88 86l130 73q14 -24 35 -36t55 -12q19 0 30.5 4t17.5 10.5t6 14.5q0 15 -19 22t-49 12t-64 12.5t-64 23.5t-49 45.5t-19 77.5q0 47 25.5 85.5t74 61.5t116.5 23q60 0 102 -17t69.5 -43t41.5 -54l-130 -74q-8 23 -30.5 35.5t-48.5 12.5
q-13 0 -22 -3.5t-13.5 -9t-4.5 -13.5q0 -15 19 -23t49 -13t64 -13t64 -24t49 -44.5t19 -75.5q0 -52 -31 -91t-82 -60.5t-112 -21.5zM279 -327h-97l30 181l132 -24zM257 -236q-37 0 -63.5 26.5t-26.5 63.5t26.5 63.5t63.5 26.5t63.5 -26.5t26.5 -63.5t-26.5 -63.5
t-63.5 -26.5z" />
    <glyph glyph-name="Tcommaaccent" unicode="&#x21a;" horiz-adv-x="597" 
d="M206 675h185v-675h-185v675zM582 675v-170h-567v170h567zM321 -327h-97l30 181l132 -24zM299 -236q-37 0 -63.5 26.5t-26.5 63.5t26.5 63.5t63.5 26.5t63.5 -26.5t26.5 -63.5t-26.5 -63.5t-63.5 -26.5z" />
    <glyph glyph-name="tcommaaccent" unicode="&#x21b;" horiz-adv-x="469" 
d="M334 -16q-81 0 -134 29.5t-79 81.5t-26 118v412h180v-406q0 -36 20.5 -55.5t55.5 -19.5q19 0 44.5 5t43.5 15v-159q-19 -10 -49 -15.5t-56 -5.5zM439 350h-429v150h429v-150zM336 -327h-97l30 181l132 -24zM314 -236q-37 0 -63.5 26.5t-26.5 63.5t26.5 63.5t63.5 26.5
t63.5 -26.5t26.5 -63.5t-26.5 -63.5t-63.5 -26.5z" />
    <glyph glyph-name="dotlessj" unicode="&#x237;" horiz-adv-x="300" 
d="M70 500h180v-513q0 -67 -29 -118.5t-86.5 -81t-143.5 -29.5l-10 170q47 0 68 18.5t21 46.5v507z" />
    <glyph glyph-name="apostrophemod" unicode="&#x2bc;" horiz-adv-x="0" 
d="M125 730v-193h-125v193h125z" />
    <glyph glyph-name="circumflex" unicode="&#x2c6;" horiz-adv-x="530" 
d="M40 573l77 109q26 37 65.5 55.5t82.5 18.5t82.5 -18.5t65.5 -55.5l77 -109h-173l-53 75q-2 3 1.5 3.5t0.5 -3.5l-53 -75h-173z" />
    <glyph glyph-name="caron" unicode="&#x2c7;" horiz-adv-x="530" 
d="M117 641l-77 109h173l53 -75q3 -4 -0.5 -3.5t-1.5 3.5l53 75h173l-77 -109q-26 -37 -65.5 -55t-82.5 -18t-82.5 18t-65.5 55z" />
    <glyph glyph-name="breve" unicode="&#x2d8;" horiz-adv-x="480" 
d="M240 573q-101 0 -150.5 44.5t-49.5 122.5v10h150v-10q0 -16 10.5 -31.5t39.5 -15.5t39.5 16t10.5 31v10h150v-10q0 -78 -49.5 -122.5t-150.5 -44.5z" />
    <glyph glyph-name="dotaccent" unicode="&#x2d9;" horiz-adv-x="296" 
d="M148 553q-29 0 -54 14.5t-39.5 39.5t-14.5 54q0 30 14.5 54.5t39.5 39t54 14.5q30 0 54.5 -14.5t39 -39t14.5 -54.5q0 -29 -14.5 -54t-39 -39.5t-54.5 -14.5z" />
    <glyph glyph-name="ring" unicode="&#x2da;" horiz-adv-x="491" 
d="M248 518q-39 0 -71.5 19.5t-52 52t-19.5 71.5t19.5 71.5t52 52t71.5 19.5t71.5 -19.5t52 -52t19.5 -71.5t-19.5 -71.5t-52 -52t-71.5 -19.5zM248 621q17 0 28.5 12t11.5 28q0 17 -11.5 28.5t-28.5 11.5q-16 0 -28 -11.5t-12 -28.5q0 -16 12 -28t28 -12z" />
    <glyph glyph-name="ogonek" unicode="&#x2db;" horiz-adv-x="600" 
d="M423 -171l-61 -138q-60 5 -107.5 27.5t-74.5 59t-27 83.5q0 42 17 75.5t48 63.5h153q-31 -26 -45 -48.5t-14 -45.5q0 -37 32.5 -54.5t78.5 -22.5z" />
    <glyph glyph-name="tilde" unicode="&#x2dc;" horiz-adv-x="587" 
d="M207 573l-127 34q2 35 17 66t41.5 50.5t61.5 19.5q31 0 56 -7.5t46 -15t39 -7.5q17 0 27.5 12t11.5 25l127 -34q-2 -35 -17 -66t-41 -50.5t-62 -19.5q-32 0 -56.5 7.5t-44.5 15t-40 7.5q-17 0 -27 -12t-12 -25z" />
    <glyph glyph-name="hungarumlaut" unicode="&#x2dd;" horiz-adv-x="640" 
d="M208 573h-168l127 177h173zM468 573h-168l127 177h173z" />
    <glyph glyph-name="gravecomb" unicode="&#x300;" horiz-adv-x="0" 
d="M-27 750l127 -177h-178l-132 177h183z" />
    <glyph glyph-name="acutecomb" unicode="&#x301;" horiz-adv-x="0" 
d="M80 573h-178l127 177h183z" />
    <glyph glyph-name="circumflexcomb" unicode="&#x302;" horiz-adv-x="0" 
d="M-225 573l77 109q26 37 65.5 55.5t82.5 18.5t82.5 -18.5t65.5 -55.5l77 -109h-173l-53 75q-2 3 1.5 3.5t0.5 -3.5l-53 -75h-173z" />
    <glyph glyph-name="tildecomb" unicode="&#x303;" horiz-adv-x="0" 
d="M-87 573l-127 34q2 35 17 66t41.5 50.5t61.5 19.5q30 0 55.5 -7.5t46.5 -15t39 -7.5q17 0 27.5 12t11.5 25l127 -34q-2 -35 -17 -66t-41 -50.5t-62 -19.5q-33 0 -57 7.5t-44 15t-40 7.5q-17 0 -27 -12t-12 -25z" />
    <glyph glyph-name="macroncomb" unicode="&#x304;" horiz-adv-x="0" 
d="M192 730v-135h-385v135h385z" />
    <glyph glyph-name="brevecomb" unicode="&#x306;" horiz-adv-x="0" 
d="M1 573q-101 0 -150.5 44.5t-49.5 122.5v10h150v-10q0 -16 10.5 -31.5t39.5 -15.5t39.5 16t10.5 31v10h150v-10q0 -78 -49.5 -122.5t-150.5 -44.5z" />
    <glyph glyph-name="dotaccentcomb" unicode="&#x307;" horiz-adv-x="0" 
d="M0 553q-29 0 -54 14.5t-39.5 39.5t-14.5 54q0 30 14.5 54.5t39.5 39t54 14.5q30 0 54.5 -14.5t39 -39t14.5 -54.5q0 -29 -14.5 -54t-39 -39.5t-54.5 -14.5z" />
    <glyph glyph-name="dieresiscomb" unicode="&#x308;" horiz-adv-x="0" 
d="M-131 559q-42 0 -72 30t-30 72t30 72t72 30q41 0 71 -30t30 -72t-30 -72t-71 -30zM131 559q-41 0 -71 30t-30 72t30 72t71 30q42 0 72 -30t30 -72t-30 -72t-72 -30z" />
    <glyph glyph-name="ringcomb" unicode="&#x30a;" horiz-adv-x="0" 
d="M0 518q-39 0 -71.5 19.5t-52 52t-19.5 71.5t19.5 71.5t52 52t71.5 19.5t71.5 -19.5t52 -52t19.5 -71.5t-19.5 -71.5t-52 -52t-71.5 -19.5zM0 621q17 0 28.5 12t11.5 28q0 17 -11.5 28.5t-28.5 11.5q-16 0 -28 -11.5t-12 -28.5q0 -16 12 -28t28 -12z" />
    <glyph glyph-name="hungarumlautcomb" unicode="&#x30b;" horiz-adv-x="0" 
d="M-52 573h-168l127 177h173zM208 573h-168l127 177h173z" />
    <glyph glyph-name="caroncomb" unicode="&#x30c;" horiz-adv-x="0" 
d="M-148 641l-77 109h173l53 -75q3 -4 -0.5 -3.5t-1.5 3.5l53 75h173l-77 -109q-26 -37 -65.5 -55t-82.5 -18t-82.5 18t-65.5 55z" />
    <glyph glyph-name="commaturnedabovecomb" unicode="&#x312;" horiz-adv-x="0" 
d="M-21 814h97l-30 -181l-132 24zM1 723q37 0 63.5 -26.5t26.5 -63.5t-26.5 -63.5t-63.5 -26.5t-63.5 26.5t-26.5 63.5t26.5 63.5t63.5 26.5z" />
    <glyph glyph-name="commaaccentcomb" unicode="&#x326;" horiz-adv-x="0" 
d="M22 -327h-97l30 181l132 -24zM0 -236q-37 0 -63.5 26.5t-26.5 63.5t26.5 63.5t63.5 26.5t63.5 -26.5t26.5 -63.5t-26.5 -63.5t-63.5 -26.5z" />
    <glyph glyph-name="cedillacomb" unicode="&#x327;" horiz-adv-x="0" 
d="M79 0l-20 -67h-163l25 67h158zM-51 -305l-57 118q48 7 64.5 21.5t16.5 31.5q0 19 -19 26t-49 7h-22l31 83h51q71 1 117 -32t46 -95q0 -45 -23.5 -78.5t-64 -54t-91.5 -27.5z" />
    <glyph glyph-name="ogonekcomb" unicode="&#x328;" horiz-adv-x="0" 
d="M53 -171l-61 -138q-60 5 -107.5 27.5t-74.5 59t-27 83.5q0 42 17 75.5t48 63.5h153q-31 -26 -45 -48.5t-14 -45.5q0 -37 32.5 -54.5t78.5 -22.5z" />
    <glyph glyph-name="Delta" unicode="&#x394;" 
d="M354 690q53 0 96.5 -30.5t65.5 -91.5l137 -372q6 -16 7.5 -39.5t1.5 -31.5q0 -52 -35 -88.5t-97 -36.5h-345q-62 0 -97 36.5t-35 88.5q0 8 2 31.5t7 39.5l130 372q21 61 65.5 91.5t96.5 30.5zM355 524q10 0 7 -10l-127 -368q1 3 1 5.5t-2 4.5q-1 2 -3.5 3t-4.5 1h263
q-2 0 -4 -1t-4 -3q-1 -2 -1.5 -4.5t0.5 -5.5l-132 368q-3 10 7 10z" />
    <glyph glyph-name="Omega" unicode="&#x3a9;" horiz-adv-x="702" 
d="M351 690q101 0 168 -38.5t100 -104.5t33 -150q0 -52 -16.5 -99t-39.5 -84.5t-41 -61.5q1 3 1 5v5t-2 5.5t-7 2.5h116v-170h-139q-68 0 -104 30t-36 82q0 17 4 37t13 42q8 18 22.5 51t26.5 70t12 65q0 40 -13.5 67.5t-38 41.5t-59.5 14q-34 0 -59 -14t-38.5 -41.5
t-13.5 -67.5q0 -28 12.5 -65t27 -70t21.5 -51q8 -22 12.5 -42t4.5 -37q0 -52 -36 -82t-104 -30h-139v170h116q-4 0 -6.5 -2.5t-2.5 -5.5v-5t1 -5q-18 24 -40.5 61.5t-39.5 84.5t-17 99q0 84 33 150t100 104.5t168 38.5z" />
    <glyph glyph-name="mu" unicode="&#x3bc;" horiz-adv-x="606" 
d="M41 290l136 -131q25 -88 34.5 -158.5t9.5 -131.5v-29h-180v450zM303 160q29 0 47.5 16t27 42.5t8.5 57.5v224h180v-246q0 -73 -29 -134.5t-87 -98t-147 -36.5q-88 0 -146.5 36.5t-87.5 98t-29 134.5v246h180v-224q0 -31 8.5 -57.5t27 -42.5t47.5 -16z" />
    <glyph glyph-name="pi" unicode="&#x3c0;" horiz-adv-x="762" 
d="M604 -10q-72 0 -114.5 31t-61.5 83t-19 115l1 281h175v-290q0 -25 10.5 -40t31.5 -15q17 0 29.5 4.5t23.5 12.5l67 -132q-32 -25 -68.5 -37.5t-74.5 -12.5zM295 0h-175v500h175v-500zM703 340h-687v160h687v-160z" />
    <glyph glyph-name="Wgrave" unicode="&#x1e80;" horiz-adv-x="998" 
d="M130 110l-120 565h185l96 -508q-1 5 -3 8t-6 3t-6 -3t-4 -8l86 382q17 74 52 107.5t89 33.5t89.5 -33.5t51.5 -107.5l86 -382q-1 5 -3.5 7.5t-6.5 2.5t-6 -2.5t-3 -7.5l96 508h185l-120 -565q-13 -61 -51 -93.5t-93 -32.5q-49 0 -89 31.5t-53 86.5l-93 409q2 -4 4 -6.5
t6 -2.5t6.5 2t3.5 7l-93 -409q-13 -55 -52.5 -86.5t-89.5 -31.5q-55 0 -93 32.5t-51 93.5zM472 925l127 -177h-178l-132 177h183z" />
    <glyph glyph-name="wgrave" unicode="&#x1e81;" horiz-adv-x="884" 
d="M253 -16q-30 0 -61 13t-54.5 39.5t-33.5 67.5l-94 396h168l82 -363q-1 6 -4 9t-5 3t-5 -3t-5 -9l67 259q16 60 51 90t87 30q53 0 87 -29.5t49 -88.5l67 -261q-1 5 -4.5 8t-5.5 3q-1 0 -4 -3t-5 -8l78 363h166l-88 -396q-9 -41 -33 -67.5t-55 -39.5t-61 -13
q-47 0 -83.5 30t-51.5 90l-69 270q2 -7 6 -10t6 -3t6.5 3t5.5 9l-68 -269q-15 -60 -52 -90t-84 -30zM415 750l127 -177h-178l-132 177h183z" />
    <glyph glyph-name="Wacute" unicode="&#x1e82;" horiz-adv-x="998" 
d="M130 110l-120 565h185l96 -508q-1 5 -3 8t-6 3t-6 -3t-4 -8l86 382q17 74 52 107.5t89 33.5t89.5 -33.5t51.5 -107.5l86 -382q-1 5 -3.5 7.5t-6.5 2.5t-6 -2.5t-3 -7.5l96 508h185l-120 -565q-13 -61 -51 -93.5t-93 -32.5q-49 0 -89 31.5t-53 86.5l-93 409q2 -4 4 -6.5
t6 -2.5t6.5 2t3.5 7l-93 -409q-13 -55 -52.5 -86.5t-89.5 -31.5q-55 0 -93 32.5t-51 93.5zM579 748h-178l127 177h183z" />
    <glyph glyph-name="wacute" unicode="&#x1e83;" horiz-adv-x="884" 
d="M253 -16q-30 0 -61 13t-54.5 39.5t-33.5 67.5l-94 396h168l82 -363q-1 6 -4 9t-5 3t-5 -3t-5 -9l67 259q16 60 51 90t87 30q53 0 87 -29.5t49 -88.5l67 -261q-1 5 -4.5 8t-5.5 3q-1 0 -4 -3t-5 -8l78 363h166l-88 -396q-9 -41 -33 -67.5t-55 -39.5t-61 -13
q-47 0 -83.5 30t-51.5 90l-69 270q2 -7 6 -10t6 -3t6.5 3t5.5 9l-68 -269q-15 -60 -52 -90t-84 -30zM522 573h-178l127 177h183z" />
    <glyph glyph-name="Wdieresis" unicode="&#x1e84;" horiz-adv-x="998" 
d="M130 110l-120 565h185l96 -508q-1 5 -3 8t-6 3t-6 -3t-4 -8l86 382q17 74 52 107.5t89 33.5t89.5 -33.5t51.5 -107.5l86 -382q-1 5 -3.5 7.5t-6.5 2.5t-6 -2.5t-3 -7.5l96 508h185l-120 -565q-13 -61 -51 -93.5t-93 -32.5q-49 0 -89 31.5t-53 86.5l-93 409q2 -4 4 -6.5
t6 -2.5t6.5 2t3.5 7l-93 -409q-13 -55 -52.5 -86.5t-89.5 -31.5q-55 0 -93 32.5t-51 93.5zM368 734q-42 0 -72 30t-30 72t30 72t72 30q41 0 71 -30t30 -72t-30 -72t-71 -30zM630 734q-41 0 -71 30t-30 72t30 72t71 30q42 0 72 -30t30 -72t-30 -72t-72 -30z" />
    <glyph glyph-name="wdieresis" unicode="&#x1e85;" horiz-adv-x="884" 
d="M253 -16q-30 0 -61 13t-54.5 39.5t-33.5 67.5l-94 396h168l82 -363q-1 6 -4 9t-5 3t-5 -3t-5 -9l67 259q16 60 51 90t87 30q53 0 87 -29.5t49 -88.5l67 -261q-1 5 -4.5 8t-5.5 3q-1 0 -4 -3t-5 -8l78 363h166l-88 -396q-9 -41 -33 -67.5t-55 -39.5t-61 -13
q-47 0 -83.5 30t-51.5 90l-69 270q2 -7 6 -10t6 -3t6.5 3t5.5 9l-68 -269q-15 -60 -52 -90t-84 -30zM311 559q-42 0 -72 30t-30 72t30 72t72 30q41 0 71 -30t30 -72t-30 -72t-71 -30zM573 559q-41 0 -71 30t-30 72t30 72t71 30q42 0 72 -30t30 -72t-30 -72t-72 -30z" />
    <glyph glyph-name="Germandbls" unicode="&#x1e9e;" horiz-adv-x="742" 
d="M477 -15q-70 0 -126 20.5t-86 76.5l128 84q17 -24 35 -33t35 -9q20 0 32 7.5t12 24.5t-16 31t-39.5 28t-47 28.5t-39.5 32.5t-16 40q0 17 7 33t15.5 32.5t15.5 33t7 32.5q0 29 -18.5 48.5t-56.5 19.5q-29 0 -49 -14t-30 -39.5t-10 -61.5v-400h-184l-1 414q0 83 31.5 145
t94 96.5t155.5 34.5q73 0 133 -23t96 -63.5t36 -95.5q0 -29 -8 -50.5t-18 -39.5t-18 -33.5t-8 -32.5q0 -16 15.5 -30t38.5 -29t45.5 -34t38 -46t15.5 -65q0 -55 -29.5 -91t-78.5 -54t-107 -18z" />
    <glyph glyph-name="Ygrave" unicode="&#x1ef2;" horiz-adv-x="668" 
d="M428 0h-185v295h185v-295zM169 291l-164 384h199l133 -333q2 -4 1 -5.5t-3 -1.5t-2.5 2t0.5 5l131 333h199l-164 -384q-25 -58 -70 -88t-95 -30q-49 0 -94 30t-71 88zM307 925l127 -177h-178l-132 177h183z" />
    <glyph glyph-name="ygrave" unicode="&#x1ef3;" horiz-adv-x="658" 
d="M303 -246q-97 0 -162.5 40t-100.5 113l149 80q12 -25 38.5 -47t72.5 -22q35 0 60 15.5t39 44t14 68.5v49h32q-10 -36 -29 -58t-47.5 -32t-67.5 -10q-84 0 -136.5 33t-77 91t-24.5 133v248h177v-244q0 -41 22.5 -66.5t62.5 -25.5q22 0 41.5 11.5t31.5 32.5t12 48v244h183
v-452q0 -90 -38 -156t-103.5 -102t-148.5 -36zM302 750l127 -177h-178l-132 177h183z" />
    <glyph glyph-name="endash" unicode="&#x2013;" horiz-adv-x="740" 
d="M630 386v-160h-520v160h520z" />
    <glyph glyph-name="emdash" unicode="&#x2014;" horiz-adv-x="990" 
d="M880 386v-160h-770v160h770z" />
    <glyph glyph-name="quoteleft" unicode="&#x2018;" horiz-adv-x="358" 
d="M172 714h116l-56 -239l-151 47zM178 583q30 0 54.5 -14.5t39 -39t14.5 -54.5q0 -29 -14.5 -54t-39 -39.5t-54.5 -14.5q-29 0 -54 14.5t-39.5 39.5t-14.5 54q0 30 14.5 54.5t39.5 39t54 14.5z" />
    <glyph glyph-name="quoteright" unicode="&#x2019;" horiz-adv-x="358" 
d="M186 367h-116l56 239l151 -47zM180 498q-29 0 -54 14.5t-39.5 39.5t-14.5 54q0 30 14.5 54.5t39.5 39t54 14.5q30 0 54.5 -14.5t39 -39t14.5 -54.5q0 -29 -14.5 -54t-39 -39.5t-54.5 -14.5z" />
    <glyph glyph-name="quotesinglbase" unicode="&#x201a;" horiz-adv-x="358" 
d="M186 -143h-116l56 239l151 -47zM180 -12q-29 0 -54 14.5t-39.5 39.5t-14.5 54q0 30 14.5 54.5t39.5 39t54 14.5q30 0 54.5 -14.5t39 -39t14.5 -54.5q0 -29 -14.5 -54t-39 -39.5t-54.5 -14.5z" />
    <glyph glyph-name="quotedblleft" unicode="&#x201c;" horiz-adv-x="610" 
d="M172 714h116l-56 -239l-151 47zM178 583q30 0 54.5 -14.5t39 -39t14.5 -54.5q0 -29 -14.5 -54t-39 -39.5t-54.5 -14.5q-29 0 -54 14.5t-39.5 39.5t-14.5 54q0 30 14.5 54.5t39.5 39t54 14.5zM424 714h116l-56 -239l-151 47zM430 583q30 0 54.5 -14.5t39 -39t14.5 -54.5
q0 -29 -14.5 -54t-39 -39.5t-54.5 -14.5q-29 0 -54 14.5t-39.5 39.5t-14.5 54q0 30 14.5 54.5t39.5 39t54 14.5z" />
    <glyph glyph-name="quotedblright" unicode="&#x201d;" horiz-adv-x="620" 
d="M186 367h-116l56 239l151 -47zM180 498q-29 0 -54 14.5t-39.5 39.5t-14.5 54q0 30 14.5 54.5t39.5 39t54 14.5q30 0 54.5 -14.5t39 -39t14.5 -54.5q0 -29 -14.5 -54t-39 -39.5t-54.5 -14.5zM448 367h-116l56 239l151 -47zM442 498q-29 0 -54 14.5t-39.5 39.5t-14.5 54
q0 30 14.5 54.5t39.5 39t54 14.5q30 0 54.5 -14.5t39 -39t14.5 -54.5q0 -29 -14.5 -54t-39 -39.5t-54.5 -14.5z" />
    <glyph glyph-name="quotedblbase" unicode="&#x201e;" horiz-adv-x="610" 
d="M186 -143h-116l56 239l151 -47zM180 -12q-29 0 -54 14.5t-39.5 39.5t-14.5 54q0 30 14.5 54.5t39.5 39t54 14.5q30 0 54.5 -14.5t39 -39t14.5 -54.5q0 -29 -14.5 -54t-39 -39.5t-54.5 -14.5zM438 -143h-116l56 239l151 -47zM432 -12q-29 0 -54 14.5t-39.5 39.5t-14.5 54
q0 30 14.5 54.5t39.5 39t54 14.5q30 0 54.5 -14.5t39 -39t14.5 -54.5q0 -29 -14.5 -54t-39 -39.5t-54.5 -14.5z" />
    <glyph glyph-name="dagger" unicode="&#x2020;" horiz-adv-x="585" 
d="M385 -175h-185v850h185v-850zM565 330h-545v170h545v-170z" />
    <glyph glyph-name="daggerdbl" unicode="&#x2021;" horiz-adv-x="625" 
d="M405 -175h-185v850h185v-850zM585 0h-545v170h545v-170zM585 330h-545v170h545v-170z" />
    <glyph glyph-name="bullet" unicode="&#x2022;" horiz-adv-x="496" 
d="M248 133q-47 0 -86.5 23.5t-63 63t-23.5 86.5q0 48 23.5 87t63 62.5t86.5 23.5q48 0 87 -23.5t62.5 -62.5t23.5 -87q0 -47 -23.5 -86.5t-62.5 -63t-87 -23.5z" />
    <glyph glyph-name="ellipsis" unicode="&#x2026;" horiz-adv-x="996" 
d="M498 -12q-29 0 -54 14.5t-39.5 39.5t-14.5 54q0 30 14.5 54.5t39.5 39t54 14.5q30 0 54.5 -14.5t39 -39t14.5 -54.5q0 -29 -14.5 -54t-39 -39.5t-54.5 -14.5zM818 -12q-29 0 -54 14.5t-39.5 39.5t-14.5 54q0 30 14.5 54.5t39.5 39t54 14.5q30 0 54.5 -14.5t39 -39
t14.5 -54.5q0 -29 -14.5 -54t-39 -39.5t-54.5 -14.5zM178 -12q-29 0 -54 14.5t-39.5 39.5t-14.5 54q0 30 14.5 54.5t39.5 39t54 14.5q30 0 54.5 -14.5t39 -39t14.5 -54.5q0 -29 -14.5 -54t-39 -39.5t-54.5 -14.5z" />
    <glyph glyph-name="perthousand" unicode="&#x2030;" horiz-adv-x="1338" 
d="M390 0h-180l346 674h180zM196 292q-51 0 -89.5 25.5t-60 69.5t-21.5 100q0 57 21.5 101.5t60 70t89.5 25.5q52 0 90 -25.5t59.5 -70t21.5 -101.5q0 -56 -21.5 -100t-59.5 -69.5t-90 -25.5zM196 412q14 0 24.5 9.5t16 26.5t5.5 39q0 35 -12.5 56t-33.5 21t-33.5 -21
t-12.5 -56q0 -34 12.5 -54.5t33.5 -20.5zM752 -10q-51 0 -89.5 25.5t-60 69.5t-21.5 100q0 57 21.5 101.5t60 70t89.5 25.5q52 0 90 -25.5t59.5 -70t21.5 -101.5q0 -56 -21.5 -100t-59.5 -69.5t-90 -25.5zM752 110q14 0 24.5 9.5t16 26.5t5.5 39q0 35 -12.5 56t-33.5 21
t-33.5 -21t-12.5 -56q0 -34 12.5 -54.5t33.5 -20.5zM1142 -10q-51 0 -89.5 25.5t-60 69.5t-21.5 100q0 57 21.5 101.5t60 70t89.5 25.5q52 0 90 -25.5t59.5 -70t21.5 -101.5q0 -56 -21.5 -100t-59.5 -69.5t-90 -25.5zM1142 110q14 0 24.5 9.5t16 26.5t5.5 39q0 35 -12.5 56
t-33.5 21t-33.5 -21t-12.5 -56q0 -34 12.5 -54.5t33.5 -20.5z" />
    <glyph glyph-name="guilsinglleft" unicode="&#x2039;" horiz-adv-x="455" 
d="M355 245v-180l-155 86q-80 44 -110 83.5t-30 88.5t30 88.5t110 83.5l155 86v-180l-142 -86q-9 -5 -16 -2t-7 11q0 7 6.5 10t16.5 -3z" />
    <glyph glyph-name="guilsinglright" unicode="&#x203a;" horiz-adv-x="455" 
d="M255 151l-155 -86v180l142 86q11 6 17 3t6 -10q0 -8 -7 -11t-16 2l-142 86v180l155 -86q80 -44 110 -83.5t30 -88.5t-30 -88.5t-110 -83.5z" />
    <glyph glyph-name="fraction" unicode="&#x2044;" horiz-adv-x="600" 
d="M40 0l336 675h160l-336 -675h-160z" />
    <glyph glyph-name="Euro" unicode="&#x20ac;" horiz-adv-x="700" 
d="M421 -15q-93 0 -167 44t-116.5 123.5t-42.5 184.5q0 79 24.5 144t68 111.5t102 71.5t126.5 25q107 0 175.5 -48t98.5 -121l-149 -86q-13 32 -45 58.5t-85 26.5q-34 0 -59.5 -13.5t-42.5 -37.5t-25.5 -57.5t-8.5 -73.5q0 -58 16.5 -99t48 -62t76.5 -21q53 0 85 26.5
t45 58.5l149 -86q-30 -73 -98.5 -121t-175.5 -48zM432 207h-412v110h412v-110zM432 357h-412v120h412v-120z" />
    <glyph glyph-name="trademark" unicode="&#x2122;" horiz-adv-x="920" 
d="M124 645h119v-331h-119v331zM333 675v-111h-303v111h303zM460 314h-123l53 303q5 32 31 48.5t57 16.5q28 0 53.5 -14.5t34.5 -44.5l30 -99q9 -29 12 -48.5t3 -31.5q0 -5 3 -5t3 5q0 12 2.5 31.5t11.5 48.5l30 99q9 29 34.5 43.5t53.5 14.5q30 0 56.5 -16t31.5 -48
l53 -303h-123l-18 124q-7 50 -7.5 72.5t-0.5 32.5q0 8 -3 8t-3 -8q0 -10 -3 -34.5t-18 -70.5l-26 -80q-7 -23 -28 -34t-45 -11q-25 0 -46.5 11.5t-28.5 33.5l-26 80q-17 53 -19.5 75.5t-2.5 29.5q0 8 -3 8q-1 0 -2 -1.5t-1 -6.5v-29t-8 -76z" />
    <glyph glyph-name="estimated" unicode="&#x212e;" horiz-adv-x="620" 
d="M602 352v-14h-457v-212q70 -51 165 -51q130 0 207 88l15 -12q-40 -46 -97.5 -70.5t-124.5 -24.5q-81 0 -147 36t-105.5 100.5t-39.5 149.5v6q0 86 39.5 150t105.5 100t147 36q80 0 145.5 -35.5t105.5 -98.5t41 -148zM145 564v-212h329v214q-34 23 -75.5 36t-88.5 13
q-48 0 -89.5 -13.5t-75.5 -37.5z" />
    <glyph glyph-name="partialdiff" unicode="&#x2202;" horiz-adv-x="610" 
d="M293 -16q-74 0 -132.5 30t-92 85t-33.5 128q0 61 32 111.5t85 81t116 30.5q52 0 96.5 -18.5t72 -50.5t27.5 -71l-78 25q6 20 9 38.5t3 35.5q0 42 -13.5 75.5t-39.5 53t-65 19.5q-37 0 -59.5 -12t-43.5 -40l-136 120q37 50 100.5 83.5t140.5 33.5q78 0 136.5 -29t96.5 -81
t57 -119t19 -144q0 -84 -21 -154.5t-60 -122t-94 -80t-123 -28.5zM300 143q26 0 45 11.5t29.5 30t10.5 39.5t-10.5 40t-29.5 30.5t-45 11.5q-25 0 -44.5 -11t-30 -29.5t-10.5 -39.5t10.5 -40t30 -31t44.5 -12z" />
    <glyph glyph-name="product" unicode="&#x220f;" horiz-adv-x="815" 
d="M725 -170h-185v900h185v-900zM275 -170h-185v900h185v-900zM603 560h-387v170h387v-170z" />
    <glyph glyph-name="summation" unicode="&#x2211;" horiz-adv-x="604" 
d="M554 -180h-324q-60 0 -100 21t-60 56t-20 75q0 39 19 79.5t56 72.5l192 166q-10 -8 -10 -20q0 -5 2.5 -10t7.5 -10l-192 166q-37 32 -56 72.5t-19 79.5q0 41 20 75.5t60 55.5t100 21h324v-165h-320q6 0 9.5 2t3.5 6q0 6 -9 14l178 -154q39 -32 58.5 -71.5t19.5 -80.5
q0 -40 -19 -79.5t-59 -74.5l-178 -154q8 7 8 13q0 4 -3.5 6.5t-8.5 2.5h320v-165z" />
    <glyph glyph-name="minus" unicode="&#x2212;" horiz-adv-x="645" 
d="M575 421v-170h-505v170h505z" />
    <glyph glyph-name="radical" unicode="&#x221a;" horiz-adv-x="845" 
d="M316 99l-84 243q5 -12 16 -12q3 0 11 2l-160 -61l-59 163l152 59q58 23 97 23q35 0 58.5 -20t39.5 -67l55 -159q13 -36 17 -59t5 -31t4 -8t4 8q2 8 5.5 31t15.5 60l150 459h192l-216 -631q-19 -57 -61.5 -86t-89.5 -29t-89.5 29t-62.5 86z" />
    <glyph glyph-name="infinity" unicode="&#x221e;" horiz-adv-x="894" 
d="M299 75q-68 0 -120 29t-80.5 83t-28.5 129q0 67 25 123.5t73 91t116 34.5q83 0 135.5 -46.5t74.5 -132.5l-112 -102q-3 56 -24 88.5t-54 32.5q-20 0 -33 -12.5t-19.5 -33.5t-6.5 -46q0 -22 6.5 -40t18.5 -28t29 -10q21 0 33.5 18t22 47.5t19.5 64.5t25 70t39 64.5
t61 47.5t91 18q69 0 121.5 -29t82.5 -83t30 -129q0 -68 -25.5 -124.5t-74.5 -90.5t-122 -34q-79 0 -127.5 46t-77.5 139l115 96q-3 -51 18 -86t60 -35q18 0 31.5 11.5t20.5 31t7 44.5q0 24 -5.5 42.5t-17 29.5t-30.5 11q-22 0 -36 -18t-23.5 -47.5t-20 -64.5t-25.5 -70
t-39 -64.5t-61 -47.5t-92 -18z" />
    <glyph glyph-name="integral" unicode="&#x222b;" horiz-adv-x="602" 
d="M129 -220q-79 0 -138.5 36.5t-85.5 100.5l149 85q9 -24 26 -38t43 -14q29 0 43.5 22t14.5 50v481q0 67 25.5 121t77.5 86t129 32q78 0 137 -36t86 -101l-149 -85q-9 24 -25.5 38t-42.5 14q-28 0 -43 -21.5t-15 -50.5v-481q0 -66 -25.5 -120.5t-77 -86.5t-129.5 -32z" />
    <glyph glyph-name="approxequal" unicode="&#x2248;" horiz-adv-x="701" 
d="M473 583l178 -49q-1 -49 -22 -91t-59 -67.5t-92 -25.5q-34 0 -61.5 6t-51.5 14t-46 14t-46 6q-21 0 -32 -12t-13 -30l-178 49q1 50 22 91.5t59.5 67t91.5 25.5q32 0 59 -6t51.5 -14.5t47 -14.5t44.5 -6q24 0 35 12t13 31zM228 88l-178 49q1 50 22 91.5t59.5 67t91.5 25.5
q32 0 59 -6t51.5 -14.5t47 -14.5t44.5 -6q24 0 35 12t13 31l178 -49q-1 -49 -22 -91t-59 -67.5t-92 -25.5q-34 0 -61.5 6t-51.5 14t-46 14t-46 6q-21 0 -32 -12t-13 -30z" />
    <glyph glyph-name="notequal" unicode="&#x2260;" horiz-adv-x="645" 
d="M95 20l306 635h170l-306 -635h-170zM575 561v-170h-505v170h505zM575 281v-170h-505v170h505z" />
    <glyph glyph-name="lessequal" unicode="&#x2264;" horiz-adv-x="625" 
d="M545 211v-150h-477v150h477zM545 343v-160l-345 81q-82 20 -111 56.5t-29 85.5t29 86t111 56l345 81v-160l-332 -71q-10 -2 -16.5 -0.5t-6.5 9.5q0 7 6 8t17 -1z" />
    <glyph glyph-name="greaterequal" unicode="&#x2265;" horiz-adv-x="625" 
d="M557 61h-477v150h477v-150zM425 264l-345 -81v160l332 71q11 2 17 1t6 -8q0 -8 -6.5 -9.5t-16.5 0.5l-332 71v160l345 -81q82 -19 111 -56t29 -86t-29 -85.5t-111 -56.5z" />
    <glyph glyph-name="lozenge" unicode="&#x25ca;" horiz-adv-x="612" 
d="M303 -9q-38 0 -74.5 25t-62.5 74l-99 185q-12 23 -18.5 44.5t-6.5 43.5q0 26 8.5 53t25.5 59l90 168q26 50 62.5 74.5t74.5 24.5t74.5 -24.5t64.5 -74.5l93 -168q35 -63 35 -111q0 -22 -6.5 -44t-19.5 -45l-102 -185q-28 -50 -64.5 -74.5t-74.5 -24.5zM306 178
q-2 0 -5 -4l110 200q-1 -1 -1.5 -3t-0.5 -4t0.5 -4t1.5 -4l-112 203q3 -4 5 -4q3 0 6 4l-106 -203q1 2 1.5 4t0.5 4t-0.5 4t-1.5 3l107 -200q-3 4 -5 4z" />
    <glyph glyph-name="A.ss01" 
d="M557 114h-387v165h387v-165zM204 0h-189l170 552q21 69 65 103.5t104 34.5t104 -34.5t65 -103.5l170 -552h-189l-104 379q-10 35 -19 69.5t-11 54.5q-1 15 -5 26t-9 11t-9 -11t-6 -26q-3 -20 -12.5 -54.5t-19.5 -69.5z" />
    <glyph glyph-name="Aacute.ss01" 
d="M557 114h-387v165h387v-165zM204 0h-189l170 552q21 69 65 103.5t104 34.5t104 -34.5t65 -103.5l170 -552h-189l-104 379q-10 35 -19 69.5t-11 54.5q-1 15 -5 26t-9 11t-9 -11t-6 -26q-3 -20 -12.5 -54.5t-19.5 -69.5zM437 748h-178l127 177h183z" />
    <glyph glyph-name="Abreve.ss01" 
d="M557 114h-387v165h387v-165zM204 0h-189l170 552q21 69 65 103.5t104 34.5t104 -34.5t65 -103.5l170 -552h-189l-104 379q-10 35 -19 69.5t-11 54.5q-1 15 -5 26t-9 11t-9 -11t-6 -26q-3 -20 -12.5 -54.5t-19.5 -69.5zM357 748q-101 0 -150.5 44.5t-49.5 122.5v10h150
v-10q0 -16 10.5 -31.5t39.5 -15.5t39.5 16t10.5 31v10h150v-10q0 -78 -49.5 -122.5t-150.5 -44.5z" />
    <glyph glyph-name="Acircumflex.ss01" 
d="M557 114h-387v165h387v-165zM204 0h-189l170 552q21 69 65 103.5t104 34.5t104 -34.5t65 -103.5l170 -552h-189l-104 379q-10 35 -19 69.5t-11 54.5q-1 15 -5 26t-9 11t-9 -11t-6 -26q-3 -20 -12.5 -54.5t-19.5 -69.5zM132 748l77 109q26 37 65.5 55.5t82.5 18.5
t82.5 -18.5t65.5 -55.5l77 -109h-173l-53 75q-2 3 1.5 3.5t0.5 -3.5l-53 -75h-173z" />
    <glyph glyph-name="Adieresis.ss01" 
d="M557 114h-387v165h387v-165zM204 0h-189l170 552q21 69 65 103.5t104 34.5t104 -34.5t65 -103.5l170 -552h-189l-104 379q-10 35 -19 69.5t-11 54.5q-1 15 -5 26t-9 11t-9 -11t-6 -26q-3 -20 -12.5 -54.5t-19.5 -69.5zM226 734q-42 0 -72 30t-30 72t30 72t72 30
q41 0 71 -30t30 -72t-30 -72t-71 -30zM488 734q-41 0 -71 30t-30 72t30 72t71 30q42 0 72 -30t30 -72t-30 -72t-72 -30z" />
    <glyph glyph-name="Agrave.ss01" 
d="M557 114h-387v165h387v-165zM204 0h-189l170 552q21 69 65 103.5t104 34.5t104 -34.5t65 -103.5l170 -552h-189l-104 379q-10 35 -19 69.5t-11 54.5q-1 15 -5 26t-9 11t-9 -11t-6 -26q-3 -20 -12.5 -54.5t-19.5 -69.5zM330 925l127 -177h-178l-132 177h183z" />
    <glyph glyph-name="Amacron.ss01" 
d="M557 114h-387v165h387v-165zM204 0h-189l170 552q21 69 65 103.5t104 34.5t104 -34.5t65 -103.5l170 -552h-189l-104 379q-10 35 -19 69.5t-11 54.5q-1 15 -5 26t-9 11t-9 -11t-6 -26q-3 -20 -12.5 -54.5t-19.5 -69.5zM549 905v-135h-385v135h385z" />
    <glyph glyph-name="Aogonek.ss01" 
d="M557 114h-387v165h387v-165zM204 0h-189l170 552q21 69 65 103.5t104 34.5t104 -34.5t65 -103.5l170 -552h-189l-104 379q-10 35 -19 69.5t-11 54.5q-1 15 -5 26t-9 11t-9 -11t-6 -26q-3 -20 -12.5 -54.5t-19.5 -69.5zM684 -161l-61 -138q-60 5 -107.5 27.5t-74.5 59
t-27 83.5q0 42 17 75.5t48 63.5h153q-31 -26 -45 -48.5t-14 -45.5q0 -37 32.5 -54.5t78.5 -22.5z" />
    <glyph glyph-name="Aring.ss01" 
d="M557 114h-387v165h387v-165zM204 0h-189l170 552q21 69 65 103.5t104 34.5t104 -34.5t65 -103.5l170 -552h-189l-104 379q-10 35 -19 69.5t-11 54.5q-1 15 -5 26t-9 11t-9 -11t-6 -26q-3 -20 -12.5 -54.5t-19.5 -69.5zM357 693q-39 0 -71.5 19.5t-52 52t-19.5 71.5
t19.5 71.5t52 52t71.5 19.5t71.5 -19.5t52 -52t19.5 -71.5t-19.5 -71.5t-52 -52t-71.5 -19.5zM357 796q17 0 28.5 12t11.5 28q0 17 -11.5 28.5t-28.5 11.5q-16 0 -28 -11.5t-12 -28.5q0 -16 12 -28t28 -12z" />
    <glyph glyph-name="Atilde.ss01" 
d="M557 114h-387v165h387v-165zM204 0h-189l170 552q21 69 65 103.5t104 34.5t104 -34.5t65 -103.5l170 -552h-189l-104 379q-10 35 -19 69.5t-11 54.5q-1 15 -5 26t-9 11t-9 -11t-6 -26q-3 -20 -12.5 -54.5t-19.5 -69.5zM271 748l-127 34q2 35 17 66t41.5 50.5t61.5 19.5
q31 0 56 -7.5t46 -15t39 -7.5q17 0 27.5 12t11.5 25l127 -34q-2 -35 -17 -66t-41 -50.5t-62 -19.5q-32 0 -56.5 7.5t-44.5 15t-40 7.5q-17 0 -27 -12t-12 -25z" />
    <glyph glyph-name="B.ss01" horiz-adv-x="690" 
d="M363 0h-123q-85 0 -122.5 42t-37.5 113v365q0 71 37.5 113t122.5 42h123q128 0 200 -52t72 -139q0 -83 -60 -126.5t-155 -43.5v35q61 0 111 -13t79.5 -47.5t29.5 -97.5q0 -47 -20 -83t-56.5 -60t-87.5 -36t-113 -12zM373 510h-108v-345h108q20 0 35 3t25.5 9.5t16 16
t5.5 22.5q0 28 -21.5 37.5t-60.5 9.5h-28v140h28q39 0 58 14t19 39q0 22 -18.5 38t-58.5 16z" />
    <glyph glyph-name="D.ss01" horiz-adv-x="755" 
d="M715 335q0 -77 -27 -138.5t-76 -105.5t-116.5 -67.5t-148.5 -23.5h-107q-85 0 -122.5 42t-37.5 113v365q0 71 37.5 113t122.5 42h107q111 0 193.5 -42.5t128.5 -118.5t46 -179zM525 335q0 51 -22 89t-62 59.5t-94 21.5h-82v-340h82q41 0 73.5 12t56 34.5t36 54t12.5 69.5
z" />
    <glyph glyph-name="Eth.ss01" horiz-adv-x="755" 
d="M80 263h-64v150h64v107q0 71 37.5 113t122.5 42h107q111 0 193.5 -42.5t128.5 -118.5t46 -179q0 -77 -27 -138.5t-76 -105.5t-116.5 -67.5t-148.5 -23.5h-107q-85 0 -122.5 42t-37.5 113v108zM265 263v-98h82q41 0 73.5 12t56 34.5t36 54t12.5 69.5q0 51 -22 89t-62 59.5
t-94 21.5h-82v-92h118v-150h-118z" />
    <glyph glyph-name="Dcroat.ss01" horiz-adv-x="755" 
d="M80 263h-64v150h64v107q0 71 37.5 113t122.5 42h107q111 0 193.5 -42.5t128.5 -118.5t46 -179q0 -77 -27 -138.5t-76 -105.5t-116.5 -67.5t-148.5 -23.5h-107q-85 0 -122.5 42t-37.5 113v108zM265 263v-98h82q41 0 73.5 12t56 34.5t36 54t12.5 69.5q0 51 -22 89t-62 59.5
t-94 21.5h-82v-92h118v-150h-118z" />
    <glyph glyph-name="K.ss01" horiz-adv-x="742" 
d="M732 0h-225l-131 194q-25 38 -39 73.5t-14 69.5q0 35 14 70.5t41 72.5l140 195h208l-175 -243q-21 -29 -32 -50t-11 -38q0 -19 11 -39t32 -50zM265 0h-185v675h185v-675z" />
    <glyph glyph-name="Kcommaaccent.ss01" horiz-adv-x="742" 
d="M732 0h-225l-131 194q-25 38 -39 73.5t-14 69.5q0 35 14 70.5t41 72.5l140 195h208l-175 -243q-21 -29 -32 -50t-11 -38q0 -19 11 -39t32 -50zM265 0h-185v675h185v-675zM383 -327h-97l30 181l132 -24zM361 -236q-37 0 -63.5 26.5t-26.5 63.5t26.5 63.5t63.5 26.5
t63.5 -26.5t26.5 -63.5t-26.5 -63.5t-63.5 -26.5z" />
    <glyph glyph-name="M.ss01" horiz-adv-x="1027" 
d="M679 231l-41 -148q-12 -43 -44.5 -64.5t-71.5 -21.5q-41 0 -76 20.5t-47 64.5l-40 149q-31 117 -46 177.5t-18 76.5q-1 5 -2 7t-3 2t-3 -2.5t-1 -7.5q0 -16 -5.5 -77t-21.5 -176l-31 -231h-188l89 568q10 62 52 92t99 30q58 0 95.5 -25.5t50.5 -78.5l56 -223
q14 -55 21.5 -95.5t10.5 -62.5q1 -10 5 -10q2 0 3 2.5t2 7.5q3 22 10.5 62.5t21.5 95.5l56 223q14 53 55 78.5t91 25.5q62 0 101 -31t47 -91l81 -568h-187l-26 231q-13 116 -17.5 171.5t-4.5 71.5q0 5 -1 7.5t-3 2.5t-3 -2t-2 -7q-3 -16 -17.5 -72.5t-46.5 -171.5z" />
    <glyph glyph-name="N.ss01" horiz-adv-x="790" 
d="M249 0h-174v561q0 64 35 96.5t79 32.5q28 0 56 -12t47 -41l136 -196q35 -50 56.5 -82t36 -57.5t28.5 -58.5q2 -6 4 -8.5t3 -2.5q2 0 2.5 5t-4.5 21q-9 29 -11.5 73.5t-2.5 126.5v217h175v-561q0 -64 -33 -96.5t-79 -32.5q-28 0 -56.5 13t-48.5 41l-133 192
q-35 51 -57.5 82.5t-37.5 57t-28 58.5q-2 6 -4 8.5t-4 2.5t-2.5 -5t4.5 -21q10 -29 11.5 -73.5t1.5 -126.5v-214z" />
    <glyph glyph-name="Nacute.ss01" horiz-adv-x="790" 
d="M249 0h-174v561q0 64 35 96.5t79 32.5q28 0 56 -12t47 -41l136 -196q35 -50 56.5 -82t36 -57.5t28.5 -58.5q2 -6 4 -8.5t3 -2.5q2 0 2.5 5t-4.5 21q-9 29 -11.5 73.5t-2.5 126.5v217h175v-561q0 -64 -33 -96.5t-79 -32.5q-28 0 -56.5 13t-48.5 41l-133 192
q-35 51 -57.5 82.5t-37.5 57t-28 58.5q-2 6 -4 8.5t-4 2.5t-2.5 -5t4.5 -21q10 -29 11.5 -73.5t1.5 -126.5v-214zM475 748h-178l127 177h183z" />
    <glyph glyph-name="Ncaron.ss01" horiz-adv-x="790" 
d="M249 0h-174v561q0 64 35 96.5t79 32.5q28 0 56 -12t47 -41l136 -196q35 -50 56.5 -82t36 -57.5t28.5 -58.5q2 -6 4 -8.5t3 -2.5q2 0 2.5 5t-4.5 21q-9 29 -11.5 73.5t-2.5 126.5v217h175v-561q0 -64 -33 -96.5t-79 -32.5q-28 0 -56.5 13t-48.5 41l-133 192
q-35 51 -57.5 82.5t-37.5 57t-28 58.5q-2 6 -4 8.5t-4 2.5t-2.5 -5t4.5 -21q10 -29 11.5 -73.5t1.5 -126.5v-214zM247 816l-77 109h173l53 -75q3 -4 -0.5 -3.5t-1.5 3.5l53 75h173l-77 -109q-26 -37 -65.5 -55t-82.5 -18t-82.5 18t-65.5 55z" />
    <glyph glyph-name="Ntilde.ss01" horiz-adv-x="790" 
d="M249 0h-174v561q0 64 35 96.5t79 32.5q28 0 56 -12t47 -41l136 -196q35 -50 56.5 -82t36 -57.5t28.5 -58.5q2 -6 4 -8.5t3 -2.5q2 0 2.5 5t-4.5 21q-9 29 -11.5 73.5t-2.5 126.5v217h175v-561q0 -64 -33 -96.5t-79 -32.5q-28 0 -56.5 13t-48.5 41l-133 192
q-35 51 -57.5 82.5t-37.5 57t-28 58.5q-2 6 -4 8.5t-4 2.5t-2.5 -5t4.5 -21q10 -29 11.5 -73.5t1.5 -126.5v-214zM309 748l-127 34q2 35 17 66t41.5 50.5t61.5 19.5q31 0 56 -7.5t46 -15t39 -7.5q17 0 27.5 12t11.5 25l127 -34q-2 -35 -17 -66t-41 -50.5t-62 -19.5
q-32 0 -56.5 7.5t-44.5 15t-40 7.5q-17 0 -27 -12t-12 -25z" />
    <glyph glyph-name="R.ss01" horiz-adv-x="711" 
d="M262 0h-182v675h283q80 0 144 -25t101 -74.5t37 -124.5q0 -56 -24.5 -100.5t-68 -70.5t-102.5 -26l-50 35q60 0 94.5 -14t58 -46t49.5 -87l69 -142h-203l-85 173q-4 9 -8 13.5t-9.5 7.5t-13.5 5l-13 3v152h29q25 0 44.5 9t31 26t11.5 41q0 26 -11 42.5t-30.5 24.5
t-43.5 8h-106z" />
    <glyph glyph-name="Racute.ss01" horiz-adv-x="711" 
d="M262 0h-182v675h283q80 0 144 -25t101 -74.5t37 -124.5q0 -56 -24.5 -100.5t-68 -70.5t-102.5 -26l-50 35q60 0 94.5 -14t58 -46t49.5 -87l69 -142h-203l-85 173q-4 9 -8 13.5t-9.5 7.5t-13.5 5l-13 3v152h29q25 0 44.5 9t31 26t11.5 41q0 26 -11 42.5t-30.5 24.5
t-43.5 8h-106zM436 748h-178l127 177h183z" />
    <glyph glyph-name="Rcaron.ss01" horiz-adv-x="711" 
d="M262 0h-182v675h283q80 0 144 -25t101 -74.5t37 -124.5q0 -56 -24.5 -100.5t-68 -70.5t-102.5 -26l-50 35q60 0 94.5 -14t58 -46t49.5 -87l69 -142h-203l-85 173q-4 9 -8 13.5t-9.5 7.5t-13.5 5l-13 3v152h29q25 0 44.5 9t31 26t11.5 41q0 26 -11 42.5t-30.5 24.5
t-43.5 8h-106zM208 816l-77 109h173l53 -75q3 -4 -0.5 -3.5t-1.5 3.5l53 75h173l-77 -109q-26 -37 -65.5 -55t-82.5 -18t-82.5 18t-65.5 55z" />
    <glyph glyph-name="Rcommaaccent.ss01" horiz-adv-x="711" 
d="M262 0h-182v675h283q80 0 144 -25t101 -74.5t37 -124.5q0 -56 -24.5 -100.5t-68 -70.5t-102.5 -26l-50 35q60 0 94.5 -14t58 -46t49.5 -87l69 -142h-203l-85 173q-4 9 -8 13.5t-9.5 7.5t-13.5 5l-13 3v152h29q25 0 44.5 9t31 26t11.5 41q0 26 -11 42.5t-30.5 24.5
t-43.5 8h-106zM378 -327h-97l30 181l132 -24zM356 -236q-37 0 -63.5 26.5t-26.5 63.5t26.5 63.5t63.5 26.5t63.5 -26.5t26.5 -63.5t-26.5 -63.5t-63.5 -26.5z" />
    <glyph glyph-name="V.ss01" horiz-adv-x="688" 
d="M175 122l-170 553h189l112 -380q11 -34 20 -68t15 -60q1 -3 2 -5t2 -2q2 0 2.5 1.5t1.5 5.5q5 26 14.5 60t19.5 68l111 380h189l-170 -553q-21 -69 -68.5 -103.5t-100.5 -34.5q-52 0 -99.5 34.5t-69.5 103.5z" />
    <glyph glyph-name="W.ss01" horiz-adv-x="1038" 
d="M149 106l-139 569h190l54 -230q15 -61 24 -113.5t13.5 -87.5t4.5 -45q0 -4 1.5 -6.5t3.5 -2.5t3.5 2.5t1.5 6.5q0 15 13 83.5t38 165.5l39 148q13 47 46 70.5t79 23.5t77 -23t44 -71l39 -148q26 -97 38.5 -165.5t12.5 -83.5q0 -4 1.5 -6.5t3.5 -2.5t3.5 2.5t1.5 6.5
q0 10 4.5 45t14 87.5t23.5 113.5l54 230h190l-139 -569q-14 -59 -49 -90.5t-91 -31.5q-49 0 -87 25.5t-51 78.5l-57 235q-13 56 -21 86.5t-8 52.5q0 5 -1.5 8t-4.5 3t-4.5 -3t-1.5 -8q0 -22 -7.5 -52.5t-21.5 -86.5l-57 -235q-13 -53 -50.5 -78.5t-87.5 -25.5
q-55 0 -90.5 31.5t-49.5 90.5z" />
    <glyph glyph-name="Wacute.ss01" horiz-adv-x="1038" 
d="M149 106l-139 569h190l54 -230q15 -61 24 -113.5t13.5 -87.5t4.5 -45q0 -4 1.5 -6.5t3.5 -2.5t3.5 2.5t1.5 6.5q0 15 13 83.5t38 165.5l39 148q13 47 46 70.5t79 23.5t77 -23t44 -71l39 -148q26 -97 38.5 -165.5t12.5 -83.5q0 -4 1.5 -6.5t3.5 -2.5t3.5 2.5t1.5 6.5
q0 10 4.5 45t14 87.5t23.5 113.5l54 230h190l-139 -569q-14 -59 -49 -90.5t-91 -31.5q-49 0 -87 25.5t-51 78.5l-57 235q-13 56 -21 86.5t-8 52.5q0 5 -1.5 8t-4.5 3t-4.5 -3t-1.5 -8q0 -22 -7.5 -52.5t-21.5 -86.5l-57 -235q-13 -53 -50.5 -78.5t-87.5 -25.5
q-55 0 -90.5 31.5t-49.5 90.5zM600 748h-178l127 177h183z" />
    <glyph glyph-name="Wcircumflex.ss01" horiz-adv-x="1038" 
d="M149 106l-139 569h190l54 -230q15 -61 24 -113.5t13.5 -87.5t4.5 -45q0 -4 1.5 -6.5t3.5 -2.5t3.5 2.5t1.5 6.5q0 15 13 83.5t38 165.5l39 148q13 47 46 70.5t79 23.5t77 -23t44 -71l39 -148q26 -97 38.5 -165.5t12.5 -83.5q0 -4 1.5 -6.5t3.5 -2.5t3.5 2.5t1.5 6.5
q0 10 4.5 45t14 87.5t23.5 113.5l54 230h190l-139 -569q-14 -59 -49 -90.5t-91 -31.5q-49 0 -87 25.5t-51 78.5l-57 235q-13 56 -21 86.5t-8 52.5q0 5 -1.5 8t-4.5 3t-4.5 -3t-1.5 -8q0 -22 -7.5 -52.5t-21.5 -86.5l-57 -235q-13 -53 -50.5 -78.5t-87.5 -25.5
q-55 0 -90.5 31.5t-49.5 90.5zM295 748l77 109q26 37 65.5 55.5t82.5 18.5t82.5 -18.5t65.5 -55.5l77 -109h-173l-53 75q-2 3 1.5 3.5t0.5 -3.5l-53 -75h-173z" />
    <glyph glyph-name="Wdieresis.ss01" horiz-adv-x="1038" 
d="M149 106l-139 569h190l54 -230q15 -61 24 -113.5t13.5 -87.5t4.5 -45q0 -4 1.5 -6.5t3.5 -2.5t3.5 2.5t1.5 6.5q0 15 13 83.5t38 165.5l39 148q13 47 46 70.5t79 23.5t77 -23t44 -71l39 -148q26 -97 38.5 -165.5t12.5 -83.5q0 -4 1.5 -6.5t3.5 -2.5t3.5 2.5t1.5 6.5
q0 10 4.5 45t14 87.5t23.5 113.5l54 230h190l-139 -569q-14 -59 -49 -90.5t-91 -31.5q-49 0 -87 25.5t-51 78.5l-57 235q-13 56 -21 86.5t-8 52.5q0 5 -1.5 8t-4.5 3t-4.5 -3t-1.5 -8q0 -22 -7.5 -52.5t-21.5 -86.5l-57 -235q-13 -53 -50.5 -78.5t-87.5 -25.5
q-55 0 -90.5 31.5t-49.5 90.5zM389 734q-42 0 -72 30t-30 72t30 72t72 30q41 0 71 -30t30 -72t-30 -72t-71 -30zM651 734q-41 0 -71 30t-30 72t30 72t71 30q42 0 72 -30t30 -72t-30 -72t-72 -30z" />
    <glyph glyph-name="Wgrave.ss01" horiz-adv-x="1038" 
d="M149 106l-139 569h190l54 -230q15 -61 24 -113.5t13.5 -87.5t4.5 -45q0 -4 1.5 -6.5t3.5 -2.5t3.5 2.5t1.5 6.5q0 15 13 83.5t38 165.5l39 148q13 47 46 70.5t79 23.5t77 -23t44 -71l39 -148q26 -97 38.5 -165.5t12.5 -83.5q0 -4 1.5 -6.5t3.5 -2.5t3.5 2.5t1.5 6.5
q0 10 4.5 45t14 87.5t23.5 113.5l54 230h190l-139 -569q-14 -59 -49 -90.5t-91 -31.5q-49 0 -87 25.5t-51 78.5l-57 235q-13 56 -21 86.5t-8 52.5q0 5 -1.5 8t-4.5 3t-4.5 -3t-1.5 -8q0 -22 -7.5 -52.5t-21.5 -86.5l-57 -235q-13 -53 -50.5 -78.5t-87.5 -25.5
q-55 0 -90.5 31.5t-49.5 90.5zM493 925l127 -177h-178l-132 177h183z" />
    <glyph glyph-name="X.ss01" horiz-adv-x="769" 
d="M764 0h-221l-103 184q-21 37 -31.5 76t-10.5 76q0 78 42 154l102 185h216l-144 -243q-18 -31 -26 -50.5t-8 -37.5q0 -17 7.5 -37t26.5 -52zM226 0h-221l150 255q19 32 26.5 52t7.5 37q0 18 -8 37.5t-26 50.5l-144 243h216l102 -185q42 -76 42 -154q0 -37 -10.5 -76
t-31.5 -76z" />
    <glyph glyph-name="Y.ss01" horiz-adv-x="688" 
d="M437 0h-185v295h185v-295zM175 298l-170 377h199l97 -224q15 -34 23.5 -56t14.5 -48q1 -3 2.5 -5t3.5 -2t3.5 1.5t2.5 5.5q6 26 13.5 48t22.5 56l97 224h199l-170 -377q-29 -65 -74.5 -98t-94.5 -33t-94 33t-75 98z" />
    <glyph glyph-name="Yacute.ss01" horiz-adv-x="688" 
d="M437 0h-185v295h185v-295zM175 298l-170 377h199l97 -224q15 -34 23.5 -56t14.5 -48q1 -3 2.5 -5t3.5 -2t3.5 1.5t2.5 5.5q6 26 13.5 48t22.5 56l97 224h199l-170 -377q-29 -65 -74.5 -98t-94.5 -33t-94 33t-75 98zM424 748h-178l127 177h183z" />
    <glyph glyph-name="Ycircumflex.ss01" horiz-adv-x="688" 
d="M437 0h-185v295h185v-295zM175 298l-170 377h199l97 -224q15 -34 23.5 -56t14.5 -48q1 -3 2.5 -5t3.5 -2t3.5 1.5t2.5 5.5q6 26 13.5 48t22.5 56l97 224h199l-170 -377q-29 -65 -74.5 -98t-94.5 -33t-94 33t-75 98zM119 748l77 109q26 37 65.5 55.5t82.5 18.5t82.5 -18.5
t65.5 -55.5l77 -109h-173l-53 75q-2 3 1.5 3.5t0.5 -3.5l-53 -75h-173z" />
    <glyph glyph-name="Ydieresis.ss01" horiz-adv-x="688" 
d="M437 0h-185v295h185v-295zM175 298l-170 377h199l97 -224q15 -34 23.5 -56t14.5 -48q1 -3 2.5 -5t3.5 -2t3.5 1.5t2.5 5.5q6 26 13.5 48t22.5 56l97 224h199l-170 -377q-29 -65 -74.5 -98t-94.5 -33t-94 33t-75 98zM213 734q-42 0 -72 30t-30 72t30 72t72 30q41 0 71 -30
t30 -72t-30 -72t-71 -30zM475 734q-41 0 -71 30t-30 72t30 72t71 30q42 0 72 -30t30 -72t-30 -72t-72 -30z" />
    <glyph glyph-name="Ygrave.ss01" horiz-adv-x="688" 
d="M437 0h-185v295h185v-295zM175 298l-170 377h199l97 -224q15 -34 23.5 -56t14.5 -48q1 -3 2.5 -5t3.5 -2t3.5 1.5t2.5 5.5q6 26 13.5 48t22.5 56l97 224h199l-170 -377q-29 -65 -74.5 -98t-94.5 -33t-94 33t-75 98zM317 925l127 -177h-178l-132 177h183z" />
    <glyph glyph-name="Z.ss01" horiz-adv-x="599" 
d="M545 170v-170h-353q-53 0 -86.5 20t-49.5 52.5t-16 67.5q0 32 12 63.5t35 54.5l173 174q20 20 40 38t47 33q5 3 7 4.5t2 2.5q0 2 -3 2q-5 0 -24.5 -3.5t-45.5 -3.5h-226v170h345q51 0 86 -19.5t53 -50.5t18 -68q0 -30 -13 -61.5t-40 -58.5l-172 -174q-20 -20 -39.5 -36.5
t-46.5 -31.5q-5 -3 -7.5 -5t-2.5 -4q0 -3 4 -3q3 0 18.5 3.5t50.5 3.5h234z" />
    <glyph glyph-name="Zacute.ss01" horiz-adv-x="599" 
d="M545 170v-170h-353q-53 0 -86.5 20t-49.5 52.5t-16 67.5q0 32 12 63.5t35 54.5l173 174q20 20 40 38t47 33q5 3 7 4.5t2 2.5q0 2 -3 2q-5 0 -24.5 -3.5t-45.5 -3.5h-226v170h345q51 0 86 -19.5t53 -50.5t18 -68q0 -30 -13 -61.5t-40 -58.5l-172 -174q-20 -20 -39.5 -36.5
t-46.5 -31.5q-5 -3 -7.5 -5t-2.5 -4q0 -3 4 -3q3 0 18.5 3.5t50.5 3.5h234zM390 748h-178l127 177h183z" />
    <glyph glyph-name="Zcaron.ss01" horiz-adv-x="599" 
d="M545 170v-170h-353q-53 0 -86.5 20t-49.5 52.5t-16 67.5q0 32 12 63.5t35 54.5l173 174q20 20 40 38t47 33q5 3 7 4.5t2 2.5q0 2 -3 2q-5 0 -24.5 -3.5t-45.5 -3.5h-226v170h345q51 0 86 -19.5t53 -50.5t18 -68q0 -30 -13 -61.5t-40 -58.5l-172 -174q-20 -20 -39.5 -36.5
t-46.5 -31.5q-5 -3 -7.5 -5t-2.5 -4q0 -3 4 -3q3 0 18.5 3.5t50.5 3.5h234zM162 816l-77 109h173l53 -75q3 -4 -0.5 -3.5t-1.5 3.5l53 75h173l-77 -109q-26 -37 -65.5 -55t-82.5 -18t-82.5 18t-65.5 55z" />
    <glyph glyph-name="Zdotaccent.ss01" horiz-adv-x="599" 
d="M545 170v-170h-353q-53 0 -86.5 20t-49.5 52.5t-16 67.5q0 32 12 63.5t35 54.5l173 174q20 20 40 38t47 33q5 3 7 4.5t2 2.5q0 2 -3 2q-5 0 -24.5 -3.5t-45.5 -3.5h-226v170h345q51 0 86 -19.5t53 -50.5t18 -68q0 -30 -13 -61.5t-40 -58.5l-172 -174q-20 -20 -39.5 -36.5
t-46.5 -31.5q-5 -3 -7.5 -5t-2.5 -4q0 -3 4 -3q3 0 18.5 3.5t50.5 3.5h234zM310 728q-29 0 -54 14.5t-39.5 39.5t-14.5 54q0 30 14.5 54.5t39.5 39t54 14.5q30 0 54.5 -14.5t39 -39t14.5 -54.5q0 -29 -14.5 -54t-39 -39.5t-54.5 -14.5z" />
    <glyph glyph-name="A.ss02" horiz-adv-x="725" 
d="M532 158h-377v170h377v-170zM362 690q155 0 229 -85t74 -235v-370h-185v360q0 78 -29.5 116.5t-88.5 38.5q-58 0 -87.5 -38.5t-29.5 -116.5v-360h-185v370q0 150 73.5 235t228.5 85z" />
    <glyph glyph-name="Aacute.ss02" horiz-adv-x="725" 
d="M532 158h-377v170h377v-170zM362 690q155 0 229 -85t74 -235v-370h-185v360q0 78 -29.5 116.5t-88.5 38.5q-58 0 -87.5 -38.5t-29.5 -116.5v-360h-185v370q0 150 73.5 235t228.5 85zM442 748h-178l127 177h183z" />
    <glyph glyph-name="Abreve.ss02" horiz-adv-x="725" 
d="M532 158h-377v170h377v-170zM362 690q155 0 229 -85t74 -235v-370h-185v360q0 78 -29.5 116.5t-88.5 38.5q-58 0 -87.5 -38.5t-29.5 -116.5v-360h-185v370q0 150 73.5 235t228.5 85zM362 748q-101 0 -150.5 44.5t-49.5 122.5v10h150v-10q0 -16 10.5 -31.5t39.5 -15.5
t39.5 16t10.5 31v10h150v-10q0 -78 -49.5 -122.5t-150.5 -44.5z" />
    <glyph glyph-name="Acircumflex.ss02" horiz-adv-x="725" 
d="M532 158h-377v170h377v-170zM362 690q155 0 229 -85t74 -235v-370h-185v360q0 78 -29.5 116.5t-88.5 38.5q-58 0 -87.5 -38.5t-29.5 -116.5v-360h-185v370q0 150 73.5 235t228.5 85zM137 748l77 109q26 37 65.5 55.5t82.5 18.5t82.5 -18.5t65.5 -55.5l77 -109h-173
l-53 75q-2 3 1.5 3.5t0.5 -3.5l-53 -75h-173z" />
    <glyph glyph-name="Adieresis.ss02" horiz-adv-x="725" 
d="M532 158h-377v170h377v-170zM362 690q155 0 229 -85t74 -235v-370h-185v360q0 78 -29.5 116.5t-88.5 38.5q-58 0 -87.5 -38.5t-29.5 -116.5v-360h-185v370q0 150 73.5 235t228.5 85zM231 734q-42 0 -72 30t-30 72t30 72t72 30q41 0 71 -30t30 -72t-30 -72t-71 -30z
M493 734q-41 0 -71 30t-30 72t30 72t71 30q42 0 72 -30t30 -72t-30 -72t-72 -30z" />
    <glyph glyph-name="Agrave.ss02" horiz-adv-x="725" 
d="M532 158h-377v170h377v-170zM362 690q155 0 229 -85t74 -235v-370h-185v360q0 78 -29.5 116.5t-88.5 38.5q-58 0 -87.5 -38.5t-29.5 -116.5v-360h-185v370q0 150 73.5 235t228.5 85zM335 925l127 -177h-178l-132 177h183z" />
    <glyph glyph-name="Amacron.ss02" horiz-adv-x="725" 
d="M532 158h-377v170h377v-170zM362 690q155 0 229 -85t74 -235v-370h-185v360q0 78 -29.5 116.5t-88.5 38.5q-58 0 -87.5 -38.5t-29.5 -116.5v-360h-185v370q0 150 73.5 235t228.5 85zM554 905v-135h-385v135h385z" />
    <glyph glyph-name="Aogonek.ss02" horiz-adv-x="725" 
d="M532 158h-377v170h377v-170zM362 690q155 0 229 -85t74 -235v-370h-185v360q0 78 -29.5 116.5t-88.5 38.5q-58 0 -87.5 -38.5t-29.5 -116.5v-360h-185v370q0 150 73.5 235t228.5 85zM717 -171l-61 -138q-60 5 -107.5 27.5t-74.5 59t-27 83.5q0 42 17 75.5t48 63.5h153
q-31 -26 -45 -48.5t-14 -45.5q0 -37 32.5 -54.5t78.5 -22.5z" />
    <glyph glyph-name="Aring.ss02" horiz-adv-x="725" 
d="M532 158h-377v170h377v-170zM362 690q155 0 229 -85t74 -235v-370h-185v360q0 78 -29.5 116.5t-88.5 38.5q-58 0 -87.5 -38.5t-29.5 -116.5v-360h-185v370q0 150 73.5 235t228.5 85zM362 693q-39 0 -71.5 19.5t-52 52t-19.5 71.5t19.5 71.5t52 52t71.5 19.5t71.5 -19.5
t52 -52t19.5 -71.5t-19.5 -71.5t-52 -52t-71.5 -19.5zM362 796q17 0 28.5 12t11.5 28q0 17 -11.5 28.5t-28.5 11.5q-16 0 -28 -11.5t-12 -28.5q0 -16 12 -28t28 -12z" />
    <glyph glyph-name="Atilde.ss02" horiz-adv-x="725" 
d="M532 158h-377v170h377v-170zM362 690q155 0 229 -85t74 -235v-370h-185v360q0 78 -29.5 116.5t-88.5 38.5q-58 0 -87.5 -38.5t-29.5 -116.5v-360h-185v370q0 150 73.5 235t228.5 85zM276 748l-127 34q2 35 17 66t41.5 50.5t61.5 19.5q31 0 56 -7.5t46 -15t39 -7.5
q17 0 27.5 12t11.5 25l127 -34q-2 -35 -17 -66t-41 -50.5t-62 -19.5q-32 0 -56.5 7.5t-44.5 15t-40 7.5q-17 0 -27 -12t-12 -25z" />
    <glyph glyph-name="K.ss02" horiz-adv-x="732" 
d="M265 0h-185v675h185v-257h82q61 0 92 31.5t31 86.5v139h185v-138q0 -47 -9.5 -87.5t-34.5 -71.5t-71 -48t-120 -17v35q95 0 147.5 -29t73.5 -80t21 -117v-122h-185v119q0 42 -15.5 70.5t-44.5 43.5t-70 15h-82v-248z" />
    <glyph glyph-name="Kcommaaccent.ss02" horiz-adv-x="732" 
d="M265 0h-185v675h185v-257h82q61 0 92 31.5t31 86.5v139h185v-138q0 -47 -9.5 -87.5t-34.5 -71.5t-71 -48t-120 -17v35q95 0 147.5 -29t73.5 -80t21 -117v-122h-185v119q0 42 -15.5 70.5t-44.5 43.5t-70 15h-82v-248zM383 -327h-97l30 181l132 -24zM361 -236
q-37 0 -63.5 26.5t-26.5 63.5t26.5 63.5t63.5 26.5t63.5 -26.5t26.5 -63.5t-26.5 -63.5t-63.5 -26.5z" />
    <glyph glyph-name="X.ss02" horiz-adv-x="722" 
d="M361 417q41 0 64 16.5t32.5 44t9.5 58.5v139h185v-161q0 -73 -34 -127t-99 -83t-158 -29q-92 0 -157.5 29t-99.5 83t-34 127v161h185v-139q0 -31 9.5 -58.5t33 -44t63.5 -16.5zM361 248q-40 0 -63.5 -14t-33 -38.5t-9.5 -56.5v-139h-185v161q0 74 34 125t99.5 77.5
t157.5 26.5q93 0 158 -26.5t99 -77.5t34 -125v-161h-185v139q0 32 -9.5 56.5t-32.5 38.5t-64 14z" />
    <glyph glyph-name="Y.ss02" horiz-adv-x="676" 
d="M432 0h-185v300h185v-300zM338 340q36 0 57 16t30 42.5t9 57.5v219h185v-241q0 -73 -29.5 -133t-91.5 -95.5t-160 -35.5q-97 0 -159.5 35.5t-92 95.5t-29.5 133v241h185v-219q0 -31 9 -57.5t30.5 -42.5t56.5 -16z" />
    <glyph glyph-name="Yacute.ss02" horiz-adv-x="676" 
d="M432 0h-185v300h185v-300zM338 340q36 0 57 16t30 42.5t9 57.5v219h185v-241q0 -73 -29.5 -133t-91.5 -95.5t-160 -35.5q-97 0 -159.5 35.5t-92 95.5t-29.5 133v241h185v-219q0 -31 9 -57.5t30.5 -42.5t56.5 -16zM418 748h-178l127 177h183z" />
    <glyph glyph-name="Ycircumflex.ss02" horiz-adv-x="676" 
d="M432 0h-185v300h185v-300zM338 340q36 0 57 16t30 42.5t9 57.5v219h185v-241q0 -73 -29.5 -133t-91.5 -95.5t-160 -35.5q-97 0 -159.5 35.5t-92 95.5t-29.5 133v241h185v-219q0 -31 9 -57.5t30.5 -42.5t56.5 -16zM113 748l77 109q26 37 65.5 55.5t82.5 18.5t82.5 -18.5
t65.5 -55.5l77 -109h-173l-53 75q-2 3 1.5 3.5t0.5 -3.5l-53 -75h-173z" />
    <glyph glyph-name="Ydieresis.ss02" horiz-adv-x="676" 
d="M432 0h-185v300h185v-300zM338 340q36 0 57 16t30 42.5t9 57.5v219h185v-241q0 -73 -29.5 -133t-91.5 -95.5t-160 -35.5q-97 0 -159.5 35.5t-92 95.5t-29.5 133v241h185v-219q0 -31 9 -57.5t30.5 -42.5t56.5 -16zM207 734q-42 0 -72 30t-30 72t30 72t72 30q41 0 71 -30
t30 -72t-30 -72t-71 -30zM469 734q-41 0 -71 30t-30 72t30 72t71 30q42 0 72 -30t30 -72t-30 -72t-72 -30z" />
    <glyph glyph-name="Ygrave.ss02" horiz-adv-x="676" 
d="M432 0h-185v300h185v-300zM338 340q36 0 57 16t30 42.5t9 57.5v219h185v-241q0 -73 -29.5 -133t-91.5 -95.5t-160 -35.5q-97 0 -159.5 35.5t-92 95.5t-29.5 133v241h185v-219q0 -31 9 -57.5t30.5 -42.5t56.5 -16zM311 925l127 -177h-178l-132 177h183z" />
    <glyph glyph-name="idotaccent" horiz-adv-x="320" 
d="M70 500h180v-500h-180v500zM160 553q-29 0 -54 14.5t-39.5 39.5t-14.5 54q0 30 14.5 54.5t39.5 39t54 14.5q30 0 54.5 -14.5t39 -39t14.5 -54.5q0 -29 -14.5 -54t-39 -39.5t-54.5 -14.5z" />
    <glyph glyph-name="k.ss01" horiz-adv-x="636" 
d="M630 0h-211l-120 165q-15 21 -22.5 41t-7.5 42q0 23 15 48t30 44l124 160h193l-209 -268q4 5 6 10t2 11q0 5 -2 10.5t-6 9.5zM250 0h-180v730h180v-730z" />
    <glyph glyph-name="kcommaaccent.ss01" horiz-adv-x="636" 
d="M630 0h-211l-120 165q-15 21 -22.5 41t-7.5 42q0 23 15 48t30 44l124 160h193l-209 -268q4 5 6 10t2 11q0 5 -2 10.5t-6 9.5zM250 0h-180v730h180v-730zM340 -327h-97l30 181l132 -24zM318 -236q-37 0 -63.5 26.5t-26.5 63.5t26.5 63.5t63.5 26.5t63.5 -26.5t26.5 -63.5
t-26.5 -63.5t-63.5 -26.5z" />
    <glyph glyph-name="v.ss01" horiz-adv-x="593" 
d="M145 98l-145 402h192l76 -221q6 -15 10.5 -37t8 -40t4.5 -23q2 -8 6 -8t6 8q1 5 4 23t8 40t10 37l76 221h192l-145 -402q-21 -57 -59.5 -85.5t-92.5 -28.5t-92.5 28.5t-58.5 85.5z" />
    <glyph glyph-name="w.ss01" horiz-adv-x="884" 
d="M104 105l-94 395h168l53 -214q12 -47 16.5 -78.5t4.5 -41.5q0 -3 1.5 -4.5t2.5 -1.5q2 0 3 1.5t1 4.5q0 10 7.5 42t18.5 78l28 114q14 57 48.5 87t86.5 30q53 0 83.5 -29t43.5 -88l26 -114q11 -47 18.5 -78.5t7.5 -41.5q0 -3 1.5 -4.5t2.5 -1.5q2 0 3 1.5t1 4.5
q0 10 5.5 41.5t15.5 78.5l49 214h168l-94 -395q-14 -61 -50 -91t-89 -30q-55 0 -96 31t-53 90l-21 105q-4 24 -10 58t-10 53q-1 4 -2 6t-4 2t-4 -2.5t-2 -5.5q-4 -19 -12 -53t-13 -58l-23 -105q-13 -59 -46.5 -90t-88.5 -31q-52 0 -95 30t-57 91z" />
    <glyph glyph-name="wacute.ss01" horiz-adv-x="884" 
d="M104 105l-94 395h168l53 -214q12 -47 16.5 -78.5t4.5 -41.5q0 -3 1.5 -4.5t2.5 -1.5q2 0 3 1.5t1 4.5q0 10 7.5 42t18.5 78l28 114q14 57 48.5 87t86.5 30q53 0 83.5 -29t43.5 -88l26 -114q11 -47 18.5 -78.5t7.5 -41.5q0 -3 1.5 -4.5t2.5 -1.5q2 0 3 1.5t1 4.5
q0 10 5.5 41.5t15.5 78.5l49 214h168l-94 -395q-14 -61 -50 -91t-89 -30q-55 0 -96 31t-53 90l-21 105q-4 24 -10 58t-10 53q-1 4 -2 6t-4 2t-4 -2.5t-2 -5.5q-4 -19 -12 -53t-13 -58l-23 -105q-13 -59 -46.5 -90t-88.5 -31q-52 0 -95 30t-57 91zM529 573h-178l127 177h183z
" />
    <glyph glyph-name="wcircumflex.ss01" horiz-adv-x="884" 
d="M104 105l-94 395h168l53 -214q12 -47 16.5 -78.5t4.5 -41.5q0 -3 1.5 -4.5t2.5 -1.5q2 0 3 1.5t1 4.5q0 10 7.5 42t18.5 78l28 114q14 57 48.5 87t86.5 30q53 0 83.5 -29t43.5 -88l26 -114q11 -47 18.5 -78.5t7.5 -41.5q0 -3 1.5 -4.5t2.5 -1.5q2 0 3 1.5t1 4.5
q0 10 5.5 41.5t15.5 78.5l49 214h168l-94 -395q-14 -61 -50 -91t-89 -30q-55 0 -96 31t-53 90l-21 105q-4 24 -10 58t-10 53q-1 4 -2 6t-4 2t-4 -2.5t-2 -5.5q-4 -19 -12 -53t-13 -58l-23 -105q-13 -59 -46.5 -90t-88.5 -31q-52 0 -95 30t-57 91zM224 573l77 109
q26 37 65.5 55.5t82.5 18.5t82.5 -18.5t65.5 -55.5l77 -109h-173l-53 75q-2 3 1.5 3.5t0.5 -3.5l-53 -75h-173z" />
    <glyph glyph-name="wdieresis.ss01" horiz-adv-x="884" 
d="M104 105l-94 395h168l53 -214q12 -47 16.5 -78.5t4.5 -41.5q0 -3 1.5 -4.5t2.5 -1.5q2 0 3 1.5t1 4.5q0 10 7.5 42t18.5 78l28 114q14 57 48.5 87t86.5 30q53 0 83.5 -29t43.5 -88l26 -114q11 -47 18.5 -78.5t7.5 -41.5q0 -3 1.5 -4.5t2.5 -1.5q2 0 3 1.5t1 4.5
q0 10 5.5 41.5t15.5 78.5l49 214h168l-94 -395q-14 -61 -50 -91t-89 -30q-55 0 -96 31t-53 90l-21 105q-4 24 -10 58t-10 53q-1 4 -2 6t-4 2t-4 -2.5t-2 -5.5q-4 -19 -12 -53t-13 -58l-23 -105q-13 -59 -46.5 -90t-88.5 -31q-52 0 -95 30t-57 91zM318 559q-42 0 -72 30
t-30 72t30 72t72 30q41 0 71 -30t30 -72t-30 -72t-71 -30zM580 559q-41 0 -71 30t-30 72t30 72t71 30q42 0 72 -30t30 -72t-30 -72t-72 -30z" />
    <glyph glyph-name="wgrave.ss01" horiz-adv-x="884" 
d="M104 105l-94 395h168l53 -214q12 -47 16.5 -78.5t4.5 -41.5q0 -3 1.5 -4.5t2.5 -1.5q2 0 3 1.5t1 4.5q0 10 7.5 42t18.5 78l28 114q14 57 48.5 87t86.5 30q53 0 83.5 -29t43.5 -88l26 -114q11 -47 18.5 -78.5t7.5 -41.5q0 -3 1.5 -4.5t2.5 -1.5q2 0 3 1.5t1 4.5
q0 10 5.5 41.5t15.5 78.5l49 214h168l-94 -395q-14 -61 -50 -91t-89 -30q-55 0 -96 31t-53 90l-21 105q-4 24 -10 58t-10 53q-1 4 -2 6t-4 2t-4 -2.5t-2 -5.5q-4 -19 -12 -53t-13 -58l-23 -105q-13 -59 -46.5 -90t-88.5 -31q-52 0 -95 30t-57 91zM422 750l127 -177h-178
l-132 177h183z" />
    <glyph glyph-name="x.ss01" horiz-adv-x="629" 
d="M618 0h-201l-61 127q-26 55 -26 120q0 66 26 123l60 130h203l-113 -199q-10 -16 -14.5 -28.5t-4.5 -23.5q0 -21 22 -59zM212 0h-201l109 190q22 38 22 59q0 20 -19 52l-113 199h203l60 -130q13 -28 19.5 -59.5t6.5 -63.5q0 -65 -26 -120z" />
    <glyph glyph-name="z.ss01" horiz-adv-x="549" 
d="M497 150v-150h-313q-72 0 -108 35.5t-36 80.5q0 39 16 65.5t54 48.5l136 79q20 12 40 22t33 16q7 3 8.5 4.5t1.5 2.5q0 3 -4 3q-9 0 -36.5 -3.5t-73.5 -3.5h-155v150h305q72 0 108 -35.5t36 -80.5q0 -39 -16 -65.5t-54 -48.5l-136 -79q-20 -12 -39.5 -22.5t-33.5 -15.5
q-7 -3 -8.5 -4t-1.5 -3q0 -3 4 -3q9 0 36.5 3.5t73.5 3.5h163z" />
    <glyph glyph-name="zacute.ss01" horiz-adv-x="549" 
d="M497 150v-150h-313q-72 0 -108 35.5t-36 80.5q0 39 16 65.5t54 48.5l136 79q20 12 40 22t33 16q7 3 8.5 4.5t1.5 2.5q0 3 -4 3q-9 0 -36.5 -3.5t-73.5 -3.5h-155v150h305q72 0 108 -35.5t36 -80.5q0 -39 -16 -65.5t-54 -48.5l-136 -79q-20 -12 -39.5 -22.5t-33.5 -15.5
q-7 -3 -8.5 -4t-1.5 -3q0 -3 4 -3q9 0 36.5 3.5t73.5 3.5h163zM355 573h-178l127 177h183z" />
    <glyph glyph-name="zcaron.ss01" horiz-adv-x="549" 
d="M497 150v-150h-313q-72 0 -108 35.5t-36 80.5q0 39 16 65.5t54 48.5l136 79q20 12 40 22t33 16q7 3 8.5 4.5t1.5 2.5q0 3 -4 3q-9 0 -36.5 -3.5t-73.5 -3.5h-155v150h305q72 0 108 -35.5t36 -80.5q0 -39 -16 -65.5t-54 -48.5l-136 -79q-20 -12 -39.5 -22.5t-33.5 -15.5
q-7 -3 -8.5 -4t-1.5 -3q0 -3 4 -3q9 0 36.5 3.5t73.5 3.5h163zM127 641l-77 109h173l53 -75q3 -4 -0.5 -3.5t-1.5 3.5l53 75h173l-77 -109q-26 -37 -65.5 -55t-82.5 -18t-82.5 18t-65.5 55z" />
    <glyph glyph-name="zdotaccent.ss01" horiz-adv-x="549" 
d="M497 150v-150h-313q-72 0 -108 35.5t-36 80.5q0 39 16 65.5t54 48.5l136 79q20 12 40 22t33 16q7 3 8.5 4.5t1.5 2.5q0 3 -4 3q-9 0 -36.5 -3.5t-73.5 -3.5h-155v150h305q72 0 108 -35.5t36 -80.5q0 -39 -16 -65.5t-54 -48.5l-136 -79q-20 -12 -39.5 -22.5t-33.5 -15.5
q-7 -3 -8.5 -4t-1.5 -3q0 -3 4 -3q9 0 36.5 3.5t73.5 3.5h163zM275 553q-29 0 -54 14.5t-39.5 39.5t-14.5 54q0 30 14.5 54.5t39.5 39t54 14.5q30 0 54.5 -14.5t39 -39t14.5 -54.5q0 -29 -14.5 -54t-39 -39.5t-54.5 -14.5z" />
    <glyph glyph-name="k.ss02" horiz-adv-x="612" 
d="M245 0h-180v730h180v-395h24q39 0 64 11t37 37.5t12 74.5v42h180v-12q0 -43 -7 -85t-24.5 -77t-48.5 -56t-79 -21v11q48 0 79 -22.5t48.5 -59t24.5 -80t7 -86.5v-12h-180v32q0 49 -12 80.5t-37 47t-64 15.5h-24v-175z" />
    <glyph glyph-name="kcommaaccent.ss02" horiz-adv-x="612" 
d="M245 0h-180v730h180v-395h24q39 0 64 11t37 37.5t12 74.5v42h180v-12q0 -43 -7 -85t-24.5 -77t-48.5 -56t-79 -21v11q48 0 79 -22.5t48.5 -59t24.5 -80t7 -86.5v-12h-180v32q0 49 -12 80.5t-37 47t-64 15.5h-24v-175zM328 -327h-97l30 181l132 -24zM306 -236
q-37 0 -63.5 26.5t-26.5 63.5t26.5 63.5t63.5 26.5t63.5 -26.5t26.5 -63.5t-26.5 -63.5t-63.5 -26.5z" />
    <glyph glyph-name="x.ss02" horiz-adv-x="617" 
d="M250 165v181h24q39 0 64 15.5t37 47t12 79.5v12h180v-12q0 -43 -8.5 -86t-28 -78.5t-52 -57t-80.5 -21.5v21q48 0 80.5 -23t52 -61t28 -82.5t8.5 -87.5v-12h-180v12q0 49 -12 83t-37 52t-64 18h-24zM367 346v-181h-24q-39 0 -64 -18t-37 -52t-12 -83v-12h-180v12
q0 43 8.5 87.5t28 82.5t52 61t80.5 23v-21q-48 0 -80.5 21.5t-52 57t-28 78.5t-8.5 86v12h180v-12q0 -48 12 -79.5t37 -47t64 -15.5h24z" />
    <glyph glyph-name="three.ss01" horiz-adv-x="583" 
d="M273 -16q-88 0 -157 35.5t-110 115.5l157 82q14 -37 43 -52t62 -15q19 0 37 5t30 16.5t12 29.5q0 20 -12 33.5t-33.5 21t-51.5 7.5h-43v149h49q44 0 65.5 13.5t21.5 43.5q0 18 -9.5 30t-25.5 18.5t-35 6.5q-29 0 -60 -15t-45 -52l-157 82q41 80 109.5 115.5t152.5 35.5
q76 0 132.5 -25t88 -70t31.5 -107q0 -41 -21 -80t-54.5 -64t-71.5 -25v12q38 0 72.5 -19.5t56.5 -55t22 -82.5q0 -58 -32 -100.5t-89.5 -66t-134.5 -23.5z" />
    <glyph glyph-name="dotaccentcomb.i" horiz-adv-x="0" 
d="M0 553q-29 0 -54 14.5t-39.5 39.5t-14.5 54q0 30 14.5 54.5t39.5 39t54 14.5q30 0 54.5 -14.5t39 -39t14.5 -54.5q0 -29 -14.5 -54t-39 -39.5t-54.5 -14.5z" />
    <glyph glyph-name="ITF" horiz-adv-x="1739" 
d="M110 0v700h216v-700h-216zM371 496v204h216v-204h-216zM631 0v700h217v-700h-217zM892 496v204h216v-204h-216zM1152 0v700h217v-700h-217zM1413 496v204h216v-204h-216zM1413 247v205h216v-205h-216z" />
    </font>
</defs>
</svg>
